G04 #@! TF.GenerationSoftware,KiCad,Pcbnew,(5.1.2)-2*
G04 #@! TF.CreationDate,2020-04-16T23:42:25+09:00*
G04 #@! TF.ProjectId,17mm topplate,31376d6d-2074-46f7-9070-6c6174652e6b,rev?*
G04 #@! TF.SameCoordinates,Original*
G04 #@! TF.FileFunction,Profile,NP*
%FSLAX46Y46*%
G04 Gerber Fmt 4.6, Leading zero omitted, Abs format (unit mm)*
G04 Created by KiCad (PCBNEW (5.1.2)-2) date 2020-04-16 23:42:25*
%MOMM*%
%LPD*%
G04 APERTURE LIST*
%ADD10C,0.050000*%
G04 APERTURE END LIST*
D10*
X202589999Y-131501502D02*
G75*
G02X204529999Y-133979999I1J-1998498D01*
G01*
X201000000Y-131500000D02*
G75*
G02X200000000Y-130500000I0J1000000D01*
G01*
X198000000Y-112000000D02*
G75*
G02X200000000Y-114000000I0J-2000000D01*
G01*
X201000000Y-131500000D02*
X202590000Y-131500000D01*
X200000000Y-114000000D02*
X200000000Y-130500000D01*
X192000000Y-115410000D02*
X192000000Y-129410000D01*
X178000000Y-115410000D02*
X192000000Y-115410000D01*
X178000000Y-129410000D02*
X178000000Y-115410000D01*
X192000000Y-129410000D02*
X178000000Y-129410000D01*
X199685523Y-141011383D02*
X196298617Y-154595523D01*
X186101383Y-137624477D02*
X199685523Y-141011383D01*
X182714477Y-151208617D02*
X186101383Y-137624477D01*
X196298617Y-154595523D02*
X182714477Y-151208617D01*
X181255523Y-136421383D02*
X177868617Y-150005523D01*
X167671383Y-133034477D02*
X181255523Y-136421383D01*
X164284477Y-146618617D02*
X167671383Y-133034477D01*
X177868617Y-150005523D02*
X164284477Y-146618617D01*
X173000000Y-114500000D02*
X173000000Y-128500000D01*
X159000000Y-114500000D02*
X173000000Y-114500000D01*
X159000000Y-128500000D02*
X159000000Y-114500000D01*
X173000000Y-128500000D02*
X159000000Y-128500000D01*
X173000000Y-97500000D02*
X173000000Y-111500000D01*
X159000000Y-97500000D02*
X173000000Y-97500000D01*
X159000000Y-111500000D02*
X159000000Y-97500000D01*
X173000000Y-111500000D02*
X159000000Y-111500000D01*
X173000000Y-80500000D02*
X173000000Y-94500000D01*
X159000000Y-80500000D02*
X173000000Y-80500000D01*
X159000000Y-94500000D02*
X159000000Y-80500000D01*
X173000000Y-94500000D02*
X159000000Y-94500000D01*
X158750000Y-132500000D02*
X158750000Y-146500000D01*
X144750000Y-132500000D02*
X158750000Y-132500000D01*
X144750000Y-146500000D02*
X144750000Y-132500000D01*
X158750000Y-146500000D02*
X144750000Y-146500000D01*
X154000000Y-114000000D02*
X154000000Y-128000000D01*
X140000000Y-114000000D02*
X154000000Y-114000000D01*
X140000000Y-128000000D02*
X140000000Y-114000000D01*
X154000000Y-128000000D02*
X140000000Y-128000000D01*
X154000000Y-97000000D02*
X154000000Y-111000000D01*
X140000000Y-97000000D02*
X154000000Y-97000000D01*
X140000000Y-111000000D02*
X140000000Y-97000000D01*
X154000000Y-111000000D02*
X140000000Y-111000000D01*
X154000000Y-80000000D02*
X154000000Y-94000000D01*
X140000000Y-80000000D02*
X154000000Y-80000000D01*
X140000000Y-94000000D02*
X140000000Y-80000000D01*
X154000000Y-94000000D02*
X140000000Y-94000000D01*
X139750000Y-132500000D02*
X139750000Y-146500000D01*
X125750000Y-132500000D02*
X139750000Y-132500000D01*
X125750000Y-146500000D02*
X125750000Y-132500000D01*
X139750000Y-146500000D02*
X125750000Y-146500000D01*
X135000000Y-107000000D02*
X135000000Y-121000000D01*
X121000000Y-107000000D02*
X135000000Y-107000000D01*
X121000000Y-121000000D02*
X121000000Y-107000000D01*
X135000000Y-121000000D02*
X121000000Y-121000000D01*
X135000000Y-90000000D02*
X135000000Y-104000000D01*
X121000000Y-90000000D02*
X135000000Y-90000000D01*
X121000000Y-104000000D02*
X121000000Y-90000000D01*
X135000000Y-104000000D02*
X121000000Y-104000000D01*
X135000000Y-73000000D02*
X135000000Y-87000000D01*
X121000000Y-73000000D02*
X135000000Y-73000000D01*
X121000000Y-87000000D02*
X121000000Y-73000000D01*
X135000000Y-87000000D02*
X121000000Y-87000000D01*
X118370000Y-131000000D02*
X118370000Y-145000000D01*
X104370000Y-131000000D02*
X118370000Y-131000000D01*
X104370000Y-145000000D02*
X104370000Y-131000000D01*
X118370000Y-145000000D02*
X104370000Y-145000000D01*
X116000000Y-112000000D02*
X116000000Y-126000000D01*
X102000000Y-112000000D02*
X116000000Y-112000000D01*
X102000000Y-126000000D02*
X102000000Y-112000000D01*
X116000000Y-126000000D02*
X102000000Y-126000000D01*
X116000000Y-95000000D02*
X116000000Y-109000000D01*
X102000000Y-95000000D02*
X116000000Y-95000000D01*
X102000000Y-109000000D02*
X102000000Y-95000000D01*
X116000000Y-109000000D02*
X102000000Y-109000000D01*
X116000000Y-78000000D02*
X116000000Y-92000000D01*
X102000000Y-78000000D02*
X116000000Y-78000000D01*
X102000000Y-92000000D02*
X102000000Y-78000000D01*
X116000000Y-92000000D02*
X102000000Y-92000000D01*
X97000000Y-128000000D02*
X97000000Y-142000000D01*
X83000000Y-128000000D02*
X97000000Y-128000000D01*
X83000000Y-142000000D02*
X83000000Y-128000000D01*
X97000000Y-142000000D02*
X83000000Y-142000000D01*
X97000000Y-111000000D02*
X97000000Y-125000000D01*
X83000000Y-111000000D02*
X97000000Y-111000000D01*
X83000000Y-125000000D02*
X83000000Y-111000000D01*
X97000000Y-125000000D02*
X83000000Y-125000000D01*
X97000000Y-94000000D02*
X97000000Y-108000000D01*
X83000000Y-94000000D02*
X97000000Y-94000000D01*
X83000000Y-108000000D02*
X83000000Y-94000000D01*
X97000000Y-108000000D02*
X83000000Y-108000000D01*
X97000000Y-77000000D02*
X97000000Y-91000000D01*
X83000000Y-77000000D02*
X97000000Y-77000000D01*
X83000000Y-91000000D02*
X83000000Y-77000000D01*
X97000000Y-91000000D02*
X83000000Y-91000000D01*
X80000000Y-72000000D02*
G75*
G02X82000000Y-70000000I2000000J0D01*
G01*
X174000000Y-70000000D02*
G75*
G02X176000000Y-72000000I0J-2000000D01*
G01*
X178000000Y-112000000D02*
G75*
G02X176000000Y-110000000I0J2000000D01*
G01*
X198930121Y-156440030D02*
G75*
G02X196780001Y-157939999I-1940121J490030D01*
G01*
X81790110Y-145598956D02*
G75*
G02X80000000Y-143610000I209890J1988956D01*
G01*
X174000000Y-70000000D02*
X82000000Y-70000000D01*
X176000000Y-110000000D02*
X176000000Y-72000000D01*
X198000000Y-112000000D02*
X178000000Y-112000000D01*
X198930000Y-156440000D02*
X204529999Y-133979999D01*
X81790000Y-145600000D02*
X196780000Y-157940000D01*
X80000000Y-72000000D02*
X80000000Y-143610000D01*
M02*
