G04 #@! TF.GenerationSoftware,KiCad,Pcbnew,(5.1.2)-2*
G04 #@! TF.CreationDate,2020-04-16T23:42:25+09:00*
G04 #@! TF.ProjectId,17mm topplate,31376d6d-2074-46f7-9070-6c6174652e6b,rev?*
G04 #@! TF.SameCoordinates,Original*
G04 #@! TF.FileFunction,Copper,L1,Top*
G04 #@! TF.FilePolarity,Positive*
%FSLAX46Y46*%
G04 Gerber Fmt 4.6, Leading zero omitted, Abs format (unit mm)*
G04 Created by KiCad (PCBNEW (5.1.2)-2) date 2020-04-16 23:42:25*
%MOMM*%
%LPD*%
G04 APERTURE LIST*
%ADD10C,3.800000*%
%ADD11C,0.254000*%
G04 APERTURE END LIST*
D10*
X193500000Y-134000000D03*
X137500000Y-114500000D03*
X156500000Y-75500000D03*
X101000000Y-132000000D03*
X99500000Y-75500000D03*
D11*
G36*
X174259659Y-70688625D02*
G01*
X174509429Y-70764035D01*
X174739792Y-70886522D01*
X174941980Y-71051422D01*
X175108286Y-71252450D01*
X175232378Y-71481954D01*
X175309531Y-71731195D01*
X175340001Y-72021098D01*
X175340000Y-110032418D01*
X175342852Y-110061372D01*
X175342765Y-110073781D01*
X175343665Y-110082952D01*
X175384466Y-110471145D01*
X175396487Y-110529708D01*
X175407702Y-110588501D01*
X175410366Y-110597323D01*
X175525790Y-110970198D01*
X175548975Y-111025353D01*
X175571379Y-111080806D01*
X175575706Y-111088943D01*
X175761357Y-111432298D01*
X175794780Y-111481849D01*
X175827562Y-111531946D01*
X175833387Y-111539087D01*
X176082194Y-111839841D01*
X176124629Y-111881981D01*
X176166492Y-111924730D01*
X176173592Y-111930604D01*
X176476077Y-112177305D01*
X176525904Y-112210409D01*
X176575259Y-112244204D01*
X176583365Y-112248587D01*
X176928007Y-112431837D01*
X176983311Y-112454631D01*
X177038295Y-112478198D01*
X177047098Y-112480923D01*
X177420770Y-112593741D01*
X177479458Y-112605361D01*
X177537961Y-112617797D01*
X177547126Y-112618760D01*
X177935595Y-112656850D01*
X177935598Y-112656850D01*
X177967581Y-112660000D01*
X197967721Y-112660000D01*
X198259659Y-112688625D01*
X198509429Y-112764035D01*
X198739792Y-112886522D01*
X198941980Y-113051422D01*
X199108286Y-113252450D01*
X199232378Y-113481954D01*
X199309531Y-113731195D01*
X199340000Y-114021089D01*
X199340001Y-130532419D01*
X199342783Y-130560664D01*
X199342740Y-130566801D01*
X199343640Y-130575972D01*
X199364041Y-130770069D01*
X199376068Y-130828658D01*
X199387277Y-130887423D01*
X199389941Y-130896245D01*
X199447653Y-131082683D01*
X199470838Y-131137838D01*
X199493242Y-131193291D01*
X199497568Y-131201427D01*
X199590393Y-131373104D01*
X199623846Y-131422699D01*
X199656600Y-131472753D01*
X199662424Y-131479894D01*
X199786828Y-131630272D01*
X199829263Y-131672411D01*
X199871126Y-131715161D01*
X199878227Y-131721034D01*
X200029469Y-131844384D01*
X200079277Y-131877477D01*
X200128651Y-131911284D01*
X200136757Y-131915667D01*
X200309080Y-132007292D01*
X200364392Y-132030090D01*
X200419366Y-132053652D01*
X200428169Y-132056377D01*
X200615006Y-132112786D01*
X200673686Y-132124405D01*
X200732196Y-132136842D01*
X200741361Y-132137805D01*
X200935594Y-132156850D01*
X200935598Y-132156850D01*
X200967581Y-132160000D01*
X202542402Y-132160000D01*
X202849368Y-132190098D01*
X203098852Y-132265422D01*
X203328962Y-132387773D01*
X203530919Y-132552485D01*
X203697041Y-132753292D01*
X203820995Y-132982539D01*
X203898060Y-133231497D01*
X203925300Y-133490673D01*
X203899551Y-133773613D01*
X203887308Y-133829539D01*
X198297366Y-156249206D01*
X198198807Y-156523339D01*
X198064422Y-156747213D01*
X197889114Y-156940720D01*
X197679558Y-157096491D01*
X197443739Y-157208592D01*
X197190631Y-157272754D01*
X196907457Y-157287718D01*
X196839948Y-157282643D01*
X139942779Y-151176799D01*
X182052048Y-151176799D01*
X182058570Y-151306643D01*
X182090296Y-151432720D01*
X182146010Y-151550186D01*
X182223570Y-151654526D01*
X182319995Y-151741728D01*
X182431580Y-151808445D01*
X182554037Y-151852110D01*
X182586265Y-151856855D01*
X196107499Y-155228077D01*
X196138177Y-155239016D01*
X196170399Y-155243760D01*
X196170404Y-155243761D01*
X196266798Y-155257952D01*
X196266799Y-155257952D01*
X196273008Y-155257640D01*
X196396643Y-155251431D01*
X196522720Y-155219704D01*
X196640186Y-155163990D01*
X196744526Y-155086430D01*
X196831729Y-154990005D01*
X196898445Y-154878420D01*
X196942110Y-154755963D01*
X196946855Y-154723735D01*
X200318077Y-141202501D01*
X200329016Y-141171823D01*
X200347952Y-141043201D01*
X200341431Y-140913356D01*
X200309704Y-140787279D01*
X200253990Y-140669813D01*
X200176430Y-140565473D01*
X200080005Y-140478271D01*
X199968421Y-140411554D01*
X199876647Y-140378830D01*
X199876637Y-140378827D01*
X199845963Y-140367890D01*
X199813745Y-140363147D01*
X186292503Y-136991924D01*
X186261823Y-136980984D01*
X186229598Y-136976240D01*
X186229595Y-136976239D01*
X186133201Y-136962048D01*
X186003356Y-136968569D01*
X185877279Y-137000296D01*
X185759813Y-137056010D01*
X185655473Y-137133570D01*
X185568271Y-137229995D01*
X185501554Y-137341579D01*
X185468830Y-137433353D01*
X185468827Y-137433363D01*
X185457890Y-137464037D01*
X185453147Y-137496255D01*
X182081924Y-151017497D01*
X182070984Y-151048177D01*
X182066240Y-151080402D01*
X182066239Y-151080405D01*
X182052048Y-151176799D01*
X139942779Y-151176799D01*
X81902781Y-144948314D01*
X81604155Y-144886884D01*
X81363675Y-144785678D01*
X81147439Y-144639693D01*
X80963675Y-144454486D01*
X80819382Y-144237110D01*
X80720060Y-143995852D01*
X80666329Y-143723891D01*
X80660000Y-143593933D01*
X80660000Y-128000000D01*
X82336807Y-128000000D01*
X82340001Y-128032429D01*
X82340000Y-141967581D01*
X82336807Y-142000000D01*
X82349550Y-142129383D01*
X82387290Y-142253793D01*
X82448575Y-142368450D01*
X82531052Y-142468948D01*
X82631550Y-142551425D01*
X82746207Y-142612710D01*
X82870617Y-142650450D01*
X83000000Y-142663193D01*
X83032419Y-142660000D01*
X96967581Y-142660000D01*
X97000000Y-142663193D01*
X97032419Y-142660000D01*
X97129383Y-142650450D01*
X97253793Y-142612710D01*
X97368450Y-142551425D01*
X97468948Y-142468948D01*
X97551425Y-142368450D01*
X97612710Y-142253793D01*
X97650450Y-142129383D01*
X97663193Y-142000000D01*
X97660000Y-141967581D01*
X97660000Y-131750324D01*
X98465000Y-131750324D01*
X98465000Y-132249676D01*
X98562418Y-132739432D01*
X98753512Y-133200773D01*
X99030937Y-133615968D01*
X99384032Y-133969063D01*
X99799227Y-134246488D01*
X100260568Y-134437582D01*
X100750324Y-134535000D01*
X101249676Y-134535000D01*
X101739432Y-134437582D01*
X102200773Y-134246488D01*
X102615968Y-133969063D01*
X102969063Y-133615968D01*
X103246488Y-133200773D01*
X103437582Y-132739432D01*
X103535000Y-132249676D01*
X103535000Y-131750324D01*
X103437582Y-131260568D01*
X103329652Y-131000000D01*
X103706807Y-131000000D01*
X103710001Y-131032429D01*
X103710000Y-144967581D01*
X103706807Y-145000000D01*
X103719550Y-145129383D01*
X103757290Y-145253793D01*
X103818575Y-145368450D01*
X103861225Y-145420419D01*
X103901052Y-145468948D01*
X104001550Y-145551425D01*
X104116207Y-145612710D01*
X104240617Y-145650450D01*
X104370000Y-145663193D01*
X104402419Y-145660000D01*
X118337581Y-145660000D01*
X118370000Y-145663193D01*
X118402419Y-145660000D01*
X118499383Y-145650450D01*
X118623793Y-145612710D01*
X118738450Y-145551425D01*
X118838948Y-145468948D01*
X118921425Y-145368450D01*
X118982710Y-145253793D01*
X119020450Y-145129383D01*
X119033193Y-145000000D01*
X119030000Y-144967581D01*
X119030000Y-132500000D01*
X125086807Y-132500000D01*
X125090001Y-132532429D01*
X125090000Y-146467581D01*
X125086807Y-146500000D01*
X125099550Y-146629383D01*
X125137290Y-146753793D01*
X125198575Y-146868450D01*
X125273861Y-146960186D01*
X125281052Y-146968948D01*
X125381550Y-147051425D01*
X125496207Y-147112710D01*
X125620617Y-147150450D01*
X125750000Y-147163193D01*
X125782419Y-147160000D01*
X139717581Y-147160000D01*
X139750000Y-147163193D01*
X139782419Y-147160000D01*
X139879383Y-147150450D01*
X140003793Y-147112710D01*
X140118450Y-147051425D01*
X140218948Y-146968948D01*
X140301425Y-146868450D01*
X140362710Y-146753793D01*
X140400450Y-146629383D01*
X140413193Y-146500000D01*
X140410000Y-146467581D01*
X140410000Y-132532419D01*
X140413193Y-132500000D01*
X144086807Y-132500000D01*
X144090001Y-132532429D01*
X144090000Y-146467581D01*
X144086807Y-146500000D01*
X144099550Y-146629383D01*
X144137290Y-146753793D01*
X144198575Y-146868450D01*
X144273861Y-146960186D01*
X144281052Y-146968948D01*
X144381550Y-147051425D01*
X144496207Y-147112710D01*
X144620617Y-147150450D01*
X144750000Y-147163193D01*
X144782419Y-147160000D01*
X158717581Y-147160000D01*
X158750000Y-147163193D01*
X158782419Y-147160000D01*
X158879383Y-147150450D01*
X159003793Y-147112710D01*
X159118450Y-147051425D01*
X159218948Y-146968948D01*
X159301425Y-146868450D01*
X159362710Y-146753793D01*
X159400450Y-146629383D01*
X159404644Y-146586799D01*
X163622048Y-146586799D01*
X163628570Y-146716643D01*
X163660296Y-146842720D01*
X163716010Y-146960186D01*
X163793570Y-147064526D01*
X163889995Y-147151728D01*
X164001580Y-147218445D01*
X164124037Y-147262110D01*
X164156265Y-147266855D01*
X177677499Y-150638077D01*
X177708177Y-150649016D01*
X177740399Y-150653760D01*
X177740404Y-150653761D01*
X177836798Y-150667952D01*
X177836799Y-150667952D01*
X177843008Y-150667640D01*
X177966643Y-150661431D01*
X178092720Y-150629704D01*
X178210186Y-150573990D01*
X178314526Y-150496430D01*
X178401729Y-150400005D01*
X178468445Y-150288420D01*
X178512110Y-150165963D01*
X178516855Y-150133735D01*
X181888077Y-136612501D01*
X181899016Y-136581823D01*
X181905910Y-136535000D01*
X181917952Y-136453202D01*
X181911431Y-136323357D01*
X181879704Y-136197280D01*
X181823990Y-136079814D01*
X181823990Y-136079813D01*
X181746430Y-135975473D01*
X181650005Y-135888271D01*
X181538421Y-135821554D01*
X181446647Y-135788830D01*
X181446637Y-135788827D01*
X181415963Y-135777890D01*
X181383745Y-135773147D01*
X173270643Y-133750324D01*
X190965000Y-133750324D01*
X190965000Y-134249676D01*
X191062418Y-134739432D01*
X191253512Y-135200773D01*
X191530937Y-135615968D01*
X191884032Y-135969063D01*
X192299227Y-136246488D01*
X192760568Y-136437582D01*
X193250324Y-136535000D01*
X193749676Y-136535000D01*
X194239432Y-136437582D01*
X194700773Y-136246488D01*
X195115968Y-135969063D01*
X195469063Y-135615968D01*
X195746488Y-135200773D01*
X195937582Y-134739432D01*
X196035000Y-134249676D01*
X196035000Y-133750324D01*
X195937582Y-133260568D01*
X195746488Y-132799227D01*
X195469063Y-132384032D01*
X195115968Y-132030937D01*
X194700773Y-131753512D01*
X194239432Y-131562418D01*
X193749676Y-131465000D01*
X193250324Y-131465000D01*
X192760568Y-131562418D01*
X192299227Y-131753512D01*
X191884032Y-132030937D01*
X191530937Y-132384032D01*
X191253512Y-132799227D01*
X191062418Y-133260568D01*
X190965000Y-133750324D01*
X173270643Y-133750324D01*
X167862503Y-132401924D01*
X167831823Y-132390984D01*
X167799598Y-132386240D01*
X167799595Y-132386239D01*
X167703201Y-132372048D01*
X167573356Y-132378569D01*
X167447279Y-132410296D01*
X167329813Y-132466010D01*
X167225473Y-132543570D01*
X167138271Y-132639995D01*
X167071554Y-132751579D01*
X167038830Y-132843353D01*
X167038827Y-132843363D01*
X167027890Y-132874037D01*
X167023147Y-132906255D01*
X163651924Y-146427497D01*
X163640984Y-146458177D01*
X163636240Y-146490402D01*
X163636239Y-146490405D01*
X163622048Y-146586799D01*
X159404644Y-146586799D01*
X159413193Y-146500000D01*
X159410000Y-146467581D01*
X159410000Y-132532419D01*
X159413193Y-132500000D01*
X159400450Y-132370617D01*
X159362710Y-132246207D01*
X159301425Y-132131550D01*
X159218948Y-132031052D01*
X159118450Y-131948575D01*
X159003793Y-131887290D01*
X158879383Y-131849550D01*
X158782419Y-131840000D01*
X158750000Y-131836807D01*
X158717581Y-131840000D01*
X144782419Y-131840000D01*
X144750000Y-131836807D01*
X144717581Y-131840000D01*
X144620617Y-131849550D01*
X144496207Y-131887290D01*
X144381550Y-131948575D01*
X144281052Y-132031052D01*
X144198575Y-132131550D01*
X144137290Y-132246207D01*
X144099550Y-132370617D01*
X144086807Y-132500000D01*
X140413193Y-132500000D01*
X140400450Y-132370617D01*
X140362710Y-132246207D01*
X140301425Y-132131550D01*
X140218948Y-132031052D01*
X140118450Y-131948575D01*
X140003793Y-131887290D01*
X139879383Y-131849550D01*
X139782419Y-131840000D01*
X139750000Y-131836807D01*
X139717581Y-131840000D01*
X125782419Y-131840000D01*
X125750000Y-131836807D01*
X125717581Y-131840000D01*
X125620617Y-131849550D01*
X125496207Y-131887290D01*
X125381550Y-131948575D01*
X125281052Y-132031052D01*
X125198575Y-132131550D01*
X125137290Y-132246207D01*
X125099550Y-132370617D01*
X125086807Y-132500000D01*
X119030000Y-132500000D01*
X119030000Y-131032419D01*
X119033193Y-131000000D01*
X119020450Y-130870617D01*
X118982710Y-130746207D01*
X118921425Y-130631550D01*
X118838948Y-130531052D01*
X118738450Y-130448575D01*
X118623793Y-130387290D01*
X118499383Y-130349550D01*
X118402419Y-130340000D01*
X118370000Y-130336807D01*
X118337581Y-130340000D01*
X104402419Y-130340000D01*
X104370000Y-130336807D01*
X104337581Y-130340000D01*
X104240617Y-130349550D01*
X104116207Y-130387290D01*
X104001550Y-130448575D01*
X103901052Y-130531052D01*
X103818575Y-130631550D01*
X103757290Y-130746207D01*
X103719550Y-130870617D01*
X103706807Y-131000000D01*
X103329652Y-131000000D01*
X103246488Y-130799227D01*
X102969063Y-130384032D01*
X102615968Y-130030937D01*
X102200773Y-129753512D01*
X101739432Y-129562418D01*
X101249676Y-129465000D01*
X100750324Y-129465000D01*
X100260568Y-129562418D01*
X99799227Y-129753512D01*
X99384032Y-130030937D01*
X99030937Y-130384032D01*
X98753512Y-130799227D01*
X98562418Y-131260568D01*
X98465000Y-131750324D01*
X97660000Y-131750324D01*
X97660000Y-128032418D01*
X97663193Y-128000000D01*
X97650450Y-127870617D01*
X97612710Y-127746207D01*
X97551425Y-127631550D01*
X97468948Y-127531052D01*
X97368450Y-127448575D01*
X97253793Y-127387290D01*
X97129383Y-127349550D01*
X97032419Y-127340000D01*
X97000000Y-127336807D01*
X96967581Y-127340000D01*
X83032419Y-127340000D01*
X83000000Y-127336807D01*
X82967581Y-127340000D01*
X82870617Y-127349550D01*
X82746207Y-127387290D01*
X82631550Y-127448575D01*
X82531052Y-127531052D01*
X82448575Y-127631550D01*
X82387290Y-127746207D01*
X82349550Y-127870617D01*
X82336807Y-128000000D01*
X80660000Y-128000000D01*
X80660000Y-111000000D01*
X82336807Y-111000000D01*
X82340001Y-111032429D01*
X82340000Y-124967581D01*
X82336807Y-125000000D01*
X82349550Y-125129383D01*
X82387290Y-125253793D01*
X82448575Y-125368450D01*
X82464037Y-125387290D01*
X82531052Y-125468948D01*
X82631550Y-125551425D01*
X82746207Y-125612710D01*
X82870617Y-125650450D01*
X83000000Y-125663193D01*
X83032419Y-125660000D01*
X96967581Y-125660000D01*
X97000000Y-125663193D01*
X97032419Y-125660000D01*
X97129383Y-125650450D01*
X97253793Y-125612710D01*
X97368450Y-125551425D01*
X97468948Y-125468948D01*
X97551425Y-125368450D01*
X97612710Y-125253793D01*
X97650450Y-125129383D01*
X97663193Y-125000000D01*
X97660000Y-124967581D01*
X97660000Y-112000000D01*
X101336807Y-112000000D01*
X101340001Y-112032429D01*
X101340000Y-125967581D01*
X101336807Y-126000000D01*
X101349550Y-126129383D01*
X101387290Y-126253793D01*
X101448575Y-126368450D01*
X101531052Y-126468948D01*
X101631550Y-126551425D01*
X101746207Y-126612710D01*
X101870617Y-126650450D01*
X102000000Y-126663193D01*
X102032419Y-126660000D01*
X115967581Y-126660000D01*
X116000000Y-126663193D01*
X116032419Y-126660000D01*
X116129383Y-126650450D01*
X116253793Y-126612710D01*
X116368450Y-126551425D01*
X116468948Y-126468948D01*
X116551425Y-126368450D01*
X116612710Y-126253793D01*
X116650450Y-126129383D01*
X116663193Y-126000000D01*
X116660000Y-125967581D01*
X116660000Y-112032419D01*
X116663193Y-112000000D01*
X116650450Y-111870617D01*
X116612710Y-111746207D01*
X116551425Y-111631550D01*
X116468948Y-111531052D01*
X116368450Y-111448575D01*
X116253793Y-111387290D01*
X116129383Y-111349550D01*
X116032419Y-111340000D01*
X116000000Y-111336807D01*
X115967581Y-111340000D01*
X102032419Y-111340000D01*
X102000000Y-111336807D01*
X101967581Y-111340000D01*
X101870617Y-111349550D01*
X101746207Y-111387290D01*
X101631550Y-111448575D01*
X101531052Y-111531052D01*
X101448575Y-111631550D01*
X101387290Y-111746207D01*
X101349550Y-111870617D01*
X101336807Y-112000000D01*
X97660000Y-112000000D01*
X97660000Y-111032418D01*
X97663193Y-111000000D01*
X97650450Y-110870617D01*
X97612710Y-110746207D01*
X97551425Y-110631550D01*
X97468948Y-110531052D01*
X97368450Y-110448575D01*
X97253793Y-110387290D01*
X97129383Y-110349550D01*
X97032419Y-110340000D01*
X97000000Y-110336807D01*
X96967581Y-110340000D01*
X83032419Y-110340000D01*
X83000000Y-110336807D01*
X82967581Y-110340000D01*
X82870617Y-110349550D01*
X82746207Y-110387290D01*
X82631550Y-110448575D01*
X82531052Y-110531052D01*
X82448575Y-110631550D01*
X82387290Y-110746207D01*
X82349550Y-110870617D01*
X82336807Y-111000000D01*
X80660000Y-111000000D01*
X80660000Y-94000000D01*
X82336807Y-94000000D01*
X82340001Y-94032429D01*
X82340000Y-107967581D01*
X82336807Y-108000000D01*
X82349550Y-108129383D01*
X82387290Y-108253793D01*
X82448575Y-108368450D01*
X82464037Y-108387290D01*
X82531052Y-108468948D01*
X82631550Y-108551425D01*
X82746207Y-108612710D01*
X82870617Y-108650450D01*
X83000000Y-108663193D01*
X83032419Y-108660000D01*
X96967581Y-108660000D01*
X97000000Y-108663193D01*
X97032419Y-108660000D01*
X97129383Y-108650450D01*
X97253793Y-108612710D01*
X97368450Y-108551425D01*
X97468948Y-108468948D01*
X97551425Y-108368450D01*
X97612710Y-108253793D01*
X97650450Y-108129383D01*
X97663193Y-108000000D01*
X97660000Y-107967581D01*
X97660000Y-95000000D01*
X101336807Y-95000000D01*
X101340001Y-95032429D01*
X101340000Y-108967581D01*
X101336807Y-109000000D01*
X101349550Y-109129383D01*
X101387290Y-109253793D01*
X101448575Y-109368450D01*
X101459804Y-109382132D01*
X101531052Y-109468948D01*
X101631550Y-109551425D01*
X101746207Y-109612710D01*
X101870617Y-109650450D01*
X102000000Y-109663193D01*
X102032419Y-109660000D01*
X115967581Y-109660000D01*
X116000000Y-109663193D01*
X116032419Y-109660000D01*
X116129383Y-109650450D01*
X116253793Y-109612710D01*
X116368450Y-109551425D01*
X116468948Y-109468948D01*
X116551425Y-109368450D01*
X116612710Y-109253793D01*
X116650450Y-109129383D01*
X116663193Y-109000000D01*
X116660000Y-108967581D01*
X116660000Y-107000000D01*
X120336807Y-107000000D01*
X120340001Y-107032429D01*
X120340000Y-120967581D01*
X120336807Y-121000000D01*
X120349550Y-121129383D01*
X120387290Y-121253793D01*
X120448575Y-121368450D01*
X120531052Y-121468948D01*
X120631550Y-121551425D01*
X120746207Y-121612710D01*
X120870617Y-121650450D01*
X121000000Y-121663193D01*
X121032419Y-121660000D01*
X134967581Y-121660000D01*
X135000000Y-121663193D01*
X135032419Y-121660000D01*
X135129383Y-121650450D01*
X135253793Y-121612710D01*
X135368450Y-121551425D01*
X135468948Y-121468948D01*
X135551425Y-121368450D01*
X135612710Y-121253793D01*
X135650450Y-121129383D01*
X135663193Y-121000000D01*
X135660000Y-120967581D01*
X135660000Y-116245031D01*
X135884032Y-116469063D01*
X136299227Y-116746488D01*
X136760568Y-116937582D01*
X137250324Y-117035000D01*
X137749676Y-117035000D01*
X138239432Y-116937582D01*
X138700773Y-116746488D01*
X139115968Y-116469063D01*
X139340001Y-116245030D01*
X139340000Y-127967581D01*
X139336807Y-128000000D01*
X139349550Y-128129383D01*
X139387290Y-128253793D01*
X139448575Y-128368450D01*
X139531052Y-128468948D01*
X139631550Y-128551425D01*
X139746207Y-128612710D01*
X139870617Y-128650450D01*
X140000000Y-128663193D01*
X140032419Y-128660000D01*
X153967581Y-128660000D01*
X154000000Y-128663193D01*
X154032419Y-128660000D01*
X154129383Y-128650450D01*
X154253793Y-128612710D01*
X154368450Y-128551425D01*
X154468948Y-128468948D01*
X154551425Y-128368450D01*
X154612710Y-128253793D01*
X154650450Y-128129383D01*
X154663193Y-128000000D01*
X154660000Y-127967581D01*
X154660000Y-114500000D01*
X158336807Y-114500000D01*
X158340001Y-114532429D01*
X158340000Y-128467581D01*
X158336807Y-128500000D01*
X158349550Y-128629383D01*
X158387290Y-128753793D01*
X158448575Y-128868450D01*
X158508158Y-128941052D01*
X158531052Y-128968948D01*
X158631550Y-129051425D01*
X158746207Y-129112710D01*
X158870617Y-129150450D01*
X159000000Y-129163193D01*
X159032419Y-129160000D01*
X172967581Y-129160000D01*
X173000000Y-129163193D01*
X173032419Y-129160000D01*
X173070931Y-129156207D01*
X173129383Y-129150450D01*
X173253793Y-129112710D01*
X173368450Y-129051425D01*
X173468948Y-128968948D01*
X173551425Y-128868450D01*
X173612710Y-128753793D01*
X173650450Y-128629383D01*
X173660000Y-128532419D01*
X173660000Y-128532418D01*
X173663193Y-128500000D01*
X173660000Y-128467581D01*
X173660000Y-115410000D01*
X177336807Y-115410000D01*
X177340001Y-115442429D01*
X177340000Y-129377581D01*
X177336807Y-129410000D01*
X177349550Y-129539383D01*
X177387290Y-129663793D01*
X177448575Y-129778450D01*
X177509034Y-129852119D01*
X177531052Y-129878948D01*
X177631550Y-129961425D01*
X177746207Y-130022710D01*
X177870617Y-130060450D01*
X178000000Y-130073193D01*
X178032419Y-130070000D01*
X191967581Y-130070000D01*
X192000000Y-130073193D01*
X192032419Y-130070000D01*
X192040065Y-130069247D01*
X192129383Y-130060450D01*
X192253793Y-130022710D01*
X192368450Y-129961425D01*
X192468948Y-129878948D01*
X192551425Y-129778450D01*
X192612710Y-129663793D01*
X192650450Y-129539383D01*
X192660000Y-129442419D01*
X192660000Y-129442418D01*
X192663193Y-129410000D01*
X192660000Y-129377581D01*
X192660000Y-115442419D01*
X192663193Y-115410000D01*
X192650450Y-115280617D01*
X192612710Y-115156207D01*
X192551425Y-115041550D01*
X192468948Y-114941052D01*
X192368450Y-114858575D01*
X192253793Y-114797290D01*
X192129383Y-114759550D01*
X192032419Y-114750000D01*
X192000000Y-114746807D01*
X191967581Y-114750000D01*
X178032419Y-114750000D01*
X178000000Y-114746807D01*
X177967581Y-114750000D01*
X177870617Y-114759550D01*
X177746207Y-114797290D01*
X177631550Y-114858575D01*
X177531052Y-114941052D01*
X177448575Y-115041550D01*
X177387290Y-115156207D01*
X177349550Y-115280617D01*
X177336807Y-115410000D01*
X173660000Y-115410000D01*
X173660000Y-114532419D01*
X173663193Y-114500000D01*
X173650450Y-114370617D01*
X173612710Y-114246207D01*
X173551425Y-114131550D01*
X173468948Y-114031052D01*
X173368450Y-113948575D01*
X173253793Y-113887290D01*
X173129383Y-113849550D01*
X173032419Y-113840000D01*
X173000000Y-113836807D01*
X172967581Y-113840000D01*
X159032419Y-113840000D01*
X159000000Y-113836807D01*
X158967581Y-113840000D01*
X158870617Y-113849550D01*
X158746207Y-113887290D01*
X158631550Y-113948575D01*
X158531052Y-114031052D01*
X158448575Y-114131550D01*
X158387290Y-114246207D01*
X158349550Y-114370617D01*
X158336807Y-114500000D01*
X154660000Y-114500000D01*
X154660000Y-114032419D01*
X154663193Y-114000000D01*
X154650450Y-113870617D01*
X154612710Y-113746207D01*
X154551425Y-113631550D01*
X154468948Y-113531052D01*
X154368450Y-113448575D01*
X154253793Y-113387290D01*
X154129383Y-113349550D01*
X154032419Y-113340000D01*
X154000000Y-113336807D01*
X153967581Y-113340000D01*
X140032419Y-113340000D01*
X140000000Y-113336807D01*
X139967581Y-113340000D01*
X139870617Y-113349550D01*
X139778862Y-113377384D01*
X139746488Y-113299227D01*
X139469063Y-112884032D01*
X139115968Y-112530937D01*
X138700773Y-112253512D01*
X138239432Y-112062418D01*
X137749676Y-111965000D01*
X137250324Y-111965000D01*
X136760568Y-112062418D01*
X136299227Y-112253512D01*
X135884032Y-112530937D01*
X135660000Y-112754969D01*
X135660000Y-107032419D01*
X135663193Y-107000000D01*
X135650450Y-106870617D01*
X135612710Y-106746207D01*
X135551425Y-106631550D01*
X135468948Y-106531052D01*
X135368450Y-106448575D01*
X135253793Y-106387290D01*
X135129383Y-106349550D01*
X135032419Y-106340000D01*
X135000000Y-106336807D01*
X134967581Y-106340000D01*
X121032419Y-106340000D01*
X121000000Y-106336807D01*
X120967581Y-106340000D01*
X120870617Y-106349550D01*
X120746207Y-106387290D01*
X120631550Y-106448575D01*
X120531052Y-106531052D01*
X120448575Y-106631550D01*
X120387290Y-106746207D01*
X120349550Y-106870617D01*
X120336807Y-107000000D01*
X116660000Y-107000000D01*
X116660000Y-95032419D01*
X116663193Y-95000000D01*
X116650450Y-94870617D01*
X116612710Y-94746207D01*
X116551425Y-94631550D01*
X116468948Y-94531052D01*
X116368450Y-94448575D01*
X116253793Y-94387290D01*
X116129383Y-94349550D01*
X116032419Y-94340000D01*
X116000000Y-94336807D01*
X115967581Y-94340000D01*
X102032419Y-94340000D01*
X102000000Y-94336807D01*
X101967581Y-94340000D01*
X101870617Y-94349550D01*
X101746207Y-94387290D01*
X101631550Y-94448575D01*
X101531052Y-94531052D01*
X101448575Y-94631550D01*
X101387290Y-94746207D01*
X101349550Y-94870617D01*
X101336807Y-95000000D01*
X97660000Y-95000000D01*
X97660000Y-94032418D01*
X97663193Y-94000000D01*
X97650450Y-93870617D01*
X97612710Y-93746207D01*
X97551425Y-93631550D01*
X97468948Y-93531052D01*
X97368450Y-93448575D01*
X97253793Y-93387290D01*
X97129383Y-93349550D01*
X97032419Y-93340000D01*
X97000000Y-93336807D01*
X96967581Y-93340000D01*
X83032419Y-93340000D01*
X83000000Y-93336807D01*
X82967581Y-93340000D01*
X82870617Y-93349550D01*
X82746207Y-93387290D01*
X82631550Y-93448575D01*
X82531052Y-93531052D01*
X82448575Y-93631550D01*
X82387290Y-93746207D01*
X82349550Y-93870617D01*
X82336807Y-94000000D01*
X80660000Y-94000000D01*
X80660000Y-77000000D01*
X82336807Y-77000000D01*
X82340001Y-77032429D01*
X82340000Y-90967581D01*
X82336807Y-91000000D01*
X82349550Y-91129383D01*
X82387290Y-91253793D01*
X82448575Y-91368450D01*
X82464037Y-91387290D01*
X82531052Y-91468948D01*
X82631550Y-91551425D01*
X82746207Y-91612710D01*
X82870617Y-91650450D01*
X83000000Y-91663193D01*
X83032419Y-91660000D01*
X96967581Y-91660000D01*
X97000000Y-91663193D01*
X97032419Y-91660000D01*
X97129383Y-91650450D01*
X97253793Y-91612710D01*
X97368450Y-91551425D01*
X97468948Y-91468948D01*
X97551425Y-91368450D01*
X97612710Y-91253793D01*
X97650450Y-91129383D01*
X97663193Y-91000000D01*
X97660000Y-90967581D01*
X97660000Y-77276349D01*
X97903256Y-77276349D01*
X98107362Y-77632867D01*
X98550223Y-77863575D01*
X99029583Y-78003452D01*
X99527021Y-78047123D01*
X99958494Y-78000000D01*
X101336807Y-78000000D01*
X101340001Y-78032429D01*
X101340000Y-91967581D01*
X101336807Y-92000000D01*
X101349550Y-92129383D01*
X101387290Y-92253793D01*
X101448575Y-92368450D01*
X101531052Y-92468948D01*
X101631550Y-92551425D01*
X101746207Y-92612710D01*
X101870617Y-92650450D01*
X102000000Y-92663193D01*
X102032419Y-92660000D01*
X115967581Y-92660000D01*
X116000000Y-92663193D01*
X116032419Y-92660000D01*
X116129383Y-92650450D01*
X116253793Y-92612710D01*
X116368450Y-92551425D01*
X116468948Y-92468948D01*
X116551425Y-92368450D01*
X116612710Y-92253793D01*
X116650450Y-92129383D01*
X116663193Y-92000000D01*
X116660000Y-91967581D01*
X116660000Y-90000000D01*
X120336807Y-90000000D01*
X120340001Y-90032429D01*
X120340000Y-103967581D01*
X120336807Y-104000000D01*
X120349550Y-104129383D01*
X120387290Y-104253793D01*
X120448575Y-104368450D01*
X120531052Y-104468948D01*
X120631550Y-104551425D01*
X120746207Y-104612710D01*
X120870617Y-104650450D01*
X121000000Y-104663193D01*
X121032419Y-104660000D01*
X134967581Y-104660000D01*
X135000000Y-104663193D01*
X135032419Y-104660000D01*
X135129383Y-104650450D01*
X135253793Y-104612710D01*
X135368450Y-104551425D01*
X135468948Y-104468948D01*
X135551425Y-104368450D01*
X135612710Y-104253793D01*
X135650450Y-104129383D01*
X135663193Y-104000000D01*
X135660000Y-103967581D01*
X135660000Y-97000000D01*
X139336807Y-97000000D01*
X139340001Y-97032429D01*
X139340000Y-110967581D01*
X139336807Y-111000000D01*
X139349550Y-111129383D01*
X139387290Y-111253793D01*
X139448575Y-111368450D01*
X139520689Y-111456321D01*
X139531052Y-111468948D01*
X139631550Y-111551425D01*
X139746207Y-111612710D01*
X139870617Y-111650450D01*
X140000000Y-111663193D01*
X140032419Y-111660000D01*
X153967581Y-111660000D01*
X154000000Y-111663193D01*
X154032419Y-111660000D01*
X154129383Y-111650450D01*
X154253793Y-111612710D01*
X154368450Y-111551425D01*
X154468948Y-111468948D01*
X154551425Y-111368450D01*
X154612710Y-111253793D01*
X154650450Y-111129383D01*
X154663193Y-111000000D01*
X154660000Y-110967581D01*
X154660000Y-97500000D01*
X158336807Y-97500000D01*
X158340001Y-97532429D01*
X158340000Y-111467581D01*
X158336807Y-111500000D01*
X158349550Y-111629383D01*
X158387290Y-111753793D01*
X158448575Y-111868450D01*
X158527812Y-111965000D01*
X158531052Y-111968948D01*
X158631550Y-112051425D01*
X158746207Y-112112710D01*
X158870617Y-112150450D01*
X159000000Y-112163193D01*
X159032419Y-112160000D01*
X172967581Y-112160000D01*
X173000000Y-112163193D01*
X173032419Y-112160000D01*
X173129383Y-112150450D01*
X173253793Y-112112710D01*
X173368450Y-112051425D01*
X173468948Y-111968948D01*
X173551425Y-111868450D01*
X173612710Y-111753793D01*
X173650450Y-111629383D01*
X173663193Y-111500000D01*
X173660000Y-111467581D01*
X173660000Y-97532419D01*
X173663193Y-97500000D01*
X173650450Y-97370617D01*
X173612710Y-97246207D01*
X173551425Y-97131550D01*
X173468948Y-97031052D01*
X173368450Y-96948575D01*
X173253793Y-96887290D01*
X173129383Y-96849550D01*
X173032419Y-96840000D01*
X173000000Y-96836807D01*
X172967581Y-96840000D01*
X159032419Y-96840000D01*
X159000000Y-96836807D01*
X158967581Y-96840000D01*
X158870617Y-96849550D01*
X158746207Y-96887290D01*
X158631550Y-96948575D01*
X158531052Y-97031052D01*
X158448575Y-97131550D01*
X158387290Y-97246207D01*
X158349550Y-97370617D01*
X158336807Y-97500000D01*
X154660000Y-97500000D01*
X154660000Y-97032419D01*
X154663193Y-97000000D01*
X154650450Y-96870617D01*
X154612710Y-96746207D01*
X154551425Y-96631550D01*
X154468948Y-96531052D01*
X154368450Y-96448575D01*
X154253793Y-96387290D01*
X154129383Y-96349550D01*
X154032419Y-96340000D01*
X154000000Y-96336807D01*
X153967581Y-96340000D01*
X140032419Y-96340000D01*
X140000000Y-96336807D01*
X139967581Y-96340000D01*
X139870617Y-96349550D01*
X139746207Y-96387290D01*
X139631550Y-96448575D01*
X139531052Y-96531052D01*
X139448575Y-96631550D01*
X139387290Y-96746207D01*
X139349550Y-96870617D01*
X139336807Y-97000000D01*
X135660000Y-97000000D01*
X135660000Y-90032419D01*
X135663193Y-90000000D01*
X135650450Y-89870617D01*
X135612710Y-89746207D01*
X135551425Y-89631550D01*
X135468948Y-89531052D01*
X135368450Y-89448575D01*
X135253793Y-89387290D01*
X135129383Y-89349550D01*
X135032419Y-89340000D01*
X135000000Y-89336807D01*
X134967581Y-89340000D01*
X121032419Y-89340000D01*
X121000000Y-89336807D01*
X120967581Y-89340000D01*
X120870617Y-89349550D01*
X120746207Y-89387290D01*
X120631550Y-89448575D01*
X120531052Y-89531052D01*
X120448575Y-89631550D01*
X120387290Y-89746207D01*
X120349550Y-89870617D01*
X120336807Y-90000000D01*
X116660000Y-90000000D01*
X116660000Y-78032419D01*
X116663193Y-78000000D01*
X116650450Y-77870617D01*
X116612710Y-77746207D01*
X116551425Y-77631550D01*
X116468948Y-77531052D01*
X116368450Y-77448575D01*
X116253793Y-77387290D01*
X116129383Y-77349550D01*
X116032419Y-77340000D01*
X116000000Y-77336807D01*
X115967581Y-77340000D01*
X102032419Y-77340000D01*
X102000000Y-77336807D01*
X101967581Y-77340000D01*
X101870617Y-77349550D01*
X101746207Y-77387290D01*
X101631550Y-77448575D01*
X101531052Y-77531052D01*
X101448575Y-77631550D01*
X101387290Y-77746207D01*
X101349550Y-77870617D01*
X101336807Y-78000000D01*
X99958494Y-78000000D01*
X100023422Y-77992909D01*
X100499707Y-77842894D01*
X100892638Y-77632867D01*
X101096744Y-77276349D01*
X99500000Y-75679605D01*
X97903256Y-77276349D01*
X97660000Y-77276349D01*
X97660000Y-77060304D01*
X97723651Y-77096744D01*
X99320395Y-75500000D01*
X99679605Y-75500000D01*
X101276349Y-77096744D01*
X101632867Y-76892638D01*
X101863575Y-76449777D01*
X102003452Y-75970417D01*
X102047123Y-75472979D01*
X101992909Y-74976578D01*
X101842894Y-74500293D01*
X101632867Y-74107362D01*
X101276349Y-73903256D01*
X99679605Y-75500000D01*
X99320395Y-75500000D01*
X97723651Y-73903256D01*
X97367133Y-74107362D01*
X97136425Y-74550223D01*
X96996548Y-75029583D01*
X96952877Y-75527021D01*
X97007091Y-76023422D01*
X97109185Y-76347561D01*
X97032419Y-76340000D01*
X97000000Y-76336807D01*
X96967581Y-76340000D01*
X83032419Y-76340000D01*
X83000000Y-76336807D01*
X82967581Y-76340000D01*
X82870617Y-76349550D01*
X82746207Y-76387290D01*
X82631550Y-76448575D01*
X82531052Y-76531052D01*
X82448575Y-76631550D01*
X82387290Y-76746207D01*
X82349550Y-76870617D01*
X82336807Y-77000000D01*
X80660000Y-77000000D01*
X80660000Y-73723651D01*
X97903256Y-73723651D01*
X99500000Y-75320395D01*
X101096744Y-73723651D01*
X100892638Y-73367133D01*
X100449777Y-73136425D01*
X99982248Y-73000000D01*
X120336807Y-73000000D01*
X120340001Y-73032429D01*
X120340000Y-86967581D01*
X120336807Y-87000000D01*
X120349550Y-87129383D01*
X120387290Y-87253793D01*
X120448575Y-87368450D01*
X120531052Y-87468948D01*
X120631550Y-87551425D01*
X120746207Y-87612710D01*
X120870617Y-87650450D01*
X121000000Y-87663193D01*
X121032419Y-87660000D01*
X134967581Y-87660000D01*
X135000000Y-87663193D01*
X135032419Y-87660000D01*
X135129383Y-87650450D01*
X135253793Y-87612710D01*
X135368450Y-87551425D01*
X135468948Y-87468948D01*
X135551425Y-87368450D01*
X135612710Y-87253793D01*
X135650450Y-87129383D01*
X135663193Y-87000000D01*
X135660000Y-86967581D01*
X135660000Y-80000000D01*
X139336807Y-80000000D01*
X139340001Y-80032429D01*
X139340000Y-93967581D01*
X139336807Y-94000000D01*
X139349550Y-94129383D01*
X139387290Y-94253793D01*
X139448575Y-94368450D01*
X139464037Y-94387290D01*
X139531052Y-94468948D01*
X139631550Y-94551425D01*
X139746207Y-94612710D01*
X139870617Y-94650450D01*
X140000000Y-94663193D01*
X140032419Y-94660000D01*
X153967581Y-94660000D01*
X154000000Y-94663193D01*
X154032419Y-94660000D01*
X154129383Y-94650450D01*
X154253793Y-94612710D01*
X154368450Y-94551425D01*
X154468948Y-94468948D01*
X154551425Y-94368450D01*
X154612710Y-94253793D01*
X154650450Y-94129383D01*
X154663193Y-94000000D01*
X154660000Y-93967581D01*
X154660000Y-80500000D01*
X158336807Y-80500000D01*
X158340001Y-80532429D01*
X158340000Y-94467581D01*
X158336807Y-94500000D01*
X158349550Y-94629383D01*
X158387290Y-94753793D01*
X158448575Y-94868450D01*
X158529930Y-94967581D01*
X158531052Y-94968948D01*
X158631550Y-95051425D01*
X158746207Y-95112710D01*
X158870617Y-95150450D01*
X159000000Y-95163193D01*
X159032419Y-95160000D01*
X172967581Y-95160000D01*
X173000000Y-95163193D01*
X173032419Y-95160000D01*
X173129383Y-95150450D01*
X173253793Y-95112710D01*
X173368450Y-95051425D01*
X173468948Y-94968948D01*
X173551425Y-94868450D01*
X173612710Y-94753793D01*
X173650450Y-94629383D01*
X173663193Y-94500000D01*
X173660000Y-94467581D01*
X173660000Y-80532419D01*
X173663193Y-80500000D01*
X173650450Y-80370617D01*
X173612710Y-80246207D01*
X173551425Y-80131550D01*
X173468948Y-80031052D01*
X173368450Y-79948575D01*
X173253793Y-79887290D01*
X173129383Y-79849550D01*
X173032419Y-79840000D01*
X173000000Y-79836807D01*
X172967581Y-79840000D01*
X159032419Y-79840000D01*
X159000000Y-79836807D01*
X158967581Y-79840000D01*
X158870617Y-79849550D01*
X158746207Y-79887290D01*
X158631550Y-79948575D01*
X158531052Y-80031052D01*
X158448575Y-80131550D01*
X158387290Y-80246207D01*
X158349550Y-80370617D01*
X158336807Y-80500000D01*
X154660000Y-80500000D01*
X154660000Y-80032419D01*
X154663193Y-80000000D01*
X154650450Y-79870617D01*
X154612710Y-79746207D01*
X154551425Y-79631550D01*
X154468948Y-79531052D01*
X154368450Y-79448575D01*
X154253793Y-79387290D01*
X154129383Y-79349550D01*
X154032419Y-79340000D01*
X154000000Y-79336807D01*
X153967581Y-79340000D01*
X140032419Y-79340000D01*
X140000000Y-79336807D01*
X139967581Y-79340000D01*
X139870617Y-79349550D01*
X139746207Y-79387290D01*
X139631550Y-79448575D01*
X139531052Y-79531052D01*
X139448575Y-79631550D01*
X139387290Y-79746207D01*
X139349550Y-79870617D01*
X139336807Y-80000000D01*
X135660000Y-80000000D01*
X135660000Y-75250324D01*
X153965000Y-75250324D01*
X153965000Y-75749676D01*
X154062418Y-76239432D01*
X154253512Y-76700773D01*
X154530937Y-77115968D01*
X154884032Y-77469063D01*
X155299227Y-77746488D01*
X155760568Y-77937582D01*
X156250324Y-78035000D01*
X156749676Y-78035000D01*
X157239432Y-77937582D01*
X157700773Y-77746488D01*
X158115968Y-77469063D01*
X158469063Y-77115968D01*
X158746488Y-76700773D01*
X158937582Y-76239432D01*
X159035000Y-75749676D01*
X159035000Y-75250324D01*
X158937582Y-74760568D01*
X158746488Y-74299227D01*
X158469063Y-73884032D01*
X158115968Y-73530937D01*
X157700773Y-73253512D01*
X157239432Y-73062418D01*
X156749676Y-72965000D01*
X156250324Y-72965000D01*
X155760568Y-73062418D01*
X155299227Y-73253512D01*
X154884032Y-73530937D01*
X154530937Y-73884032D01*
X154253512Y-74299227D01*
X154062418Y-74760568D01*
X153965000Y-75250324D01*
X135660000Y-75250324D01*
X135660000Y-73032419D01*
X135663193Y-73000000D01*
X135650450Y-72870617D01*
X135612710Y-72746207D01*
X135551425Y-72631550D01*
X135468948Y-72531052D01*
X135368450Y-72448575D01*
X135253793Y-72387290D01*
X135129383Y-72349550D01*
X135032419Y-72340000D01*
X135000000Y-72336807D01*
X134967581Y-72340000D01*
X121032419Y-72340000D01*
X121000000Y-72336807D01*
X120967581Y-72340000D01*
X120870617Y-72349550D01*
X120746207Y-72387290D01*
X120631550Y-72448575D01*
X120531052Y-72531052D01*
X120448575Y-72631550D01*
X120387290Y-72746207D01*
X120349550Y-72870617D01*
X120336807Y-73000000D01*
X99982248Y-73000000D01*
X99970417Y-72996548D01*
X99472979Y-72952877D01*
X98976578Y-73007091D01*
X98500293Y-73157106D01*
X98107362Y-73367133D01*
X97903256Y-73723651D01*
X80660000Y-73723651D01*
X80660000Y-72032279D01*
X80688625Y-71740341D01*
X80764035Y-71490571D01*
X80886522Y-71260208D01*
X81051422Y-71058020D01*
X81252450Y-70891714D01*
X81481954Y-70767622D01*
X81731195Y-70690469D01*
X82021088Y-70660000D01*
X173967721Y-70660000D01*
X174259659Y-70688625D01*
X174259659Y-70688625D01*
G37*
X174259659Y-70688625D02*
X174509429Y-70764035D01*
X174739792Y-70886522D01*
X174941980Y-71051422D01*
X175108286Y-71252450D01*
X175232378Y-71481954D01*
X175309531Y-71731195D01*
X175340001Y-72021098D01*
X175340000Y-110032418D01*
X175342852Y-110061372D01*
X175342765Y-110073781D01*
X175343665Y-110082952D01*
X175384466Y-110471145D01*
X175396487Y-110529708D01*
X175407702Y-110588501D01*
X175410366Y-110597323D01*
X175525790Y-110970198D01*
X175548975Y-111025353D01*
X175571379Y-111080806D01*
X175575706Y-111088943D01*
X175761357Y-111432298D01*
X175794780Y-111481849D01*
X175827562Y-111531946D01*
X175833387Y-111539087D01*
X176082194Y-111839841D01*
X176124629Y-111881981D01*
X176166492Y-111924730D01*
X176173592Y-111930604D01*
X176476077Y-112177305D01*
X176525904Y-112210409D01*
X176575259Y-112244204D01*
X176583365Y-112248587D01*
X176928007Y-112431837D01*
X176983311Y-112454631D01*
X177038295Y-112478198D01*
X177047098Y-112480923D01*
X177420770Y-112593741D01*
X177479458Y-112605361D01*
X177537961Y-112617797D01*
X177547126Y-112618760D01*
X177935595Y-112656850D01*
X177935598Y-112656850D01*
X177967581Y-112660000D01*
X197967721Y-112660000D01*
X198259659Y-112688625D01*
X198509429Y-112764035D01*
X198739792Y-112886522D01*
X198941980Y-113051422D01*
X199108286Y-113252450D01*
X199232378Y-113481954D01*
X199309531Y-113731195D01*
X199340000Y-114021089D01*
X199340001Y-130532419D01*
X199342783Y-130560664D01*
X199342740Y-130566801D01*
X199343640Y-130575972D01*
X199364041Y-130770069D01*
X199376068Y-130828658D01*
X199387277Y-130887423D01*
X199389941Y-130896245D01*
X199447653Y-131082683D01*
X199470838Y-131137838D01*
X199493242Y-131193291D01*
X199497568Y-131201427D01*
X199590393Y-131373104D01*
X199623846Y-131422699D01*
X199656600Y-131472753D01*
X199662424Y-131479894D01*
X199786828Y-131630272D01*
X199829263Y-131672411D01*
X199871126Y-131715161D01*
X199878227Y-131721034D01*
X200029469Y-131844384D01*
X200079277Y-131877477D01*
X200128651Y-131911284D01*
X200136757Y-131915667D01*
X200309080Y-132007292D01*
X200364392Y-132030090D01*
X200419366Y-132053652D01*
X200428169Y-132056377D01*
X200615006Y-132112786D01*
X200673686Y-132124405D01*
X200732196Y-132136842D01*
X200741361Y-132137805D01*
X200935594Y-132156850D01*
X200935598Y-132156850D01*
X200967581Y-132160000D01*
X202542402Y-132160000D01*
X202849368Y-132190098D01*
X203098852Y-132265422D01*
X203328962Y-132387773D01*
X203530919Y-132552485D01*
X203697041Y-132753292D01*
X203820995Y-132982539D01*
X203898060Y-133231497D01*
X203925300Y-133490673D01*
X203899551Y-133773613D01*
X203887308Y-133829539D01*
X198297366Y-156249206D01*
X198198807Y-156523339D01*
X198064422Y-156747213D01*
X197889114Y-156940720D01*
X197679558Y-157096491D01*
X197443739Y-157208592D01*
X197190631Y-157272754D01*
X196907457Y-157287718D01*
X196839948Y-157282643D01*
X139942779Y-151176799D01*
X182052048Y-151176799D01*
X182058570Y-151306643D01*
X182090296Y-151432720D01*
X182146010Y-151550186D01*
X182223570Y-151654526D01*
X182319995Y-151741728D01*
X182431580Y-151808445D01*
X182554037Y-151852110D01*
X182586265Y-151856855D01*
X196107499Y-155228077D01*
X196138177Y-155239016D01*
X196170399Y-155243760D01*
X196170404Y-155243761D01*
X196266798Y-155257952D01*
X196266799Y-155257952D01*
X196273008Y-155257640D01*
X196396643Y-155251431D01*
X196522720Y-155219704D01*
X196640186Y-155163990D01*
X196744526Y-155086430D01*
X196831729Y-154990005D01*
X196898445Y-154878420D01*
X196942110Y-154755963D01*
X196946855Y-154723735D01*
X200318077Y-141202501D01*
X200329016Y-141171823D01*
X200347952Y-141043201D01*
X200341431Y-140913356D01*
X200309704Y-140787279D01*
X200253990Y-140669813D01*
X200176430Y-140565473D01*
X200080005Y-140478271D01*
X199968421Y-140411554D01*
X199876647Y-140378830D01*
X199876637Y-140378827D01*
X199845963Y-140367890D01*
X199813745Y-140363147D01*
X186292503Y-136991924D01*
X186261823Y-136980984D01*
X186229598Y-136976240D01*
X186229595Y-136976239D01*
X186133201Y-136962048D01*
X186003356Y-136968569D01*
X185877279Y-137000296D01*
X185759813Y-137056010D01*
X185655473Y-137133570D01*
X185568271Y-137229995D01*
X185501554Y-137341579D01*
X185468830Y-137433353D01*
X185468827Y-137433363D01*
X185457890Y-137464037D01*
X185453147Y-137496255D01*
X182081924Y-151017497D01*
X182070984Y-151048177D01*
X182066240Y-151080402D01*
X182066239Y-151080405D01*
X182052048Y-151176799D01*
X139942779Y-151176799D01*
X81902781Y-144948314D01*
X81604155Y-144886884D01*
X81363675Y-144785678D01*
X81147439Y-144639693D01*
X80963675Y-144454486D01*
X80819382Y-144237110D01*
X80720060Y-143995852D01*
X80666329Y-143723891D01*
X80660000Y-143593933D01*
X80660000Y-128000000D01*
X82336807Y-128000000D01*
X82340001Y-128032429D01*
X82340000Y-141967581D01*
X82336807Y-142000000D01*
X82349550Y-142129383D01*
X82387290Y-142253793D01*
X82448575Y-142368450D01*
X82531052Y-142468948D01*
X82631550Y-142551425D01*
X82746207Y-142612710D01*
X82870617Y-142650450D01*
X83000000Y-142663193D01*
X83032419Y-142660000D01*
X96967581Y-142660000D01*
X97000000Y-142663193D01*
X97032419Y-142660000D01*
X97129383Y-142650450D01*
X97253793Y-142612710D01*
X97368450Y-142551425D01*
X97468948Y-142468948D01*
X97551425Y-142368450D01*
X97612710Y-142253793D01*
X97650450Y-142129383D01*
X97663193Y-142000000D01*
X97660000Y-141967581D01*
X97660000Y-131750324D01*
X98465000Y-131750324D01*
X98465000Y-132249676D01*
X98562418Y-132739432D01*
X98753512Y-133200773D01*
X99030937Y-133615968D01*
X99384032Y-133969063D01*
X99799227Y-134246488D01*
X100260568Y-134437582D01*
X100750324Y-134535000D01*
X101249676Y-134535000D01*
X101739432Y-134437582D01*
X102200773Y-134246488D01*
X102615968Y-133969063D01*
X102969063Y-133615968D01*
X103246488Y-133200773D01*
X103437582Y-132739432D01*
X103535000Y-132249676D01*
X103535000Y-131750324D01*
X103437582Y-131260568D01*
X103329652Y-131000000D01*
X103706807Y-131000000D01*
X103710001Y-131032429D01*
X103710000Y-144967581D01*
X103706807Y-145000000D01*
X103719550Y-145129383D01*
X103757290Y-145253793D01*
X103818575Y-145368450D01*
X103861225Y-145420419D01*
X103901052Y-145468948D01*
X104001550Y-145551425D01*
X104116207Y-145612710D01*
X104240617Y-145650450D01*
X104370000Y-145663193D01*
X104402419Y-145660000D01*
X118337581Y-145660000D01*
X118370000Y-145663193D01*
X118402419Y-145660000D01*
X118499383Y-145650450D01*
X118623793Y-145612710D01*
X118738450Y-145551425D01*
X118838948Y-145468948D01*
X118921425Y-145368450D01*
X118982710Y-145253793D01*
X119020450Y-145129383D01*
X119033193Y-145000000D01*
X119030000Y-144967581D01*
X119030000Y-132500000D01*
X125086807Y-132500000D01*
X125090001Y-132532429D01*
X125090000Y-146467581D01*
X125086807Y-146500000D01*
X125099550Y-146629383D01*
X125137290Y-146753793D01*
X125198575Y-146868450D01*
X125273861Y-146960186D01*
X125281052Y-146968948D01*
X125381550Y-147051425D01*
X125496207Y-147112710D01*
X125620617Y-147150450D01*
X125750000Y-147163193D01*
X125782419Y-147160000D01*
X139717581Y-147160000D01*
X139750000Y-147163193D01*
X139782419Y-147160000D01*
X139879383Y-147150450D01*
X140003793Y-147112710D01*
X140118450Y-147051425D01*
X140218948Y-146968948D01*
X140301425Y-146868450D01*
X140362710Y-146753793D01*
X140400450Y-146629383D01*
X140413193Y-146500000D01*
X140410000Y-146467581D01*
X140410000Y-132532419D01*
X140413193Y-132500000D01*
X144086807Y-132500000D01*
X144090001Y-132532429D01*
X144090000Y-146467581D01*
X144086807Y-146500000D01*
X144099550Y-146629383D01*
X144137290Y-146753793D01*
X144198575Y-146868450D01*
X144273861Y-146960186D01*
X144281052Y-146968948D01*
X144381550Y-147051425D01*
X144496207Y-147112710D01*
X144620617Y-147150450D01*
X144750000Y-147163193D01*
X144782419Y-147160000D01*
X158717581Y-147160000D01*
X158750000Y-147163193D01*
X158782419Y-147160000D01*
X158879383Y-147150450D01*
X159003793Y-147112710D01*
X159118450Y-147051425D01*
X159218948Y-146968948D01*
X159301425Y-146868450D01*
X159362710Y-146753793D01*
X159400450Y-146629383D01*
X159404644Y-146586799D01*
X163622048Y-146586799D01*
X163628570Y-146716643D01*
X163660296Y-146842720D01*
X163716010Y-146960186D01*
X163793570Y-147064526D01*
X163889995Y-147151728D01*
X164001580Y-147218445D01*
X164124037Y-147262110D01*
X164156265Y-147266855D01*
X177677499Y-150638077D01*
X177708177Y-150649016D01*
X177740399Y-150653760D01*
X177740404Y-150653761D01*
X177836798Y-150667952D01*
X177836799Y-150667952D01*
X177843008Y-150667640D01*
X177966643Y-150661431D01*
X178092720Y-150629704D01*
X178210186Y-150573990D01*
X178314526Y-150496430D01*
X178401729Y-150400005D01*
X178468445Y-150288420D01*
X178512110Y-150165963D01*
X178516855Y-150133735D01*
X181888077Y-136612501D01*
X181899016Y-136581823D01*
X181905910Y-136535000D01*
X181917952Y-136453202D01*
X181911431Y-136323357D01*
X181879704Y-136197280D01*
X181823990Y-136079814D01*
X181823990Y-136079813D01*
X181746430Y-135975473D01*
X181650005Y-135888271D01*
X181538421Y-135821554D01*
X181446647Y-135788830D01*
X181446637Y-135788827D01*
X181415963Y-135777890D01*
X181383745Y-135773147D01*
X173270643Y-133750324D01*
X190965000Y-133750324D01*
X190965000Y-134249676D01*
X191062418Y-134739432D01*
X191253512Y-135200773D01*
X191530937Y-135615968D01*
X191884032Y-135969063D01*
X192299227Y-136246488D01*
X192760568Y-136437582D01*
X193250324Y-136535000D01*
X193749676Y-136535000D01*
X194239432Y-136437582D01*
X194700773Y-136246488D01*
X195115968Y-135969063D01*
X195469063Y-135615968D01*
X195746488Y-135200773D01*
X195937582Y-134739432D01*
X196035000Y-134249676D01*
X196035000Y-133750324D01*
X195937582Y-133260568D01*
X195746488Y-132799227D01*
X195469063Y-132384032D01*
X195115968Y-132030937D01*
X194700773Y-131753512D01*
X194239432Y-131562418D01*
X193749676Y-131465000D01*
X193250324Y-131465000D01*
X192760568Y-131562418D01*
X192299227Y-131753512D01*
X191884032Y-132030937D01*
X191530937Y-132384032D01*
X191253512Y-132799227D01*
X191062418Y-133260568D01*
X190965000Y-133750324D01*
X173270643Y-133750324D01*
X167862503Y-132401924D01*
X167831823Y-132390984D01*
X167799598Y-132386240D01*
X167799595Y-132386239D01*
X167703201Y-132372048D01*
X167573356Y-132378569D01*
X167447279Y-132410296D01*
X167329813Y-132466010D01*
X167225473Y-132543570D01*
X167138271Y-132639995D01*
X167071554Y-132751579D01*
X167038830Y-132843353D01*
X167038827Y-132843363D01*
X167027890Y-132874037D01*
X167023147Y-132906255D01*
X163651924Y-146427497D01*
X163640984Y-146458177D01*
X163636240Y-146490402D01*
X163636239Y-146490405D01*
X163622048Y-146586799D01*
X159404644Y-146586799D01*
X159413193Y-146500000D01*
X159410000Y-146467581D01*
X159410000Y-132532419D01*
X159413193Y-132500000D01*
X159400450Y-132370617D01*
X159362710Y-132246207D01*
X159301425Y-132131550D01*
X159218948Y-132031052D01*
X159118450Y-131948575D01*
X159003793Y-131887290D01*
X158879383Y-131849550D01*
X158782419Y-131840000D01*
X158750000Y-131836807D01*
X158717581Y-131840000D01*
X144782419Y-131840000D01*
X144750000Y-131836807D01*
X144717581Y-131840000D01*
X144620617Y-131849550D01*
X144496207Y-131887290D01*
X144381550Y-131948575D01*
X144281052Y-132031052D01*
X144198575Y-132131550D01*
X144137290Y-132246207D01*
X144099550Y-132370617D01*
X144086807Y-132500000D01*
X140413193Y-132500000D01*
X140400450Y-132370617D01*
X140362710Y-132246207D01*
X140301425Y-132131550D01*
X140218948Y-132031052D01*
X140118450Y-131948575D01*
X140003793Y-131887290D01*
X139879383Y-131849550D01*
X139782419Y-131840000D01*
X139750000Y-131836807D01*
X139717581Y-131840000D01*
X125782419Y-131840000D01*
X125750000Y-131836807D01*
X125717581Y-131840000D01*
X125620617Y-131849550D01*
X125496207Y-131887290D01*
X125381550Y-131948575D01*
X125281052Y-132031052D01*
X125198575Y-132131550D01*
X125137290Y-132246207D01*
X125099550Y-132370617D01*
X125086807Y-132500000D01*
X119030000Y-132500000D01*
X119030000Y-131032419D01*
X119033193Y-131000000D01*
X119020450Y-130870617D01*
X118982710Y-130746207D01*
X118921425Y-130631550D01*
X118838948Y-130531052D01*
X118738450Y-130448575D01*
X118623793Y-130387290D01*
X118499383Y-130349550D01*
X118402419Y-130340000D01*
X118370000Y-130336807D01*
X118337581Y-130340000D01*
X104402419Y-130340000D01*
X104370000Y-130336807D01*
X104337581Y-130340000D01*
X104240617Y-130349550D01*
X104116207Y-130387290D01*
X104001550Y-130448575D01*
X103901052Y-130531052D01*
X103818575Y-130631550D01*
X103757290Y-130746207D01*
X103719550Y-130870617D01*
X103706807Y-131000000D01*
X103329652Y-131000000D01*
X103246488Y-130799227D01*
X102969063Y-130384032D01*
X102615968Y-130030937D01*
X102200773Y-129753512D01*
X101739432Y-129562418D01*
X101249676Y-129465000D01*
X100750324Y-129465000D01*
X100260568Y-129562418D01*
X99799227Y-129753512D01*
X99384032Y-130030937D01*
X99030937Y-130384032D01*
X98753512Y-130799227D01*
X98562418Y-131260568D01*
X98465000Y-131750324D01*
X97660000Y-131750324D01*
X97660000Y-128032418D01*
X97663193Y-128000000D01*
X97650450Y-127870617D01*
X97612710Y-127746207D01*
X97551425Y-127631550D01*
X97468948Y-127531052D01*
X97368450Y-127448575D01*
X97253793Y-127387290D01*
X97129383Y-127349550D01*
X97032419Y-127340000D01*
X97000000Y-127336807D01*
X96967581Y-127340000D01*
X83032419Y-127340000D01*
X83000000Y-127336807D01*
X82967581Y-127340000D01*
X82870617Y-127349550D01*
X82746207Y-127387290D01*
X82631550Y-127448575D01*
X82531052Y-127531052D01*
X82448575Y-127631550D01*
X82387290Y-127746207D01*
X82349550Y-127870617D01*
X82336807Y-128000000D01*
X80660000Y-128000000D01*
X80660000Y-111000000D01*
X82336807Y-111000000D01*
X82340001Y-111032429D01*
X82340000Y-124967581D01*
X82336807Y-125000000D01*
X82349550Y-125129383D01*
X82387290Y-125253793D01*
X82448575Y-125368450D01*
X82464037Y-125387290D01*
X82531052Y-125468948D01*
X82631550Y-125551425D01*
X82746207Y-125612710D01*
X82870617Y-125650450D01*
X83000000Y-125663193D01*
X83032419Y-125660000D01*
X96967581Y-125660000D01*
X97000000Y-125663193D01*
X97032419Y-125660000D01*
X97129383Y-125650450D01*
X97253793Y-125612710D01*
X97368450Y-125551425D01*
X97468948Y-125468948D01*
X97551425Y-125368450D01*
X97612710Y-125253793D01*
X97650450Y-125129383D01*
X97663193Y-125000000D01*
X97660000Y-124967581D01*
X97660000Y-112000000D01*
X101336807Y-112000000D01*
X101340001Y-112032429D01*
X101340000Y-125967581D01*
X101336807Y-126000000D01*
X101349550Y-126129383D01*
X101387290Y-126253793D01*
X101448575Y-126368450D01*
X101531052Y-126468948D01*
X101631550Y-126551425D01*
X101746207Y-126612710D01*
X101870617Y-126650450D01*
X102000000Y-126663193D01*
X102032419Y-126660000D01*
X115967581Y-126660000D01*
X116000000Y-126663193D01*
X116032419Y-126660000D01*
X116129383Y-126650450D01*
X116253793Y-126612710D01*
X116368450Y-126551425D01*
X116468948Y-126468948D01*
X116551425Y-126368450D01*
X116612710Y-126253793D01*
X116650450Y-126129383D01*
X116663193Y-126000000D01*
X116660000Y-125967581D01*
X116660000Y-112032419D01*
X116663193Y-112000000D01*
X116650450Y-111870617D01*
X116612710Y-111746207D01*
X116551425Y-111631550D01*
X116468948Y-111531052D01*
X116368450Y-111448575D01*
X116253793Y-111387290D01*
X116129383Y-111349550D01*
X116032419Y-111340000D01*
X116000000Y-111336807D01*
X115967581Y-111340000D01*
X102032419Y-111340000D01*
X102000000Y-111336807D01*
X101967581Y-111340000D01*
X101870617Y-111349550D01*
X101746207Y-111387290D01*
X101631550Y-111448575D01*
X101531052Y-111531052D01*
X101448575Y-111631550D01*
X101387290Y-111746207D01*
X101349550Y-111870617D01*
X101336807Y-112000000D01*
X97660000Y-112000000D01*
X97660000Y-111032418D01*
X97663193Y-111000000D01*
X97650450Y-110870617D01*
X97612710Y-110746207D01*
X97551425Y-110631550D01*
X97468948Y-110531052D01*
X97368450Y-110448575D01*
X97253793Y-110387290D01*
X97129383Y-110349550D01*
X97032419Y-110340000D01*
X97000000Y-110336807D01*
X96967581Y-110340000D01*
X83032419Y-110340000D01*
X83000000Y-110336807D01*
X82967581Y-110340000D01*
X82870617Y-110349550D01*
X82746207Y-110387290D01*
X82631550Y-110448575D01*
X82531052Y-110531052D01*
X82448575Y-110631550D01*
X82387290Y-110746207D01*
X82349550Y-110870617D01*
X82336807Y-111000000D01*
X80660000Y-111000000D01*
X80660000Y-94000000D01*
X82336807Y-94000000D01*
X82340001Y-94032429D01*
X82340000Y-107967581D01*
X82336807Y-108000000D01*
X82349550Y-108129383D01*
X82387290Y-108253793D01*
X82448575Y-108368450D01*
X82464037Y-108387290D01*
X82531052Y-108468948D01*
X82631550Y-108551425D01*
X82746207Y-108612710D01*
X82870617Y-108650450D01*
X83000000Y-108663193D01*
X83032419Y-108660000D01*
X96967581Y-108660000D01*
X97000000Y-108663193D01*
X97032419Y-108660000D01*
X97129383Y-108650450D01*
X97253793Y-108612710D01*
X97368450Y-108551425D01*
X97468948Y-108468948D01*
X97551425Y-108368450D01*
X97612710Y-108253793D01*
X97650450Y-108129383D01*
X97663193Y-108000000D01*
X97660000Y-107967581D01*
X97660000Y-95000000D01*
X101336807Y-95000000D01*
X101340001Y-95032429D01*
X101340000Y-108967581D01*
X101336807Y-109000000D01*
X101349550Y-109129383D01*
X101387290Y-109253793D01*
X101448575Y-109368450D01*
X101459804Y-109382132D01*
X101531052Y-109468948D01*
X101631550Y-109551425D01*
X101746207Y-109612710D01*
X101870617Y-109650450D01*
X102000000Y-109663193D01*
X102032419Y-109660000D01*
X115967581Y-109660000D01*
X116000000Y-109663193D01*
X116032419Y-109660000D01*
X116129383Y-109650450D01*
X116253793Y-109612710D01*
X116368450Y-109551425D01*
X116468948Y-109468948D01*
X116551425Y-109368450D01*
X116612710Y-109253793D01*
X116650450Y-109129383D01*
X116663193Y-109000000D01*
X116660000Y-108967581D01*
X116660000Y-107000000D01*
X120336807Y-107000000D01*
X120340001Y-107032429D01*
X120340000Y-120967581D01*
X120336807Y-121000000D01*
X120349550Y-121129383D01*
X120387290Y-121253793D01*
X120448575Y-121368450D01*
X120531052Y-121468948D01*
X120631550Y-121551425D01*
X120746207Y-121612710D01*
X120870617Y-121650450D01*
X121000000Y-121663193D01*
X121032419Y-121660000D01*
X134967581Y-121660000D01*
X135000000Y-121663193D01*
X135032419Y-121660000D01*
X135129383Y-121650450D01*
X135253793Y-121612710D01*
X135368450Y-121551425D01*
X135468948Y-121468948D01*
X135551425Y-121368450D01*
X135612710Y-121253793D01*
X135650450Y-121129383D01*
X135663193Y-121000000D01*
X135660000Y-120967581D01*
X135660000Y-116245031D01*
X135884032Y-116469063D01*
X136299227Y-116746488D01*
X136760568Y-116937582D01*
X137250324Y-117035000D01*
X137749676Y-117035000D01*
X138239432Y-116937582D01*
X138700773Y-116746488D01*
X139115968Y-116469063D01*
X139340001Y-116245030D01*
X139340000Y-127967581D01*
X139336807Y-128000000D01*
X139349550Y-128129383D01*
X139387290Y-128253793D01*
X139448575Y-128368450D01*
X139531052Y-128468948D01*
X139631550Y-128551425D01*
X139746207Y-128612710D01*
X139870617Y-128650450D01*
X140000000Y-128663193D01*
X140032419Y-128660000D01*
X153967581Y-128660000D01*
X154000000Y-128663193D01*
X154032419Y-128660000D01*
X154129383Y-128650450D01*
X154253793Y-128612710D01*
X154368450Y-128551425D01*
X154468948Y-128468948D01*
X154551425Y-128368450D01*
X154612710Y-128253793D01*
X154650450Y-128129383D01*
X154663193Y-128000000D01*
X154660000Y-127967581D01*
X154660000Y-114500000D01*
X158336807Y-114500000D01*
X158340001Y-114532429D01*
X158340000Y-128467581D01*
X158336807Y-128500000D01*
X158349550Y-128629383D01*
X158387290Y-128753793D01*
X158448575Y-128868450D01*
X158508158Y-128941052D01*
X158531052Y-128968948D01*
X158631550Y-129051425D01*
X158746207Y-129112710D01*
X158870617Y-129150450D01*
X159000000Y-129163193D01*
X159032419Y-129160000D01*
X172967581Y-129160000D01*
X173000000Y-129163193D01*
X173032419Y-129160000D01*
X173070931Y-129156207D01*
X173129383Y-129150450D01*
X173253793Y-129112710D01*
X173368450Y-129051425D01*
X173468948Y-128968948D01*
X173551425Y-128868450D01*
X173612710Y-128753793D01*
X173650450Y-128629383D01*
X173660000Y-128532419D01*
X173660000Y-128532418D01*
X173663193Y-128500000D01*
X173660000Y-128467581D01*
X173660000Y-115410000D01*
X177336807Y-115410000D01*
X177340001Y-115442429D01*
X177340000Y-129377581D01*
X177336807Y-129410000D01*
X177349550Y-129539383D01*
X177387290Y-129663793D01*
X177448575Y-129778450D01*
X177509034Y-129852119D01*
X177531052Y-129878948D01*
X177631550Y-129961425D01*
X177746207Y-130022710D01*
X177870617Y-130060450D01*
X178000000Y-130073193D01*
X178032419Y-130070000D01*
X191967581Y-130070000D01*
X192000000Y-130073193D01*
X192032419Y-130070000D01*
X192040065Y-130069247D01*
X192129383Y-130060450D01*
X192253793Y-130022710D01*
X192368450Y-129961425D01*
X192468948Y-129878948D01*
X192551425Y-129778450D01*
X192612710Y-129663793D01*
X192650450Y-129539383D01*
X192660000Y-129442419D01*
X192660000Y-129442418D01*
X192663193Y-129410000D01*
X192660000Y-129377581D01*
X192660000Y-115442419D01*
X192663193Y-115410000D01*
X192650450Y-115280617D01*
X192612710Y-115156207D01*
X192551425Y-115041550D01*
X192468948Y-114941052D01*
X192368450Y-114858575D01*
X192253793Y-114797290D01*
X192129383Y-114759550D01*
X192032419Y-114750000D01*
X192000000Y-114746807D01*
X191967581Y-114750000D01*
X178032419Y-114750000D01*
X178000000Y-114746807D01*
X177967581Y-114750000D01*
X177870617Y-114759550D01*
X177746207Y-114797290D01*
X177631550Y-114858575D01*
X177531052Y-114941052D01*
X177448575Y-115041550D01*
X177387290Y-115156207D01*
X177349550Y-115280617D01*
X177336807Y-115410000D01*
X173660000Y-115410000D01*
X173660000Y-114532419D01*
X173663193Y-114500000D01*
X173650450Y-114370617D01*
X173612710Y-114246207D01*
X173551425Y-114131550D01*
X173468948Y-114031052D01*
X173368450Y-113948575D01*
X173253793Y-113887290D01*
X173129383Y-113849550D01*
X173032419Y-113840000D01*
X173000000Y-113836807D01*
X172967581Y-113840000D01*
X159032419Y-113840000D01*
X159000000Y-113836807D01*
X158967581Y-113840000D01*
X158870617Y-113849550D01*
X158746207Y-113887290D01*
X158631550Y-113948575D01*
X158531052Y-114031052D01*
X158448575Y-114131550D01*
X158387290Y-114246207D01*
X158349550Y-114370617D01*
X158336807Y-114500000D01*
X154660000Y-114500000D01*
X154660000Y-114032419D01*
X154663193Y-114000000D01*
X154650450Y-113870617D01*
X154612710Y-113746207D01*
X154551425Y-113631550D01*
X154468948Y-113531052D01*
X154368450Y-113448575D01*
X154253793Y-113387290D01*
X154129383Y-113349550D01*
X154032419Y-113340000D01*
X154000000Y-113336807D01*
X153967581Y-113340000D01*
X140032419Y-113340000D01*
X140000000Y-113336807D01*
X139967581Y-113340000D01*
X139870617Y-113349550D01*
X139778862Y-113377384D01*
X139746488Y-113299227D01*
X139469063Y-112884032D01*
X139115968Y-112530937D01*
X138700773Y-112253512D01*
X138239432Y-112062418D01*
X137749676Y-111965000D01*
X137250324Y-111965000D01*
X136760568Y-112062418D01*
X136299227Y-112253512D01*
X135884032Y-112530937D01*
X135660000Y-112754969D01*
X135660000Y-107032419D01*
X135663193Y-107000000D01*
X135650450Y-106870617D01*
X135612710Y-106746207D01*
X135551425Y-106631550D01*
X135468948Y-106531052D01*
X135368450Y-106448575D01*
X135253793Y-106387290D01*
X135129383Y-106349550D01*
X135032419Y-106340000D01*
X135000000Y-106336807D01*
X134967581Y-106340000D01*
X121032419Y-106340000D01*
X121000000Y-106336807D01*
X120967581Y-106340000D01*
X120870617Y-106349550D01*
X120746207Y-106387290D01*
X120631550Y-106448575D01*
X120531052Y-106531052D01*
X120448575Y-106631550D01*
X120387290Y-106746207D01*
X120349550Y-106870617D01*
X120336807Y-107000000D01*
X116660000Y-107000000D01*
X116660000Y-95032419D01*
X116663193Y-95000000D01*
X116650450Y-94870617D01*
X116612710Y-94746207D01*
X116551425Y-94631550D01*
X116468948Y-94531052D01*
X116368450Y-94448575D01*
X116253793Y-94387290D01*
X116129383Y-94349550D01*
X116032419Y-94340000D01*
X116000000Y-94336807D01*
X115967581Y-94340000D01*
X102032419Y-94340000D01*
X102000000Y-94336807D01*
X101967581Y-94340000D01*
X101870617Y-94349550D01*
X101746207Y-94387290D01*
X101631550Y-94448575D01*
X101531052Y-94531052D01*
X101448575Y-94631550D01*
X101387290Y-94746207D01*
X101349550Y-94870617D01*
X101336807Y-95000000D01*
X97660000Y-95000000D01*
X97660000Y-94032418D01*
X97663193Y-94000000D01*
X97650450Y-93870617D01*
X97612710Y-93746207D01*
X97551425Y-93631550D01*
X97468948Y-93531052D01*
X97368450Y-93448575D01*
X97253793Y-93387290D01*
X97129383Y-93349550D01*
X97032419Y-93340000D01*
X97000000Y-93336807D01*
X96967581Y-93340000D01*
X83032419Y-93340000D01*
X83000000Y-93336807D01*
X82967581Y-93340000D01*
X82870617Y-93349550D01*
X82746207Y-93387290D01*
X82631550Y-93448575D01*
X82531052Y-93531052D01*
X82448575Y-93631550D01*
X82387290Y-93746207D01*
X82349550Y-93870617D01*
X82336807Y-94000000D01*
X80660000Y-94000000D01*
X80660000Y-77000000D01*
X82336807Y-77000000D01*
X82340001Y-77032429D01*
X82340000Y-90967581D01*
X82336807Y-91000000D01*
X82349550Y-91129383D01*
X82387290Y-91253793D01*
X82448575Y-91368450D01*
X82464037Y-91387290D01*
X82531052Y-91468948D01*
X82631550Y-91551425D01*
X82746207Y-91612710D01*
X82870617Y-91650450D01*
X83000000Y-91663193D01*
X83032419Y-91660000D01*
X96967581Y-91660000D01*
X97000000Y-91663193D01*
X97032419Y-91660000D01*
X97129383Y-91650450D01*
X97253793Y-91612710D01*
X97368450Y-91551425D01*
X97468948Y-91468948D01*
X97551425Y-91368450D01*
X97612710Y-91253793D01*
X97650450Y-91129383D01*
X97663193Y-91000000D01*
X97660000Y-90967581D01*
X97660000Y-77276349D01*
X97903256Y-77276349D01*
X98107362Y-77632867D01*
X98550223Y-77863575D01*
X99029583Y-78003452D01*
X99527021Y-78047123D01*
X99958494Y-78000000D01*
X101336807Y-78000000D01*
X101340001Y-78032429D01*
X101340000Y-91967581D01*
X101336807Y-92000000D01*
X101349550Y-92129383D01*
X101387290Y-92253793D01*
X101448575Y-92368450D01*
X101531052Y-92468948D01*
X101631550Y-92551425D01*
X101746207Y-92612710D01*
X101870617Y-92650450D01*
X102000000Y-92663193D01*
X102032419Y-92660000D01*
X115967581Y-92660000D01*
X116000000Y-92663193D01*
X116032419Y-92660000D01*
X116129383Y-92650450D01*
X116253793Y-92612710D01*
X116368450Y-92551425D01*
X116468948Y-92468948D01*
X116551425Y-92368450D01*
X116612710Y-92253793D01*
X116650450Y-92129383D01*
X116663193Y-92000000D01*
X116660000Y-91967581D01*
X116660000Y-90000000D01*
X120336807Y-90000000D01*
X120340001Y-90032429D01*
X120340000Y-103967581D01*
X120336807Y-104000000D01*
X120349550Y-104129383D01*
X120387290Y-104253793D01*
X120448575Y-104368450D01*
X120531052Y-104468948D01*
X120631550Y-104551425D01*
X120746207Y-104612710D01*
X120870617Y-104650450D01*
X121000000Y-104663193D01*
X121032419Y-104660000D01*
X134967581Y-104660000D01*
X135000000Y-104663193D01*
X135032419Y-104660000D01*
X135129383Y-104650450D01*
X135253793Y-104612710D01*
X135368450Y-104551425D01*
X135468948Y-104468948D01*
X135551425Y-104368450D01*
X135612710Y-104253793D01*
X135650450Y-104129383D01*
X135663193Y-104000000D01*
X135660000Y-103967581D01*
X135660000Y-97000000D01*
X139336807Y-97000000D01*
X139340001Y-97032429D01*
X139340000Y-110967581D01*
X139336807Y-111000000D01*
X139349550Y-111129383D01*
X139387290Y-111253793D01*
X139448575Y-111368450D01*
X139520689Y-111456321D01*
X139531052Y-111468948D01*
X139631550Y-111551425D01*
X139746207Y-111612710D01*
X139870617Y-111650450D01*
X140000000Y-111663193D01*
X140032419Y-111660000D01*
X153967581Y-111660000D01*
X154000000Y-111663193D01*
X154032419Y-111660000D01*
X154129383Y-111650450D01*
X154253793Y-111612710D01*
X154368450Y-111551425D01*
X154468948Y-111468948D01*
X154551425Y-111368450D01*
X154612710Y-111253793D01*
X154650450Y-111129383D01*
X154663193Y-111000000D01*
X154660000Y-110967581D01*
X154660000Y-97500000D01*
X158336807Y-97500000D01*
X158340001Y-97532429D01*
X158340000Y-111467581D01*
X158336807Y-111500000D01*
X158349550Y-111629383D01*
X158387290Y-111753793D01*
X158448575Y-111868450D01*
X158527812Y-111965000D01*
X158531052Y-111968948D01*
X158631550Y-112051425D01*
X158746207Y-112112710D01*
X158870617Y-112150450D01*
X159000000Y-112163193D01*
X159032419Y-112160000D01*
X172967581Y-112160000D01*
X173000000Y-112163193D01*
X173032419Y-112160000D01*
X173129383Y-112150450D01*
X173253793Y-112112710D01*
X173368450Y-112051425D01*
X173468948Y-111968948D01*
X173551425Y-111868450D01*
X173612710Y-111753793D01*
X173650450Y-111629383D01*
X173663193Y-111500000D01*
X173660000Y-111467581D01*
X173660000Y-97532419D01*
X173663193Y-97500000D01*
X173650450Y-97370617D01*
X173612710Y-97246207D01*
X173551425Y-97131550D01*
X173468948Y-97031052D01*
X173368450Y-96948575D01*
X173253793Y-96887290D01*
X173129383Y-96849550D01*
X173032419Y-96840000D01*
X173000000Y-96836807D01*
X172967581Y-96840000D01*
X159032419Y-96840000D01*
X159000000Y-96836807D01*
X158967581Y-96840000D01*
X158870617Y-96849550D01*
X158746207Y-96887290D01*
X158631550Y-96948575D01*
X158531052Y-97031052D01*
X158448575Y-97131550D01*
X158387290Y-97246207D01*
X158349550Y-97370617D01*
X158336807Y-97500000D01*
X154660000Y-97500000D01*
X154660000Y-97032419D01*
X154663193Y-97000000D01*
X154650450Y-96870617D01*
X154612710Y-96746207D01*
X154551425Y-96631550D01*
X154468948Y-96531052D01*
X154368450Y-96448575D01*
X154253793Y-96387290D01*
X154129383Y-96349550D01*
X154032419Y-96340000D01*
X154000000Y-96336807D01*
X153967581Y-96340000D01*
X140032419Y-96340000D01*
X140000000Y-96336807D01*
X139967581Y-96340000D01*
X139870617Y-96349550D01*
X139746207Y-96387290D01*
X139631550Y-96448575D01*
X139531052Y-96531052D01*
X139448575Y-96631550D01*
X139387290Y-96746207D01*
X139349550Y-96870617D01*
X139336807Y-97000000D01*
X135660000Y-97000000D01*
X135660000Y-90032419D01*
X135663193Y-90000000D01*
X135650450Y-89870617D01*
X135612710Y-89746207D01*
X135551425Y-89631550D01*
X135468948Y-89531052D01*
X135368450Y-89448575D01*
X135253793Y-89387290D01*
X135129383Y-89349550D01*
X135032419Y-89340000D01*
X135000000Y-89336807D01*
X134967581Y-89340000D01*
X121032419Y-89340000D01*
X121000000Y-89336807D01*
X120967581Y-89340000D01*
X120870617Y-89349550D01*
X120746207Y-89387290D01*
X120631550Y-89448575D01*
X120531052Y-89531052D01*
X120448575Y-89631550D01*
X120387290Y-89746207D01*
X120349550Y-89870617D01*
X120336807Y-90000000D01*
X116660000Y-90000000D01*
X116660000Y-78032419D01*
X116663193Y-78000000D01*
X116650450Y-77870617D01*
X116612710Y-77746207D01*
X116551425Y-77631550D01*
X116468948Y-77531052D01*
X116368450Y-77448575D01*
X116253793Y-77387290D01*
X116129383Y-77349550D01*
X116032419Y-77340000D01*
X116000000Y-77336807D01*
X115967581Y-77340000D01*
X102032419Y-77340000D01*
X102000000Y-77336807D01*
X101967581Y-77340000D01*
X101870617Y-77349550D01*
X101746207Y-77387290D01*
X101631550Y-77448575D01*
X101531052Y-77531052D01*
X101448575Y-77631550D01*
X101387290Y-77746207D01*
X101349550Y-77870617D01*
X101336807Y-78000000D01*
X99958494Y-78000000D01*
X100023422Y-77992909D01*
X100499707Y-77842894D01*
X100892638Y-77632867D01*
X101096744Y-77276349D01*
X99500000Y-75679605D01*
X97903256Y-77276349D01*
X97660000Y-77276349D01*
X97660000Y-77060304D01*
X97723651Y-77096744D01*
X99320395Y-75500000D01*
X99679605Y-75500000D01*
X101276349Y-77096744D01*
X101632867Y-76892638D01*
X101863575Y-76449777D01*
X102003452Y-75970417D01*
X102047123Y-75472979D01*
X101992909Y-74976578D01*
X101842894Y-74500293D01*
X101632867Y-74107362D01*
X101276349Y-73903256D01*
X99679605Y-75500000D01*
X99320395Y-75500000D01*
X97723651Y-73903256D01*
X97367133Y-74107362D01*
X97136425Y-74550223D01*
X96996548Y-75029583D01*
X96952877Y-75527021D01*
X97007091Y-76023422D01*
X97109185Y-76347561D01*
X97032419Y-76340000D01*
X97000000Y-76336807D01*
X96967581Y-76340000D01*
X83032419Y-76340000D01*
X83000000Y-76336807D01*
X82967581Y-76340000D01*
X82870617Y-76349550D01*
X82746207Y-76387290D01*
X82631550Y-76448575D01*
X82531052Y-76531052D01*
X82448575Y-76631550D01*
X82387290Y-76746207D01*
X82349550Y-76870617D01*
X82336807Y-77000000D01*
X80660000Y-77000000D01*
X80660000Y-73723651D01*
X97903256Y-73723651D01*
X99500000Y-75320395D01*
X101096744Y-73723651D01*
X100892638Y-73367133D01*
X100449777Y-73136425D01*
X99982248Y-73000000D01*
X120336807Y-73000000D01*
X120340001Y-73032429D01*
X120340000Y-86967581D01*
X120336807Y-87000000D01*
X120349550Y-87129383D01*
X120387290Y-87253793D01*
X120448575Y-87368450D01*
X120531052Y-87468948D01*
X120631550Y-87551425D01*
X120746207Y-87612710D01*
X120870617Y-87650450D01*
X121000000Y-87663193D01*
X121032419Y-87660000D01*
X134967581Y-87660000D01*
X135000000Y-87663193D01*
X135032419Y-87660000D01*
X135129383Y-87650450D01*
X135253793Y-87612710D01*
X135368450Y-87551425D01*
X135468948Y-87468948D01*
X135551425Y-87368450D01*
X135612710Y-87253793D01*
X135650450Y-87129383D01*
X135663193Y-87000000D01*
X135660000Y-86967581D01*
X135660000Y-80000000D01*
X139336807Y-80000000D01*
X139340001Y-80032429D01*
X139340000Y-93967581D01*
X139336807Y-94000000D01*
X139349550Y-94129383D01*
X139387290Y-94253793D01*
X139448575Y-94368450D01*
X139464037Y-94387290D01*
X139531052Y-94468948D01*
X139631550Y-94551425D01*
X139746207Y-94612710D01*
X139870617Y-94650450D01*
X140000000Y-94663193D01*
X140032419Y-94660000D01*
X153967581Y-94660000D01*
X154000000Y-94663193D01*
X154032419Y-94660000D01*
X154129383Y-94650450D01*
X154253793Y-94612710D01*
X154368450Y-94551425D01*
X154468948Y-94468948D01*
X154551425Y-94368450D01*
X154612710Y-94253793D01*
X154650450Y-94129383D01*
X154663193Y-94000000D01*
X154660000Y-93967581D01*
X154660000Y-80500000D01*
X158336807Y-80500000D01*
X158340001Y-80532429D01*
X158340000Y-94467581D01*
X158336807Y-94500000D01*
X158349550Y-94629383D01*
X158387290Y-94753793D01*
X158448575Y-94868450D01*
X158529930Y-94967581D01*
X158531052Y-94968948D01*
X158631550Y-95051425D01*
X158746207Y-95112710D01*
X158870617Y-95150450D01*
X159000000Y-95163193D01*
X159032419Y-95160000D01*
X172967581Y-95160000D01*
X173000000Y-95163193D01*
X173032419Y-95160000D01*
X173129383Y-95150450D01*
X173253793Y-95112710D01*
X173368450Y-95051425D01*
X173468948Y-94968948D01*
X173551425Y-94868450D01*
X173612710Y-94753793D01*
X173650450Y-94629383D01*
X173663193Y-94500000D01*
X173660000Y-94467581D01*
X173660000Y-80532419D01*
X173663193Y-80500000D01*
X173650450Y-80370617D01*
X173612710Y-80246207D01*
X173551425Y-80131550D01*
X173468948Y-80031052D01*
X173368450Y-79948575D01*
X173253793Y-79887290D01*
X173129383Y-79849550D01*
X173032419Y-79840000D01*
X173000000Y-79836807D01*
X172967581Y-79840000D01*
X159032419Y-79840000D01*
X159000000Y-79836807D01*
X158967581Y-79840000D01*
X158870617Y-79849550D01*
X158746207Y-79887290D01*
X158631550Y-79948575D01*
X158531052Y-80031052D01*
X158448575Y-80131550D01*
X158387290Y-80246207D01*
X158349550Y-80370617D01*
X158336807Y-80500000D01*
X154660000Y-80500000D01*
X154660000Y-80032419D01*
X154663193Y-80000000D01*
X154650450Y-79870617D01*
X154612710Y-79746207D01*
X154551425Y-79631550D01*
X154468948Y-79531052D01*
X154368450Y-79448575D01*
X154253793Y-79387290D01*
X154129383Y-79349550D01*
X154032419Y-79340000D01*
X154000000Y-79336807D01*
X153967581Y-79340000D01*
X140032419Y-79340000D01*
X140000000Y-79336807D01*
X139967581Y-79340000D01*
X139870617Y-79349550D01*
X139746207Y-79387290D01*
X139631550Y-79448575D01*
X139531052Y-79531052D01*
X139448575Y-79631550D01*
X139387290Y-79746207D01*
X139349550Y-79870617D01*
X139336807Y-80000000D01*
X135660000Y-80000000D01*
X135660000Y-75250324D01*
X153965000Y-75250324D01*
X153965000Y-75749676D01*
X154062418Y-76239432D01*
X154253512Y-76700773D01*
X154530937Y-77115968D01*
X154884032Y-77469063D01*
X155299227Y-77746488D01*
X155760568Y-77937582D01*
X156250324Y-78035000D01*
X156749676Y-78035000D01*
X157239432Y-77937582D01*
X157700773Y-77746488D01*
X158115968Y-77469063D01*
X158469063Y-77115968D01*
X158746488Y-76700773D01*
X158937582Y-76239432D01*
X159035000Y-75749676D01*
X159035000Y-75250324D01*
X158937582Y-74760568D01*
X158746488Y-74299227D01*
X158469063Y-73884032D01*
X158115968Y-73530937D01*
X157700773Y-73253512D01*
X157239432Y-73062418D01*
X156749676Y-72965000D01*
X156250324Y-72965000D01*
X155760568Y-73062418D01*
X155299227Y-73253512D01*
X154884032Y-73530937D01*
X154530937Y-73884032D01*
X154253512Y-74299227D01*
X154062418Y-74760568D01*
X153965000Y-75250324D01*
X135660000Y-75250324D01*
X135660000Y-73032419D01*
X135663193Y-73000000D01*
X135650450Y-72870617D01*
X135612710Y-72746207D01*
X135551425Y-72631550D01*
X135468948Y-72531052D01*
X135368450Y-72448575D01*
X135253793Y-72387290D01*
X135129383Y-72349550D01*
X135032419Y-72340000D01*
X135000000Y-72336807D01*
X134967581Y-72340000D01*
X121032419Y-72340000D01*
X121000000Y-72336807D01*
X120967581Y-72340000D01*
X120870617Y-72349550D01*
X120746207Y-72387290D01*
X120631550Y-72448575D01*
X120531052Y-72531052D01*
X120448575Y-72631550D01*
X120387290Y-72746207D01*
X120349550Y-72870617D01*
X120336807Y-73000000D01*
X99982248Y-73000000D01*
X99970417Y-72996548D01*
X99472979Y-72952877D01*
X98976578Y-73007091D01*
X98500293Y-73157106D01*
X98107362Y-73367133D01*
X97903256Y-73723651D01*
X80660000Y-73723651D01*
X80660000Y-72032279D01*
X80688625Y-71740341D01*
X80764035Y-71490571D01*
X80886522Y-71260208D01*
X81051422Y-71058020D01*
X81252450Y-70891714D01*
X81481954Y-70767622D01*
X81731195Y-70690469D01*
X82021088Y-70660000D01*
X173967721Y-70660000D01*
X174259659Y-70688625D01*
M02*
