G04 #@! TF.GenerationSoftware,KiCad,Pcbnew,(5.1.2)-2*
G04 #@! TF.CreationDate,2020-04-16T23:41:07+09:00*
G04 #@! TF.ProjectId,17mm bottom plate,31376d6d-2062-46f7-9474-6f6d20706c61,rev?*
G04 #@! TF.SameCoordinates,Original*
G04 #@! TF.FileFunction,Copper,L1,Top*
G04 #@! TF.FilePolarity,Positive*
%FSLAX46Y46*%
G04 Gerber Fmt 4.6, Leading zero omitted, Abs format (unit mm)*
G04 Created by KiCad (PCBNEW (5.1.2)-2) date 2020-04-16 23:41:07*
%MOMM*%
%LPD*%
G04 APERTURE LIST*
%ADD10C,3.800000*%
%ADD11C,0.254000*%
G04 APERTURE END LIST*
D10*
X213500000Y-124000000D03*
X176500000Y-65500000D03*
X157500000Y-104500000D03*
X121000000Y-122000000D03*
X119500000Y-65500000D03*
D11*
G36*
X223259659Y-60688625D02*
G01*
X223509429Y-60764035D01*
X223739792Y-60886522D01*
X223941980Y-61051422D01*
X224108286Y-61252450D01*
X224232378Y-61481954D01*
X224309531Y-61731195D01*
X224340001Y-62021098D01*
X224340000Y-121812403D01*
X224307497Y-122143890D01*
X224297575Y-122188469D01*
X218297369Y-146249198D01*
X218198807Y-146523339D01*
X218064422Y-146747213D01*
X217889114Y-146940720D01*
X217679558Y-147096491D01*
X217443739Y-147208592D01*
X217190631Y-147272754D01*
X216907457Y-147287718D01*
X216839948Y-147282643D01*
X101902781Y-134948314D01*
X101604155Y-134886884D01*
X101363675Y-134785678D01*
X101147439Y-134639693D01*
X100963675Y-134454486D01*
X100819382Y-134237110D01*
X100720060Y-133995852D01*
X100666329Y-133723891D01*
X100660000Y-133593933D01*
X100660000Y-121750324D01*
X118465000Y-121750324D01*
X118465000Y-122249676D01*
X118562418Y-122739432D01*
X118753512Y-123200773D01*
X119030937Y-123615968D01*
X119384032Y-123969063D01*
X119799227Y-124246488D01*
X120260568Y-124437582D01*
X120750324Y-124535000D01*
X121249676Y-124535000D01*
X121739432Y-124437582D01*
X122200773Y-124246488D01*
X122615968Y-123969063D01*
X122834707Y-123750324D01*
X210965000Y-123750324D01*
X210965000Y-124249676D01*
X211062418Y-124739432D01*
X211253512Y-125200773D01*
X211530937Y-125615968D01*
X211884032Y-125969063D01*
X212299227Y-126246488D01*
X212760568Y-126437582D01*
X213250324Y-126535000D01*
X213749676Y-126535000D01*
X214239432Y-126437582D01*
X214700773Y-126246488D01*
X215115968Y-125969063D01*
X215469063Y-125615968D01*
X215746488Y-125200773D01*
X215937582Y-124739432D01*
X216035000Y-124249676D01*
X216035000Y-123750324D01*
X215937582Y-123260568D01*
X215746488Y-122799227D01*
X215469063Y-122384032D01*
X215115968Y-122030937D01*
X214700773Y-121753512D01*
X214239432Y-121562418D01*
X213749676Y-121465000D01*
X213250324Y-121465000D01*
X212760568Y-121562418D01*
X212299227Y-121753512D01*
X211884032Y-122030937D01*
X211530937Y-122384032D01*
X211253512Y-122799227D01*
X211062418Y-123260568D01*
X210965000Y-123750324D01*
X122834707Y-123750324D01*
X122969063Y-123615968D01*
X123246488Y-123200773D01*
X123437582Y-122739432D01*
X123535000Y-122249676D01*
X123535000Y-121750324D01*
X123437582Y-121260568D01*
X123246488Y-120799227D01*
X122969063Y-120384032D01*
X122615968Y-120030937D01*
X122200773Y-119753512D01*
X121739432Y-119562418D01*
X121249676Y-119465000D01*
X120750324Y-119465000D01*
X120260568Y-119562418D01*
X119799227Y-119753512D01*
X119384032Y-120030937D01*
X119030937Y-120384032D01*
X118753512Y-120799227D01*
X118562418Y-121260568D01*
X118465000Y-121750324D01*
X100660000Y-121750324D01*
X100660000Y-104250324D01*
X154965000Y-104250324D01*
X154965000Y-104749676D01*
X155062418Y-105239432D01*
X155253512Y-105700773D01*
X155530937Y-106115968D01*
X155884032Y-106469063D01*
X156299227Y-106746488D01*
X156760568Y-106937582D01*
X157250324Y-107035000D01*
X157749676Y-107035000D01*
X158239432Y-106937582D01*
X158700773Y-106746488D01*
X159115968Y-106469063D01*
X159469063Y-106115968D01*
X159746488Y-105700773D01*
X159937582Y-105239432D01*
X160035000Y-104749676D01*
X160035000Y-104250324D01*
X159937582Y-103760568D01*
X159746488Y-103299227D01*
X159469063Y-102884032D01*
X159115968Y-102530937D01*
X158700773Y-102253512D01*
X158239432Y-102062418D01*
X157749676Y-101965000D01*
X157250324Y-101965000D01*
X156760568Y-102062418D01*
X156299227Y-102253512D01*
X155884032Y-102530937D01*
X155530937Y-102884032D01*
X155253512Y-103299227D01*
X155062418Y-103760568D01*
X154965000Y-104250324D01*
X100660000Y-104250324D01*
X100660000Y-67276349D01*
X117903256Y-67276349D01*
X118107362Y-67632867D01*
X118550223Y-67863575D01*
X119029583Y-68003452D01*
X119527021Y-68047123D01*
X120023422Y-67992909D01*
X120499707Y-67842894D01*
X120892638Y-67632867D01*
X121096744Y-67276349D01*
X119500000Y-65679605D01*
X117903256Y-67276349D01*
X100660000Y-67276349D01*
X100660000Y-65527021D01*
X116952877Y-65527021D01*
X117007091Y-66023422D01*
X117157106Y-66499707D01*
X117367133Y-66892638D01*
X117723651Y-67096744D01*
X119320395Y-65500000D01*
X119679605Y-65500000D01*
X121276349Y-67096744D01*
X121632867Y-66892638D01*
X121863575Y-66449777D01*
X122003452Y-65970417D01*
X122047123Y-65472979D01*
X122022806Y-65250324D01*
X173965000Y-65250324D01*
X173965000Y-65749676D01*
X174062418Y-66239432D01*
X174253512Y-66700773D01*
X174530937Y-67115968D01*
X174884032Y-67469063D01*
X175299227Y-67746488D01*
X175760568Y-67937582D01*
X176250324Y-68035000D01*
X176749676Y-68035000D01*
X177239432Y-67937582D01*
X177700773Y-67746488D01*
X178115968Y-67469063D01*
X178469063Y-67115968D01*
X178746488Y-66700773D01*
X178937582Y-66239432D01*
X179035000Y-65749676D01*
X179035000Y-65250324D01*
X178937582Y-64760568D01*
X178746488Y-64299227D01*
X178469063Y-63884032D01*
X178115968Y-63530937D01*
X177700773Y-63253512D01*
X177239432Y-63062418D01*
X176749676Y-62965000D01*
X176250324Y-62965000D01*
X175760568Y-63062418D01*
X175299227Y-63253512D01*
X174884032Y-63530937D01*
X174530937Y-63884032D01*
X174253512Y-64299227D01*
X174062418Y-64760568D01*
X173965000Y-65250324D01*
X122022806Y-65250324D01*
X121992909Y-64976578D01*
X121842894Y-64500293D01*
X121632867Y-64107362D01*
X121276349Y-63903256D01*
X119679605Y-65500000D01*
X119320395Y-65500000D01*
X117723651Y-63903256D01*
X117367133Y-64107362D01*
X117136425Y-64550223D01*
X116996548Y-65029583D01*
X116952877Y-65527021D01*
X100660000Y-65527021D01*
X100660000Y-63723651D01*
X117903256Y-63723651D01*
X119500000Y-65320395D01*
X121096744Y-63723651D01*
X120892638Y-63367133D01*
X120449777Y-63136425D01*
X119970417Y-62996548D01*
X119472979Y-62952877D01*
X118976578Y-63007091D01*
X118500293Y-63157106D01*
X118107362Y-63367133D01*
X117903256Y-63723651D01*
X100660000Y-63723651D01*
X100660000Y-62032279D01*
X100688625Y-61740341D01*
X100764035Y-61490571D01*
X100886522Y-61260208D01*
X101051422Y-61058020D01*
X101252450Y-60891714D01*
X101481954Y-60767622D01*
X101731195Y-60690469D01*
X102021088Y-60660000D01*
X222967721Y-60660000D01*
X223259659Y-60688625D01*
X223259659Y-60688625D01*
G37*
X223259659Y-60688625D02*
X223509429Y-60764035D01*
X223739792Y-60886522D01*
X223941980Y-61051422D01*
X224108286Y-61252450D01*
X224232378Y-61481954D01*
X224309531Y-61731195D01*
X224340001Y-62021098D01*
X224340000Y-121812403D01*
X224307497Y-122143890D01*
X224297575Y-122188469D01*
X218297369Y-146249198D01*
X218198807Y-146523339D01*
X218064422Y-146747213D01*
X217889114Y-146940720D01*
X217679558Y-147096491D01*
X217443739Y-147208592D01*
X217190631Y-147272754D01*
X216907457Y-147287718D01*
X216839948Y-147282643D01*
X101902781Y-134948314D01*
X101604155Y-134886884D01*
X101363675Y-134785678D01*
X101147439Y-134639693D01*
X100963675Y-134454486D01*
X100819382Y-134237110D01*
X100720060Y-133995852D01*
X100666329Y-133723891D01*
X100660000Y-133593933D01*
X100660000Y-121750324D01*
X118465000Y-121750324D01*
X118465000Y-122249676D01*
X118562418Y-122739432D01*
X118753512Y-123200773D01*
X119030937Y-123615968D01*
X119384032Y-123969063D01*
X119799227Y-124246488D01*
X120260568Y-124437582D01*
X120750324Y-124535000D01*
X121249676Y-124535000D01*
X121739432Y-124437582D01*
X122200773Y-124246488D01*
X122615968Y-123969063D01*
X122834707Y-123750324D01*
X210965000Y-123750324D01*
X210965000Y-124249676D01*
X211062418Y-124739432D01*
X211253512Y-125200773D01*
X211530937Y-125615968D01*
X211884032Y-125969063D01*
X212299227Y-126246488D01*
X212760568Y-126437582D01*
X213250324Y-126535000D01*
X213749676Y-126535000D01*
X214239432Y-126437582D01*
X214700773Y-126246488D01*
X215115968Y-125969063D01*
X215469063Y-125615968D01*
X215746488Y-125200773D01*
X215937582Y-124739432D01*
X216035000Y-124249676D01*
X216035000Y-123750324D01*
X215937582Y-123260568D01*
X215746488Y-122799227D01*
X215469063Y-122384032D01*
X215115968Y-122030937D01*
X214700773Y-121753512D01*
X214239432Y-121562418D01*
X213749676Y-121465000D01*
X213250324Y-121465000D01*
X212760568Y-121562418D01*
X212299227Y-121753512D01*
X211884032Y-122030937D01*
X211530937Y-122384032D01*
X211253512Y-122799227D01*
X211062418Y-123260568D01*
X210965000Y-123750324D01*
X122834707Y-123750324D01*
X122969063Y-123615968D01*
X123246488Y-123200773D01*
X123437582Y-122739432D01*
X123535000Y-122249676D01*
X123535000Y-121750324D01*
X123437582Y-121260568D01*
X123246488Y-120799227D01*
X122969063Y-120384032D01*
X122615968Y-120030937D01*
X122200773Y-119753512D01*
X121739432Y-119562418D01*
X121249676Y-119465000D01*
X120750324Y-119465000D01*
X120260568Y-119562418D01*
X119799227Y-119753512D01*
X119384032Y-120030937D01*
X119030937Y-120384032D01*
X118753512Y-120799227D01*
X118562418Y-121260568D01*
X118465000Y-121750324D01*
X100660000Y-121750324D01*
X100660000Y-104250324D01*
X154965000Y-104250324D01*
X154965000Y-104749676D01*
X155062418Y-105239432D01*
X155253512Y-105700773D01*
X155530937Y-106115968D01*
X155884032Y-106469063D01*
X156299227Y-106746488D01*
X156760568Y-106937582D01*
X157250324Y-107035000D01*
X157749676Y-107035000D01*
X158239432Y-106937582D01*
X158700773Y-106746488D01*
X159115968Y-106469063D01*
X159469063Y-106115968D01*
X159746488Y-105700773D01*
X159937582Y-105239432D01*
X160035000Y-104749676D01*
X160035000Y-104250324D01*
X159937582Y-103760568D01*
X159746488Y-103299227D01*
X159469063Y-102884032D01*
X159115968Y-102530937D01*
X158700773Y-102253512D01*
X158239432Y-102062418D01*
X157749676Y-101965000D01*
X157250324Y-101965000D01*
X156760568Y-102062418D01*
X156299227Y-102253512D01*
X155884032Y-102530937D01*
X155530937Y-102884032D01*
X155253512Y-103299227D01*
X155062418Y-103760568D01*
X154965000Y-104250324D01*
X100660000Y-104250324D01*
X100660000Y-67276349D01*
X117903256Y-67276349D01*
X118107362Y-67632867D01*
X118550223Y-67863575D01*
X119029583Y-68003452D01*
X119527021Y-68047123D01*
X120023422Y-67992909D01*
X120499707Y-67842894D01*
X120892638Y-67632867D01*
X121096744Y-67276349D01*
X119500000Y-65679605D01*
X117903256Y-67276349D01*
X100660000Y-67276349D01*
X100660000Y-65527021D01*
X116952877Y-65527021D01*
X117007091Y-66023422D01*
X117157106Y-66499707D01*
X117367133Y-66892638D01*
X117723651Y-67096744D01*
X119320395Y-65500000D01*
X119679605Y-65500000D01*
X121276349Y-67096744D01*
X121632867Y-66892638D01*
X121863575Y-66449777D01*
X122003452Y-65970417D01*
X122047123Y-65472979D01*
X122022806Y-65250324D01*
X173965000Y-65250324D01*
X173965000Y-65749676D01*
X174062418Y-66239432D01*
X174253512Y-66700773D01*
X174530937Y-67115968D01*
X174884032Y-67469063D01*
X175299227Y-67746488D01*
X175760568Y-67937582D01*
X176250324Y-68035000D01*
X176749676Y-68035000D01*
X177239432Y-67937582D01*
X177700773Y-67746488D01*
X178115968Y-67469063D01*
X178469063Y-67115968D01*
X178746488Y-66700773D01*
X178937582Y-66239432D01*
X179035000Y-65749676D01*
X179035000Y-65250324D01*
X178937582Y-64760568D01*
X178746488Y-64299227D01*
X178469063Y-63884032D01*
X178115968Y-63530937D01*
X177700773Y-63253512D01*
X177239432Y-63062418D01*
X176749676Y-62965000D01*
X176250324Y-62965000D01*
X175760568Y-63062418D01*
X175299227Y-63253512D01*
X174884032Y-63530937D01*
X174530937Y-63884032D01*
X174253512Y-64299227D01*
X174062418Y-64760568D01*
X173965000Y-65250324D01*
X122022806Y-65250324D01*
X121992909Y-64976578D01*
X121842894Y-64500293D01*
X121632867Y-64107362D01*
X121276349Y-63903256D01*
X119679605Y-65500000D01*
X119320395Y-65500000D01*
X117723651Y-63903256D01*
X117367133Y-64107362D01*
X117136425Y-64550223D01*
X116996548Y-65029583D01*
X116952877Y-65527021D01*
X100660000Y-65527021D01*
X100660000Y-63723651D01*
X117903256Y-63723651D01*
X119500000Y-65320395D01*
X121096744Y-63723651D01*
X120892638Y-63367133D01*
X120449777Y-63136425D01*
X119970417Y-62996548D01*
X119472979Y-62952877D01*
X118976578Y-63007091D01*
X118500293Y-63157106D01*
X118107362Y-63367133D01*
X117903256Y-63723651D01*
X100660000Y-63723651D01*
X100660000Y-62032279D01*
X100688625Y-61740341D01*
X100764035Y-61490571D01*
X100886522Y-61260208D01*
X101051422Y-61058020D01*
X101252450Y-60891714D01*
X101481954Y-60767622D01*
X101731195Y-60690469D01*
X102021088Y-60660000D01*
X222967721Y-60660000D01*
X223259659Y-60688625D01*
M02*
