M48
; DRILL file {KiCad (5.1.2)-2} date 2020/04/16 23:40:13
; FORMAT={-:-/ absolute / metric / decimal}
; #@! TF.CreationDate,2020-04-16T23:40:13+09:00
; #@! TF.GenerationSoftware,Kicad,Pcbnew,(5.1.2)-2
; #@! TF.FileFunction,Plated,1,2,PTH
FMAT,2
METRIC
T1C0.400
T2C0.813
T3C1.000
T4C1.300
T5C2.200
%
G90
G05
T1
X105.75Y-79.75
X106.0Y-66.5
X106.945Y-85.055
X106.945Y-119.055
X107.0Y-68.0
X107.0Y-102.0
X107.5Y-64.0
X107.812Y-80.812
X107.812Y-114.812
X110.975Y-81.525
X111.0Y-115.0
X111.175Y-64.0
X114.25Y-75.75
X114.25Y-92.75
X114.75Y-109.75
X115.0Y-126.5
X118.812Y-98.188
X118.845Y-83.155
X119.0Y-113.5
X119.161Y-66.839
X120.345Y-118.655
X120.5Y-98.0
X121.0Y-125.0
X121.275Y-100.725
X126.0Y-68.5
X126.1Y-86.1
X126.1Y-103.1
X128.47Y-121.97
X132.721Y-93.721
X133.75Y-76.75
X133.75Y-110.75
X136.0Y-65.0
X136.925Y-130.075
X137.812Y-81.812
X137.812Y-98.812
X139.3Y-117.2
X140.0Y-75.5
X140.0Y-92.5
X140.275Y-65.275
X140.275Y-67.725
X140.275Y-82.725
X140.275Y-84.725
X140.275Y-99.725
X140.275Y-101.725
X140.5Y-109.5
X142.775Y-120.775
X143.0Y-85.5
X143.0Y-128.5
X145.0Y-63.5
X145.1Y-81.1
X145.1Y-98.1
X145.1Y-103.6
X150.0Y-123.5
X151.971Y-88.471
X152.5Y-71.5
X154.8Y-105.7
X155.8Y-76.2
X156.0Y-61.0
X156.25Y-131.25
X156.812Y-94.188
X158.345Y-97.655
X158.5Y-64.0
X159.275Y-77.775
X159.275Y-80.725
X159.275Y-94.725
X159.5Y-87.5
X159.875Y-69.875
X160.0Y-60.0
X160.2Y-118.7
X160.5Y-63.0
X161.5Y-85.0
X163.5Y-130.0
X163.775Y-122.275
X164.0Y-60.0
X164.0Y-71.0
X164.0Y-117.0
X164.1Y-88.1
X164.275Y-104.775
X169.0Y-123.5
X171.75Y-95.75
X171.75Y-112.75
X172.0Y-78.5
X174.588Y-66.087
X174.905Y-102.095
X176.2Y-83.2
X176.5Y-131.0
X177.5Y-71.0
X178.0Y-77.5
X178.0Y-94.5
X178.0Y-111.5
X178.275Y-86.725
X178.275Y-101.275
X178.275Y-103.775
X178.8Y-118.7
X178.98Y-67.02
X182.5Y-130.0
X183.0Y-71.0
X183.0Y-122.0
X183.1Y-104.4
X183.15Y-87.42
X189.402Y-124.098
X189.971Y-112.971
X190.75Y-96.25
X191.999Y-79.499
X193.0Y-84.5
X193.725Y-100.775
X194.5Y-67.5
X195.495Y-132.495
X196.5Y-67.5
X196.5Y-88.5
X197.0Y-71.5
X197.0Y-78.0
X197.0Y-95.0
X197.0Y-112.0
X197.275Y-85.225
X197.275Y-103.275
X198.0Y-115.5
X199.848Y-92.0
X199.965Y-80.51
X201.924Y-121.424
X202.5Y-106.5
X203.0Y-133.5
X204.722Y-124.222
X209.119Y-128.619
X210.312Y-96.312
X210.312Y-98.688
X210.5Y-114.0
X211.688Y-96.688
X212.725Y-101.225
X213.837Y-98.662
X215.05Y-103.05
X216.0Y-113.0
X216.49Y-138.01
X217.45Y-95.95
X217.45Y-97.95
X219.289Y-126.289
X220.275Y-96.5
X220.275Y-98.5
X220.5Y-94.0
X221.175Y-86.0
X221.206Y-138.454
X223.722Y-129.278
T2
X202.11Y-64.292
X202.11Y-66.832
X202.11Y-69.372
X202.11Y-71.912
X202.11Y-74.452
X202.11Y-76.992
X202.11Y-79.532
X202.11Y-82.072
X202.11Y-84.612
X202.11Y-87.152
X202.11Y-89.692
X202.11Y-92.232
X203.436Y-63.022
X203.436Y-65.562
X203.436Y-68.102
X203.436Y-70.642
X203.436Y-73.182
X203.436Y-75.722
X203.436Y-78.262
X203.436Y-80.802
X203.436Y-83.342
X203.436Y-85.882
X203.436Y-88.422
X203.436Y-90.962
X217.35Y-64.292
X217.35Y-66.832
X217.35Y-69.372
X217.35Y-71.912
X217.35Y-74.452
X217.35Y-76.992
X217.35Y-79.532
X217.35Y-82.072
X217.35Y-84.612
X217.35Y-87.152
X217.35Y-89.692
X217.35Y-92.232
X218.656Y-63.022
X218.656Y-65.562
X218.656Y-68.102
X218.656Y-70.642
X218.656Y-73.182
X218.656Y-75.722
X218.656Y-78.262
X218.656Y-80.802
X218.656Y-83.342
X218.656Y-85.882
X218.656Y-88.422
X218.656Y-90.962
T4
X226.5Y-101.75
X226.5Y-108.25
X227.0Y-83.25
X227.0Y-89.75
X226.5Y-111.25
X226.5Y-117.75
T5
X225.5Y-77.5
X203.5Y-96.5
X225.5Y-96.5
T3
G00X221.15Y-63.55
M15
G01X221.15Y-64.05
M16
G05
G00X221.15Y-66.55
M15
G01X221.15Y-67.05
M16
G05
G00X221.15Y-70.55
M15
G01X221.15Y-71.05
M16
G05
G00X222.9Y-72.05
M15
G01X222.9Y-72.55
M16
G05
G00X225.35Y-72.05
M15
G01X225.35Y-72.55
M16
G05
G00X227.1Y-63.55
M15
G01X227.1Y-64.05
M16
G05
G00X227.1Y-66.55
M15
G01X227.1Y-67.05
M16
G05
G00X227.1Y-70.55
M15
G01X227.1Y-71.05
M16
G05
T0
M30
