G04 #@! TF.GenerationSoftware,KiCad,Pcbnew,(5.1.2)-2*
G04 #@! TF.CreationDate,2020-04-16T23:38:51+09:00*
G04 #@! TF.ProjectId,17mm 2020 4 8 vol2,31376d6d-2032-4303-9230-203420382076,rev?*
G04 #@! TF.SameCoordinates,Original*
G04 #@! TF.FileFunction,Legend,Top*
G04 #@! TF.FilePolarity,Positive*
%FSLAX46Y46*%
G04 Gerber Fmt 4.6, Leading zero omitted, Abs format (unit mm)*
G04 Created by KiCad (PCBNEW (5.1.2)-2) date 2020-04-16 23:38:51*
%MOMM*%
%LPD*%
G04 APERTURE LIST*
%ADD10C,0.150000*%
%ADD11C,0.125000*%
G04 APERTURE END LIST*
D10*
X197167860Y-137348800D02*
X196998515Y-138028007D01*
X197179957Y-137300285D02*
G75*
G02X198707246Y-136217610I1304982J-222307D01*
G01*
X198924969Y-131500153D02*
G75*
G02X196100398Y-133032340I-2178379J646192D01*
G01*
X203490211Y-132638396D02*
X202401627Y-137107804D01*
X193667401Y-132456644D02*
X192554560Y-136920005D01*
X198708456Y-136212758D02*
X202371322Y-137126014D01*
X198935869Y-131477106D02*
X203496259Y-132614138D01*
X193697706Y-132438435D02*
X196171961Y-133055336D01*
X192572770Y-136950310D02*
X196987615Y-138051055D01*
X199403754Y-129228504D02*
G75*
G03X197665698Y-126857604I-2054478J316422D01*
G01*
X203868387Y-126219208D02*
G75*
G03X202127418Y-123843459I-2058359J317390D01*
G01*
X192802058Y-125593432D02*
X197690923Y-126859771D01*
X192813186Y-125548798D02*
X193758617Y-121756883D01*
X193758617Y-121756883D02*
X202127418Y-123843459D01*
X203862125Y-126289789D02*
X202907743Y-130117606D01*
X202905566Y-130126339D02*
X199402798Y-129253001D01*
X105800000Y-64750000D02*
X111200000Y-64750000D01*
X111200000Y-63250000D02*
X105800000Y-63250000D01*
X105800000Y-63250000D02*
X105800000Y-64750000D01*
X111200000Y-63250000D02*
X111200000Y-64750000D01*
X109000000Y-63500000D02*
X109000000Y-64500000D01*
X109000000Y-64500000D02*
X108100000Y-64000000D01*
X108100000Y-64000000D02*
X109000000Y-63500000D01*
X108000000Y-63500000D02*
X108000000Y-64500000D01*
X105800000Y-81750000D02*
X111200000Y-81750000D01*
X111200000Y-80250000D02*
X105800000Y-80250000D01*
X105800000Y-80250000D02*
X105800000Y-81750000D01*
X111200000Y-80250000D02*
X111200000Y-81750000D01*
X109000000Y-80500000D02*
X109000000Y-81500000D01*
X109000000Y-81500000D02*
X108100000Y-81000000D01*
X108100000Y-81000000D02*
X109000000Y-80500000D01*
X108000000Y-80500000D02*
X108000000Y-81500000D01*
X119000000Y-97500000D02*
X119000000Y-98500000D01*
X119100000Y-98000000D02*
X120000000Y-97500000D01*
X120000000Y-98500000D02*
X119100000Y-98000000D01*
X120000000Y-97500000D02*
X120000000Y-98500000D01*
X122200000Y-97250000D02*
X122200000Y-98750000D01*
X116800000Y-97250000D02*
X116800000Y-98750000D01*
X122200000Y-97250000D02*
X116800000Y-97250000D01*
X116800000Y-98750000D02*
X122200000Y-98750000D01*
X108000000Y-114500000D02*
X108000000Y-115500000D01*
X108100000Y-115000000D02*
X109000000Y-114500000D01*
X109000000Y-115500000D02*
X108100000Y-115000000D01*
X109000000Y-114500000D02*
X109000000Y-115500000D01*
X111200000Y-114250000D02*
X111200000Y-115750000D01*
X105800000Y-114250000D02*
X105800000Y-115750000D01*
X111200000Y-114250000D02*
X105800000Y-114250000D01*
X105800000Y-115750000D02*
X111200000Y-115750000D01*
X135800000Y-65750000D02*
X141200000Y-65750000D01*
X141200000Y-64250000D02*
X135800000Y-64250000D01*
X135800000Y-64250000D02*
X135800000Y-65750000D01*
X141200000Y-64250000D02*
X141200000Y-65750000D01*
X139000000Y-64500000D02*
X139000000Y-65500000D01*
X139000000Y-65500000D02*
X138100000Y-65000000D01*
X138100000Y-65000000D02*
X139000000Y-64500000D01*
X138000000Y-64500000D02*
X138000000Y-65500000D01*
X135800000Y-82750000D02*
X141200000Y-82750000D01*
X141200000Y-81250000D02*
X135800000Y-81250000D01*
X135800000Y-81250000D02*
X135800000Y-82750000D01*
X141200000Y-81250000D02*
X141200000Y-82750000D01*
X139000000Y-81500000D02*
X139000000Y-82500000D01*
X139000000Y-82500000D02*
X138100000Y-82000000D01*
X138100000Y-82000000D02*
X139000000Y-81500000D01*
X138000000Y-81500000D02*
X138000000Y-82500000D01*
X138000000Y-98500000D02*
X138000000Y-99500000D01*
X138100000Y-99000000D02*
X139000000Y-98500000D01*
X139000000Y-99500000D02*
X138100000Y-99000000D01*
X139000000Y-98500000D02*
X139000000Y-99500000D01*
X141200000Y-98250000D02*
X141200000Y-99750000D01*
X135800000Y-98250000D02*
X135800000Y-99750000D01*
X141200000Y-98250000D02*
X135800000Y-98250000D01*
X135800000Y-99750000D02*
X141200000Y-99750000D01*
X140500000Y-117500000D02*
X140500000Y-118500000D01*
X140600000Y-118000000D02*
X141500000Y-117500000D01*
X141500000Y-118500000D02*
X140600000Y-118000000D01*
X141500000Y-117500000D02*
X141500000Y-118500000D01*
X143700000Y-117250000D02*
X143700000Y-118750000D01*
X138300000Y-117250000D02*
X138300000Y-118750000D01*
X143700000Y-117250000D02*
X138300000Y-117250000D01*
X138300000Y-118750000D02*
X143700000Y-118750000D01*
X157000000Y-59500000D02*
X157000000Y-60500000D01*
X157100000Y-60000000D02*
X158000000Y-59500000D01*
X158000000Y-60500000D02*
X157100000Y-60000000D01*
X158000000Y-59500000D02*
X158000000Y-60500000D01*
X160200000Y-59250000D02*
X160200000Y-60750000D01*
X154800000Y-59250000D02*
X154800000Y-60750000D01*
X160200000Y-59250000D02*
X154800000Y-59250000D01*
X154800000Y-60750000D02*
X160200000Y-60750000D01*
X157000000Y-76500000D02*
X157000000Y-77500000D01*
X157100000Y-77000000D02*
X158000000Y-76500000D01*
X158000000Y-77500000D02*
X157100000Y-77000000D01*
X158000000Y-76500000D02*
X158000000Y-77500000D01*
X160200000Y-76250000D02*
X160200000Y-77750000D01*
X154800000Y-76250000D02*
X154800000Y-77750000D01*
X160200000Y-76250000D02*
X154800000Y-76250000D01*
X154800000Y-77750000D02*
X160200000Y-77750000D01*
X154800000Y-94750000D02*
X160200000Y-94750000D01*
X160200000Y-93250000D02*
X154800000Y-93250000D01*
X154800000Y-93250000D02*
X154800000Y-94750000D01*
X160200000Y-93250000D02*
X160200000Y-94750000D01*
X158000000Y-93500000D02*
X158000000Y-94500000D01*
X158000000Y-94500000D02*
X157100000Y-94000000D01*
X157100000Y-94000000D02*
X158000000Y-93500000D01*
X157000000Y-93500000D02*
X157000000Y-94500000D01*
X159300000Y-120250000D02*
X164700000Y-120250000D01*
X164700000Y-118750000D02*
X159300000Y-118750000D01*
X159300000Y-118750000D02*
X159300000Y-120250000D01*
X164700000Y-118750000D02*
X164700000Y-120250000D01*
X162500000Y-119000000D02*
X162500000Y-120000000D01*
X162500000Y-120000000D02*
X161600000Y-119500000D01*
X161600000Y-119500000D02*
X162500000Y-119000000D01*
X161500000Y-119000000D02*
X161500000Y-120000000D01*
X176000000Y-66500000D02*
X176000000Y-67500000D01*
X176100000Y-67000000D02*
X177000000Y-66500000D01*
X177000000Y-67500000D02*
X176100000Y-67000000D01*
X177000000Y-66500000D02*
X177000000Y-67500000D01*
X179200000Y-66250000D02*
X179200000Y-67750000D01*
X173800000Y-66250000D02*
X173800000Y-67750000D01*
X179200000Y-66250000D02*
X173800000Y-66250000D01*
X173800000Y-67750000D02*
X179200000Y-67750000D01*
X173800000Y-84750000D02*
X179200000Y-84750000D01*
X179200000Y-83250000D02*
X173800000Y-83250000D01*
X173800000Y-83250000D02*
X173800000Y-84750000D01*
X179200000Y-83250000D02*
X179200000Y-84750000D01*
X177000000Y-83500000D02*
X177000000Y-84500000D01*
X177000000Y-84500000D02*
X176100000Y-84000000D01*
X176100000Y-84000000D02*
X177000000Y-83500000D01*
X176000000Y-83500000D02*
X176000000Y-84500000D01*
X176000000Y-100500000D02*
X176000000Y-101500000D01*
X176100000Y-101000000D02*
X177000000Y-100500000D01*
X177000000Y-101500000D02*
X176100000Y-101000000D01*
X177000000Y-100500000D02*
X177000000Y-101500000D01*
X179200000Y-100250000D02*
X179200000Y-101750000D01*
X173800000Y-100250000D02*
X173800000Y-101750000D01*
X179200000Y-100250000D02*
X173800000Y-100250000D01*
X173800000Y-101750000D02*
X179200000Y-101750000D01*
X180725000Y-119000000D02*
X180725000Y-120000000D01*
X180825000Y-119500000D02*
X181725000Y-119000000D01*
X181725000Y-120000000D02*
X180825000Y-119500000D01*
X181725000Y-119000000D02*
X181725000Y-120000000D01*
X183925000Y-118750000D02*
X183925000Y-120250000D01*
X178525000Y-118750000D02*
X178525000Y-120250000D01*
X183925000Y-118750000D02*
X178525000Y-118750000D01*
X178525000Y-120250000D02*
X183925000Y-120250000D01*
X195000000Y-67000000D02*
X195000000Y-68000000D01*
X195100000Y-67500000D02*
X196000000Y-67000000D01*
X196000000Y-68000000D02*
X195100000Y-67500000D01*
X196000000Y-67000000D02*
X196000000Y-68000000D01*
X198200000Y-66750000D02*
X198200000Y-68250000D01*
X192800000Y-66750000D02*
X192800000Y-68250000D01*
X198200000Y-66750000D02*
X192800000Y-66750000D01*
X192800000Y-68250000D02*
X198200000Y-68250000D01*
X195000000Y-84000000D02*
X195000000Y-85000000D01*
X195100000Y-84500000D02*
X196000000Y-84000000D01*
X196000000Y-85000000D02*
X195100000Y-84500000D01*
X196000000Y-84000000D02*
X196000000Y-85000000D01*
X198200000Y-83750000D02*
X198200000Y-85250000D01*
X192800000Y-83750000D02*
X192800000Y-85250000D01*
X198200000Y-83750000D02*
X192800000Y-83750000D01*
X192800000Y-85250000D02*
X198200000Y-85250000D01*
X192800000Y-102250000D02*
X198200000Y-102250000D01*
X198200000Y-100750000D02*
X192800000Y-100750000D01*
X192800000Y-100750000D02*
X192800000Y-102250000D01*
X198200000Y-100750000D02*
X198200000Y-102250000D01*
X196000000Y-101000000D02*
X196000000Y-102000000D01*
X196000000Y-102000000D02*
X195100000Y-101500000D01*
X195100000Y-101500000D02*
X196000000Y-101000000D01*
X195000000Y-101000000D02*
X195000000Y-102000000D01*
X200198760Y-122574533D02*
X205438357Y-123880911D01*
X205801240Y-122425467D02*
X200561643Y-121119089D01*
X200561643Y-121119089D02*
X200198760Y-122574533D01*
X205801240Y-122425467D02*
X205438357Y-123880911D01*
X203606109Y-122135813D02*
X203364187Y-123106109D01*
X203364187Y-123106109D02*
X202611882Y-122403231D01*
X202611882Y-122403231D02*
X203606109Y-122135813D01*
X202635813Y-121893891D02*
X202393891Y-122864187D01*
X215800000Y-97250000D02*
X221200000Y-97250000D01*
X221200000Y-95750000D02*
X215800000Y-95750000D01*
X215800000Y-95750000D02*
X215800000Y-97250000D01*
X221200000Y-95750000D02*
X221200000Y-97250000D01*
X219000000Y-96000000D02*
X219000000Y-97000000D01*
X219000000Y-97000000D02*
X218100000Y-96500000D01*
X218100000Y-96500000D02*
X219000000Y-96000000D01*
X218000000Y-96000000D02*
X218000000Y-97000000D01*
X210500000Y-96000000D02*
X210500000Y-97000000D01*
X210600000Y-96500000D02*
X211500000Y-96000000D01*
X211500000Y-97000000D02*
X210600000Y-96500000D01*
X211500000Y-96000000D02*
X211500000Y-97000000D01*
X213700000Y-95750000D02*
X213700000Y-97250000D01*
X208300000Y-95750000D02*
X208300000Y-97250000D01*
X213700000Y-95750000D02*
X208300000Y-95750000D01*
X208300000Y-97250000D02*
X213700000Y-97250000D01*
X211800000Y-102750000D02*
X217200000Y-102750000D01*
X217200000Y-101250000D02*
X211800000Y-101250000D01*
X211800000Y-101250000D02*
X211800000Y-102750000D01*
X217200000Y-101250000D02*
X217200000Y-102750000D01*
X215000000Y-101500000D02*
X215000000Y-102500000D01*
X215000000Y-102500000D02*
X214100000Y-102000000D01*
X214100000Y-102000000D02*
X215000000Y-101500000D01*
X214000000Y-101500000D02*
X214000000Y-102500000D01*
X219198760Y-127574533D02*
X224438357Y-128880911D01*
X224801240Y-127425467D02*
X219561643Y-126119089D01*
X219561643Y-126119089D02*
X219198760Y-127574533D01*
X224801240Y-127425467D02*
X224438357Y-128880911D01*
X222606109Y-127135813D02*
X222364187Y-128106109D01*
X222364187Y-128106109D02*
X221611882Y-127403231D01*
X221611882Y-127403231D02*
X222606109Y-127135813D01*
X221635813Y-126893891D02*
X221393891Y-127864187D01*
X218000000Y-98000000D02*
X218000000Y-99000000D01*
X218100000Y-98500000D02*
X219000000Y-98000000D01*
X219000000Y-99000000D02*
X218100000Y-98500000D01*
X219000000Y-98000000D02*
X219000000Y-99000000D01*
X221200000Y-97750000D02*
X221200000Y-99250000D01*
X215800000Y-97750000D02*
X215800000Y-99250000D01*
X221200000Y-97750000D02*
X215800000Y-97750000D01*
X215800000Y-99250000D02*
X221200000Y-99250000D01*
X208300000Y-99250000D02*
X213700000Y-99250000D01*
X213700000Y-97750000D02*
X208300000Y-97750000D01*
X208300000Y-97750000D02*
X208300000Y-99250000D01*
X213700000Y-97750000D02*
X213700000Y-99250000D01*
X211500000Y-98000000D02*
X211500000Y-99000000D01*
X211500000Y-99000000D02*
X210600000Y-98500000D01*
X210600000Y-98500000D02*
X211500000Y-98000000D01*
X210500000Y-98000000D02*
X210500000Y-99000000D01*
X222000000Y-60500000D02*
X228000000Y-60500000D01*
X228000000Y-60500000D02*
X228000000Y-72500000D01*
X228000000Y-72500000D02*
X222000000Y-72500000D01*
X222000000Y-72500000D02*
X222000000Y-60500000D01*
X228750000Y-89500000D02*
X228750000Y-83500000D01*
X228750000Y-83500000D02*
X228500000Y-83500000D01*
X228750000Y-89500000D02*
X228500000Y-89500000D01*
X225250000Y-89500000D02*
X225500000Y-89500000D01*
X225250000Y-89500000D02*
X225250000Y-83500000D01*
X225250000Y-83500000D02*
X225500000Y-83500000D01*
X116280000Y-79500000D02*
X116280000Y-80200000D01*
X116280000Y-79450000D02*
G75*
G02X117500000Y-78030000I1320000J100000D01*
G01*
X116570000Y-73400000D02*
G75*
G02X114200000Y-75570000I-2270000J100000D01*
G01*
X121275000Y-73400000D02*
X121300000Y-78000000D01*
X111700000Y-75600000D02*
X111700000Y-80200000D01*
X117500000Y-78025000D02*
X121275000Y-78025000D01*
X116575000Y-73375000D02*
X121275000Y-73375000D01*
X111725000Y-75575000D02*
X114275000Y-75575000D01*
X111725000Y-80225000D02*
X116275000Y-80225000D01*
X116485000Y-71080000D02*
G75*
G03X114225000Y-69200000I-2070000J-190000D01*
G01*
X120089000Y-67080000D02*
G75*
G03X117825000Y-65196000I-2074000J-190000D01*
G01*
X109200000Y-69150000D02*
X114250000Y-69196000D01*
X109200000Y-69104000D02*
X109200000Y-65196000D01*
X109200000Y-65196000D02*
X117825000Y-65196000D01*
X120100000Y-67150000D02*
X120100000Y-71095000D01*
X120100000Y-71104000D02*
X116490000Y-71104000D01*
X116280000Y-96500000D02*
X116280000Y-97200000D01*
X116280000Y-96450000D02*
G75*
G02X117500000Y-95030000I1320000J100000D01*
G01*
X116570000Y-90400000D02*
G75*
G02X114200000Y-92570000I-2270000J100000D01*
G01*
X121275000Y-90400000D02*
X121300000Y-95000000D01*
X111700000Y-92600000D02*
X111700000Y-97200000D01*
X117500000Y-95025000D02*
X121275000Y-95025000D01*
X116575000Y-90375000D02*
X121275000Y-90375000D01*
X111725000Y-92575000D02*
X114275000Y-92575000D01*
X111725000Y-97225000D02*
X116275000Y-97225000D01*
X116485000Y-88080000D02*
G75*
G03X114225000Y-86200000I-2070000J-190000D01*
G01*
X120089000Y-84080000D02*
G75*
G03X117825000Y-82196000I-2074000J-190000D01*
G01*
X109200000Y-86150000D02*
X114250000Y-86196000D01*
X109200000Y-86104000D02*
X109200000Y-82196000D01*
X109200000Y-82196000D02*
X117825000Y-82196000D01*
X120100000Y-84150000D02*
X120100000Y-88095000D01*
X120100000Y-88104000D02*
X116490000Y-88104000D01*
X120100000Y-105104000D02*
X116490000Y-105104000D01*
X120100000Y-101150000D02*
X120100000Y-105095000D01*
X109200000Y-99196000D02*
X117825000Y-99196000D01*
X109200000Y-103104000D02*
X109200000Y-99196000D01*
X109200000Y-103150000D02*
X114250000Y-103196000D01*
X120089000Y-101080000D02*
G75*
G03X117825000Y-99196000I-2074000J-190000D01*
G01*
X116485000Y-105080000D02*
G75*
G03X114225000Y-103200000I-2070000J-190000D01*
G01*
X111725000Y-114225000D02*
X116275000Y-114225000D01*
X111725000Y-109575000D02*
X114275000Y-109575000D01*
X116575000Y-107375000D02*
X121275000Y-107375000D01*
X117500000Y-112025000D02*
X121275000Y-112025000D01*
X111700000Y-109600000D02*
X111700000Y-114200000D01*
X121275000Y-107400000D02*
X121300000Y-112000000D01*
X116570000Y-107400000D02*
G75*
G02X114200000Y-109570000I-2270000J100000D01*
G01*
X116280000Y-113450000D02*
G75*
G02X117500000Y-112030000I1320000J100000D01*
G01*
X116280000Y-113500000D02*
X116280000Y-114200000D01*
X116280000Y-130500000D02*
X116280000Y-131200000D01*
X116280000Y-130450000D02*
G75*
G02X117500000Y-129030000I1320000J100000D01*
G01*
X116570000Y-124400000D02*
G75*
G02X114200000Y-126570000I-2270000J100000D01*
G01*
X121275000Y-124400000D02*
X121300000Y-129000000D01*
X111700000Y-126600000D02*
X111700000Y-131200000D01*
X117500000Y-129025000D02*
X121275000Y-129025000D01*
X116575000Y-124375000D02*
X121275000Y-124375000D01*
X111725000Y-126575000D02*
X114275000Y-126575000D01*
X111725000Y-131225000D02*
X116275000Y-131225000D01*
X116485000Y-122080000D02*
G75*
G03X114225000Y-120200000I-2070000J-190000D01*
G01*
X120089000Y-118080000D02*
G75*
G03X117825000Y-116196000I-2074000J-190000D01*
G01*
X109200000Y-120150000D02*
X114250000Y-120196000D01*
X109200000Y-120104000D02*
X109200000Y-116196000D01*
X109200000Y-116196000D02*
X117825000Y-116196000D01*
X120100000Y-118150000D02*
X120100000Y-122095000D01*
X120100000Y-122104000D02*
X116490000Y-122104000D01*
X139100000Y-72104000D02*
X135490000Y-72104000D01*
X139100000Y-68150000D02*
X139100000Y-72095000D01*
X128200000Y-66196000D02*
X136825000Y-66196000D01*
X128200000Y-70104000D02*
X128200000Y-66196000D01*
X128200000Y-70150000D02*
X133250000Y-70196000D01*
X139089000Y-68080000D02*
G75*
G03X136825000Y-66196000I-2074000J-190000D01*
G01*
X135485000Y-72080000D02*
G75*
G03X133225000Y-70200000I-2070000J-190000D01*
G01*
X130725000Y-81225000D02*
X135275000Y-81225000D01*
X130725000Y-76575000D02*
X133275000Y-76575000D01*
X135575000Y-74375000D02*
X140275000Y-74375000D01*
X136500000Y-79025000D02*
X140275000Y-79025000D01*
X130700000Y-76600000D02*
X130700000Y-81200000D01*
X140275000Y-74400000D02*
X140300000Y-79000000D01*
X135570000Y-74400000D02*
G75*
G02X133200000Y-76570000I-2270000J100000D01*
G01*
X135280000Y-80450000D02*
G75*
G02X136500000Y-79030000I1320000J100000D01*
G01*
X135280000Y-80500000D02*
X135280000Y-81200000D01*
X135280000Y-97500000D02*
X135280000Y-98200000D01*
X135280000Y-97450000D02*
G75*
G02X136500000Y-96030000I1320000J100000D01*
G01*
X135570000Y-91400000D02*
G75*
G02X133200000Y-93570000I-2270000J100000D01*
G01*
X140275000Y-91400000D02*
X140300000Y-96000000D01*
X130700000Y-93600000D02*
X130700000Y-98200000D01*
X136500000Y-96025000D02*
X140275000Y-96025000D01*
X135575000Y-91375000D02*
X140275000Y-91375000D01*
X130725000Y-93575000D02*
X133275000Y-93575000D01*
X130725000Y-98225000D02*
X135275000Y-98225000D01*
X135485000Y-89080000D02*
G75*
G03X133225000Y-87200000I-2070000J-190000D01*
G01*
X139089000Y-85080000D02*
G75*
G03X136825000Y-83196000I-2074000J-190000D01*
G01*
X128200000Y-87150000D02*
X133250000Y-87196000D01*
X128200000Y-87104000D02*
X128200000Y-83196000D01*
X128200000Y-83196000D02*
X136825000Y-83196000D01*
X139100000Y-85150000D02*
X139100000Y-89095000D01*
X139100000Y-89104000D02*
X135490000Y-89104000D01*
X139100000Y-106104000D02*
X135490000Y-106104000D01*
X139100000Y-102150000D02*
X139100000Y-106095000D01*
X128200000Y-100196000D02*
X136825000Y-100196000D01*
X128200000Y-104104000D02*
X128200000Y-100196000D01*
X128200000Y-104150000D02*
X133250000Y-104196000D01*
X139089000Y-102080000D02*
G75*
G03X136825000Y-100196000I-2074000J-190000D01*
G01*
X135485000Y-106080000D02*
G75*
G03X133225000Y-104200000I-2070000J-190000D01*
G01*
X130725000Y-115225000D02*
X135275000Y-115225000D01*
X130725000Y-110575000D02*
X133275000Y-110575000D01*
X135575000Y-108375000D02*
X140275000Y-108375000D01*
X136500000Y-113025000D02*
X140275000Y-113025000D01*
X130700000Y-110600000D02*
X130700000Y-115200000D01*
X140275000Y-108400000D02*
X140300000Y-113000000D01*
X135570000Y-108400000D02*
G75*
G02X133200000Y-110570000I-2270000J100000D01*
G01*
X135280000Y-114450000D02*
G75*
G02X136500000Y-113030000I1320000J100000D01*
G01*
X135280000Y-114500000D02*
X135280000Y-115200000D01*
X137650000Y-133500000D02*
X137650000Y-134200000D01*
X137650000Y-133450000D02*
G75*
G02X138870000Y-132030000I1320000J100000D01*
G01*
X137940000Y-127400000D02*
G75*
G02X135570000Y-129570000I-2270000J100000D01*
G01*
X142645000Y-127400000D02*
X142670000Y-132000000D01*
X133070000Y-129600000D02*
X133070000Y-134200000D01*
X138870000Y-132025000D02*
X142645000Y-132025000D01*
X137945000Y-127375000D02*
X142645000Y-127375000D01*
X133095000Y-129575000D02*
X135645000Y-129575000D01*
X133095000Y-134225000D02*
X137645000Y-134225000D01*
X137855000Y-125080000D02*
G75*
G03X135595000Y-123200000I-2070000J-190000D01*
G01*
X141459000Y-121080000D02*
G75*
G03X139195000Y-119196000I-2074000J-190000D01*
G01*
X130570000Y-123150000D02*
X135620000Y-123196000D01*
X130570000Y-123104000D02*
X130570000Y-119196000D01*
X130570000Y-119196000D02*
X139195000Y-119196000D01*
X141470000Y-121150000D02*
X141470000Y-125095000D01*
X141470000Y-125104000D02*
X137860000Y-125104000D01*
X158100000Y-67104000D02*
X154490000Y-67104000D01*
X158100000Y-63150000D02*
X158100000Y-67095000D01*
X147200000Y-61196000D02*
X155825000Y-61196000D01*
X147200000Y-65104000D02*
X147200000Y-61196000D01*
X147200000Y-65150000D02*
X152250000Y-65196000D01*
X158089000Y-63080000D02*
G75*
G03X155825000Y-61196000I-2074000J-190000D01*
G01*
X154485000Y-67080000D02*
G75*
G03X152225000Y-65200000I-2070000J-190000D01*
G01*
X149725000Y-76225000D02*
X154275000Y-76225000D01*
X149725000Y-71575000D02*
X152275000Y-71575000D01*
X154575000Y-69375000D02*
X159275000Y-69375000D01*
X155500000Y-74025000D02*
X159275000Y-74025000D01*
X149700000Y-71600000D02*
X149700000Y-76200000D01*
X159275000Y-69400000D02*
X159300000Y-74000000D01*
X154570000Y-69400000D02*
G75*
G02X152200000Y-71570000I-2270000J100000D01*
G01*
X154280000Y-75450000D02*
G75*
G02X155500000Y-74030000I1320000J100000D01*
G01*
X154280000Y-75500000D02*
X154280000Y-76200000D01*
X154280000Y-92500000D02*
X154280000Y-93200000D01*
X154280000Y-92450000D02*
G75*
G02X155500000Y-91030000I1320000J100000D01*
G01*
X154570000Y-86400000D02*
G75*
G02X152200000Y-88570000I-2270000J100000D01*
G01*
X159275000Y-86400000D02*
X159300000Y-91000000D01*
X149700000Y-88600000D02*
X149700000Y-93200000D01*
X155500000Y-91025000D02*
X159275000Y-91025000D01*
X154575000Y-86375000D02*
X159275000Y-86375000D01*
X149725000Y-88575000D02*
X152275000Y-88575000D01*
X149725000Y-93225000D02*
X154275000Y-93225000D01*
X154485000Y-84080000D02*
G75*
G03X152225000Y-82200000I-2070000J-190000D01*
G01*
X158089000Y-80080000D02*
G75*
G03X155825000Y-78196000I-2074000J-190000D01*
G01*
X147200000Y-82150000D02*
X152250000Y-82196000D01*
X147200000Y-82104000D02*
X147200000Y-78196000D01*
X147200000Y-78196000D02*
X155825000Y-78196000D01*
X158100000Y-80150000D02*
X158100000Y-84095000D01*
X158100000Y-84104000D02*
X154490000Y-84104000D01*
X158100000Y-101104000D02*
X154490000Y-101104000D01*
X158100000Y-97150000D02*
X158100000Y-101095000D01*
X147200000Y-95196000D02*
X155825000Y-95196000D01*
X147200000Y-99104000D02*
X147200000Y-95196000D01*
X147200000Y-99150000D02*
X152250000Y-99196000D01*
X158089000Y-97080000D02*
G75*
G03X155825000Y-95196000I-2074000J-190000D01*
G01*
X154485000Y-101080000D02*
G75*
G03X152225000Y-99200000I-2070000J-190000D01*
G01*
X149725000Y-110225000D02*
X154275000Y-110225000D01*
X149725000Y-105575000D02*
X152275000Y-105575000D01*
X154575000Y-103375000D02*
X159275000Y-103375000D01*
X155500000Y-108025000D02*
X159275000Y-108025000D01*
X149700000Y-105600000D02*
X149700000Y-110200000D01*
X159275000Y-103400000D02*
X159300000Y-108000000D01*
X154570000Y-103400000D02*
G75*
G02X152200000Y-105570000I-2270000J100000D01*
G01*
X154280000Y-109450000D02*
G75*
G02X155500000Y-108030000I1320000J100000D01*
G01*
X154280000Y-109500000D02*
X154280000Y-110200000D01*
X159030000Y-135000000D02*
X159030000Y-135700000D01*
X159030000Y-134950000D02*
G75*
G02X160250000Y-133530000I1320000J100000D01*
G01*
X159320000Y-128900000D02*
G75*
G02X156950000Y-131070000I-2270000J100000D01*
G01*
X164025000Y-128900000D02*
X164050000Y-133500000D01*
X154450000Y-131100000D02*
X154450000Y-135700000D01*
X160250000Y-133525000D02*
X164025000Y-133525000D01*
X159325000Y-128875000D02*
X164025000Y-128875000D01*
X154475000Y-131075000D02*
X157025000Y-131075000D01*
X154475000Y-135725000D02*
X159025000Y-135725000D01*
X159235000Y-126580000D02*
G75*
G03X156975000Y-124700000I-2070000J-190000D01*
G01*
X162839000Y-122580000D02*
G75*
G03X160575000Y-120696000I-2074000J-190000D01*
G01*
X151950000Y-124650000D02*
X157000000Y-124696000D01*
X151950000Y-124604000D02*
X151950000Y-120696000D01*
X151950000Y-120696000D02*
X160575000Y-120696000D01*
X162850000Y-122650000D02*
X162850000Y-126595000D01*
X162850000Y-126604000D02*
X159240000Y-126604000D01*
X177100000Y-74104000D02*
X173490000Y-74104000D01*
X177100000Y-70150000D02*
X177100000Y-74095000D01*
X166200000Y-68196000D02*
X174825000Y-68196000D01*
X166200000Y-72104000D02*
X166200000Y-68196000D01*
X166200000Y-72150000D02*
X171250000Y-72196000D01*
X177089000Y-70080000D02*
G75*
G03X174825000Y-68196000I-2074000J-190000D01*
G01*
X173485000Y-74080000D02*
G75*
G03X171225000Y-72200000I-2070000J-190000D01*
G01*
X168725000Y-83225000D02*
X173275000Y-83225000D01*
X168725000Y-78575000D02*
X171275000Y-78575000D01*
X173575000Y-76375000D02*
X178275000Y-76375000D01*
X174500000Y-81025000D02*
X178275000Y-81025000D01*
X168700000Y-78600000D02*
X168700000Y-83200000D01*
X178275000Y-76400000D02*
X178300000Y-81000000D01*
X173570000Y-76400000D02*
G75*
G02X171200000Y-78570000I-2270000J100000D01*
G01*
X173280000Y-82450000D02*
G75*
G02X174500000Y-81030000I1320000J100000D01*
G01*
X173280000Y-82500000D02*
X173280000Y-83200000D01*
X173280000Y-99500000D02*
X173280000Y-100200000D01*
X173280000Y-99450000D02*
G75*
G02X174500000Y-98030000I1320000J100000D01*
G01*
X173570000Y-93400000D02*
G75*
G02X171200000Y-95570000I-2270000J100000D01*
G01*
X178275000Y-93400000D02*
X178300000Y-98000000D01*
X168700000Y-95600000D02*
X168700000Y-100200000D01*
X174500000Y-98025000D02*
X178275000Y-98025000D01*
X173575000Y-93375000D02*
X178275000Y-93375000D01*
X168725000Y-95575000D02*
X171275000Y-95575000D01*
X168725000Y-100225000D02*
X173275000Y-100225000D01*
X173485000Y-91080000D02*
G75*
G03X171225000Y-89200000I-2070000J-190000D01*
G01*
X177089000Y-87080000D02*
G75*
G03X174825000Y-85196000I-2074000J-190000D01*
G01*
X166200000Y-89150000D02*
X171250000Y-89196000D01*
X166200000Y-89104000D02*
X166200000Y-85196000D01*
X166200000Y-85196000D02*
X174825000Y-85196000D01*
X177100000Y-87150000D02*
X177100000Y-91095000D01*
X177100000Y-91104000D02*
X173490000Y-91104000D01*
X177100000Y-108104000D02*
X173490000Y-108104000D01*
X177100000Y-104150000D02*
X177100000Y-108095000D01*
X166200000Y-102196000D02*
X174825000Y-102196000D01*
X166200000Y-106104000D02*
X166200000Y-102196000D01*
X166200000Y-106150000D02*
X171250000Y-106196000D01*
X177089000Y-104080000D02*
G75*
G03X174825000Y-102196000I-2074000J-190000D01*
G01*
X173485000Y-108080000D02*
G75*
G03X171225000Y-106200000I-2070000J-190000D01*
G01*
X168725000Y-117225000D02*
X173275000Y-117225000D01*
X168725000Y-112575000D02*
X171275000Y-112575000D01*
X173575000Y-110375000D02*
X178275000Y-110375000D01*
X174500000Y-115025000D02*
X178275000Y-115025000D01*
X168700000Y-112600000D02*
X168700000Y-117200000D01*
X178275000Y-110400000D02*
X178300000Y-115000000D01*
X173570000Y-110400000D02*
G75*
G02X171200000Y-112570000I-2270000J100000D01*
G01*
X173280000Y-116450000D02*
G75*
G02X174500000Y-115030000I1320000J100000D01*
G01*
X173280000Y-116500000D02*
X173280000Y-117200000D01*
X178030000Y-135000000D02*
X178030000Y-135700000D01*
X178030000Y-134950000D02*
G75*
G02X179250000Y-133530000I1320000J100000D01*
G01*
X178320000Y-128900000D02*
G75*
G02X175950000Y-131070000I-2270000J100000D01*
G01*
X183025000Y-128900000D02*
X183050000Y-133500000D01*
X173450000Y-131100000D02*
X173450000Y-135700000D01*
X179250000Y-133525000D02*
X183025000Y-133525000D01*
X178325000Y-128875000D02*
X183025000Y-128875000D01*
X173475000Y-131075000D02*
X176025000Y-131075000D01*
X173475000Y-135725000D02*
X178025000Y-135725000D01*
X178235000Y-126580000D02*
G75*
G03X175975000Y-124700000I-2070000J-190000D01*
G01*
X181839000Y-122580000D02*
G75*
G03X179575000Y-120696000I-2074000J-190000D01*
G01*
X170950000Y-124650000D02*
X176000000Y-124696000D01*
X170950000Y-124604000D02*
X170950000Y-120696000D01*
X170950000Y-120696000D02*
X179575000Y-120696000D01*
X181850000Y-122650000D02*
X181850000Y-126595000D01*
X181850000Y-126604000D02*
X178240000Y-126604000D01*
X196100000Y-74604000D02*
X192490000Y-74604000D01*
X196100000Y-70650000D02*
X196100000Y-74595000D01*
X185200000Y-68696000D02*
X193825000Y-68696000D01*
X185200000Y-72604000D02*
X185200000Y-68696000D01*
X185200000Y-72650000D02*
X190250000Y-72696000D01*
X196089000Y-70580000D02*
G75*
G03X193825000Y-68696000I-2074000J-190000D01*
G01*
X192485000Y-74580000D02*
G75*
G03X190225000Y-72700000I-2070000J-190000D01*
G01*
X187725000Y-83725000D02*
X192275000Y-83725000D01*
X187725000Y-79075000D02*
X190275000Y-79075000D01*
X192575000Y-76875000D02*
X197275000Y-76875000D01*
X193500000Y-81525000D02*
X197275000Y-81525000D01*
X187700000Y-79100000D02*
X187700000Y-83700000D01*
X197275000Y-76900000D02*
X197300000Y-81500000D01*
X192570000Y-76900000D02*
G75*
G02X190200000Y-79070000I-2270000J100000D01*
G01*
X192280000Y-82950000D02*
G75*
G02X193500000Y-81530000I1320000J100000D01*
G01*
X192280000Y-83000000D02*
X192280000Y-83700000D01*
X196100000Y-91604000D02*
X192490000Y-91604000D01*
X196100000Y-87650000D02*
X196100000Y-91595000D01*
X185200000Y-85696000D02*
X193825000Y-85696000D01*
X185200000Y-89604000D02*
X185200000Y-85696000D01*
X185200000Y-89650000D02*
X190250000Y-89696000D01*
X196089000Y-87580000D02*
G75*
G03X193825000Y-85696000I-2074000J-190000D01*
G01*
X192485000Y-91580000D02*
G75*
G03X190225000Y-89700000I-2070000J-190000D01*
G01*
X187725000Y-100725000D02*
X192275000Y-100725000D01*
X187725000Y-96075000D02*
X190275000Y-96075000D01*
X192575000Y-93875000D02*
X197275000Y-93875000D01*
X193500000Y-98525000D02*
X197275000Y-98525000D01*
X187700000Y-96100000D02*
X187700000Y-100700000D01*
X197275000Y-93900000D02*
X197300000Y-98500000D01*
X192570000Y-93900000D02*
G75*
G02X190200000Y-96070000I-2270000J100000D01*
G01*
X192280000Y-99950000D02*
G75*
G02X193500000Y-98530000I1320000J100000D01*
G01*
X192280000Y-100000000D02*
X192280000Y-100700000D01*
X196100000Y-108604000D02*
X192490000Y-108604000D01*
X196100000Y-104650000D02*
X196100000Y-108595000D01*
X185200000Y-102696000D02*
X193825000Y-102696000D01*
X185200000Y-106604000D02*
X185200000Y-102696000D01*
X185200000Y-106650000D02*
X190250000Y-106696000D01*
X196089000Y-104580000D02*
G75*
G03X193825000Y-102696000I-2074000J-190000D01*
G01*
X192485000Y-108580000D02*
G75*
G03X190225000Y-106700000I-2070000J-190000D01*
G01*
X187725000Y-117725000D02*
X192275000Y-117725000D01*
X187725000Y-113075000D02*
X190275000Y-113075000D01*
X192575000Y-110875000D02*
X197275000Y-110875000D01*
X193500000Y-115525000D02*
X197275000Y-115525000D01*
X187700000Y-113100000D02*
X187700000Y-117700000D01*
X197275000Y-110900000D02*
X197300000Y-115500000D01*
X192570000Y-110900000D02*
G75*
G02X190200000Y-113070000I-2270000J100000D01*
G01*
X192280000Y-116950000D02*
G75*
G02X193500000Y-115530000I1320000J100000D01*
G01*
X192280000Y-117000000D02*
X192280000Y-117700000D01*
X215100000Y-109514000D02*
X211490000Y-109514000D01*
X215100000Y-105560000D02*
X215100000Y-109505000D01*
X204200000Y-103606000D02*
X212825000Y-103606000D01*
X204200000Y-107514000D02*
X204200000Y-103606000D01*
X204200000Y-107560000D02*
X209250000Y-107606000D01*
X215089000Y-105490000D02*
G75*
G03X212825000Y-103606000I-2074000J-190000D01*
G01*
X211485000Y-109490000D02*
G75*
G03X209225000Y-107610000I-2070000J-190000D01*
G01*
X206725000Y-118635000D02*
X211275000Y-118635000D01*
X206725000Y-113985000D02*
X209275000Y-113985000D01*
X211575000Y-111785000D02*
X216275000Y-111785000D01*
X212500000Y-116435000D02*
X216275000Y-116435000D01*
X206700000Y-114010000D02*
X206700000Y-118610000D01*
X216275000Y-111810000D02*
X216300000Y-116410000D01*
X211570000Y-111810000D02*
G75*
G02X209200000Y-113980000I-2270000J100000D01*
G01*
X211280000Y-117860000D02*
G75*
G02X212500000Y-116440000I1320000J100000D01*
G01*
X211280000Y-117910000D02*
X211280000Y-118610000D01*
X215597860Y-141938800D02*
X215428515Y-142618007D01*
X215609957Y-141890285D02*
G75*
G02X217137246Y-140807610I1304982J-222307D01*
G01*
X217354969Y-136090153D02*
G75*
G02X214530398Y-137622340I-2178379J646192D01*
G01*
X221920211Y-137228396D02*
X220831627Y-141697804D01*
X212097401Y-137046644D02*
X210984560Y-141510005D01*
X217138456Y-140802758D02*
X220801322Y-141716014D01*
X217365869Y-136067106D02*
X221926259Y-137204138D01*
X212127706Y-137028435D02*
X214601961Y-137645336D01*
X211002770Y-141540310D02*
X215417615Y-142641055D01*
X217833754Y-133818504D02*
G75*
G03X216095698Y-131447604I-2054478J316422D01*
G01*
X222298387Y-130809208D02*
G75*
G03X220557418Y-128433459I-2058359J317390D01*
G01*
X211232058Y-130183432D02*
X216120923Y-131449771D01*
X211243186Y-130138798D02*
X212188617Y-126346883D01*
X212188617Y-126346883D02*
X220557418Y-128433459D01*
X222292125Y-130879789D02*
X221337743Y-134707606D01*
X221335566Y-134716339D02*
X217832798Y-133843001D01*
X228250000Y-108000000D02*
X228250000Y-102000000D01*
X228250000Y-102000000D02*
X228000000Y-102000000D01*
X228250000Y-108000000D02*
X228000000Y-108000000D01*
X224750000Y-108000000D02*
X225000000Y-108000000D01*
X224750000Y-108000000D02*
X224750000Y-102000000D01*
X224750000Y-102000000D02*
X225000000Y-102000000D01*
X224750000Y-111500000D02*
X225000000Y-111500000D01*
X224750000Y-117500000D02*
X224750000Y-111500000D01*
X224750000Y-117500000D02*
X225000000Y-117500000D01*
X228250000Y-117500000D02*
X228000000Y-117500000D01*
X228250000Y-111500000D02*
X228000000Y-111500000D01*
X228250000Y-117500000D02*
X228250000Y-111500000D01*
X217386400Y-92232000D02*
X217386400Y-61752000D01*
X219926400Y-92232000D02*
X217386400Y-92232000D01*
X219926400Y-61752000D02*
X219926400Y-92232000D01*
X217386400Y-61752000D02*
X219926400Y-61752000D01*
X202166400Y-92232000D02*
X202166400Y-61752000D01*
X204706400Y-92232000D02*
X202166400Y-92232000D01*
X204706400Y-61752000D02*
X204706400Y-92232000D01*
X202166400Y-61752000D02*
X204706400Y-61752000D01*
X224738095Y-74752380D02*
X224738095Y-73752380D01*
X224738095Y-74228571D02*
X225309523Y-74228571D01*
X225309523Y-74752380D02*
X225309523Y-73752380D01*
X226309523Y-74752380D02*
X225738095Y-74752380D01*
X226023809Y-74752380D02*
X226023809Y-73752380D01*
X225928571Y-73895238D01*
X225833333Y-73990476D01*
X225738095Y-74038095D01*
X224738095Y-93752380D02*
X224738095Y-92752380D01*
X224738095Y-93228571D02*
X225309523Y-93228571D01*
X225309523Y-93752380D02*
X225309523Y-92752380D01*
X225738095Y-92847619D02*
X225785714Y-92800000D01*
X225880952Y-92752380D01*
X226119047Y-92752380D01*
X226214285Y-92800000D01*
X226261904Y-92847619D01*
X226309523Y-92942857D01*
X226309523Y-93038095D01*
X226261904Y-93180952D01*
X225690476Y-93752380D01*
X226309523Y-93752380D01*
X202738095Y-93752380D02*
X202738095Y-92752380D01*
X202738095Y-93228571D02*
X203309523Y-93228571D01*
X203309523Y-93752380D02*
X203309523Y-92752380D01*
X203690476Y-92752380D02*
X204309523Y-92752380D01*
X203976190Y-93133333D01*
X204119047Y-93133333D01*
X204214285Y-93180952D01*
X204261904Y-93228571D01*
X204309523Y-93323809D01*
X204309523Y-93561904D01*
X204261904Y-93657142D01*
X204214285Y-93704761D01*
X204119047Y-93752380D01*
X203833333Y-93752380D01*
X203738095Y-93704761D01*
X203690476Y-93657142D01*
X222488095Y-66402380D02*
X223059523Y-66402380D01*
X222773809Y-67402380D02*
X222773809Y-66402380D01*
X223964285Y-67402380D02*
X223630952Y-66926190D01*
X223392857Y-67402380D02*
X223392857Y-66402380D01*
X223773809Y-66402380D01*
X223869047Y-66450000D01*
X223916666Y-66497619D01*
X223964285Y-66592857D01*
X223964285Y-66735714D01*
X223916666Y-66830952D01*
X223869047Y-66878571D01*
X223773809Y-66926190D01*
X223392857Y-66926190D01*
X224964285Y-67402380D02*
X224630952Y-66926190D01*
X224392857Y-67402380D02*
X224392857Y-66402380D01*
X224773809Y-66402380D01*
X224869047Y-66450000D01*
X224916666Y-66497619D01*
X224964285Y-66592857D01*
X224964285Y-66735714D01*
X224916666Y-66830952D01*
X224869047Y-66878571D01*
X224773809Y-66926190D01*
X224392857Y-66926190D01*
X225345238Y-67354761D02*
X225488095Y-67402380D01*
X225726190Y-67402380D01*
X225821428Y-67354761D01*
X225869047Y-67307142D01*
X225916666Y-67211904D01*
X225916666Y-67116666D01*
X225869047Y-67021428D01*
X225821428Y-66973809D01*
X225726190Y-66926190D01*
X225535714Y-66878571D01*
X225440476Y-66830952D01*
X225392857Y-66783333D01*
X225345238Y-66688095D01*
X225345238Y-66592857D01*
X225392857Y-66497619D01*
X225440476Y-66450000D01*
X225535714Y-66402380D01*
X225773809Y-66402380D01*
X225916666Y-66450000D01*
X227452380Y-87952380D02*
X226976190Y-88285714D01*
X227452380Y-88523809D02*
X226452380Y-88523809D01*
X226452380Y-88142857D01*
X226500000Y-88047619D01*
X226547619Y-88000000D01*
X226642857Y-87952380D01*
X226785714Y-87952380D01*
X226880952Y-88000000D01*
X226928571Y-88047619D01*
X226976190Y-88142857D01*
X226976190Y-88523809D01*
X226928571Y-87523809D02*
X226928571Y-87190476D01*
X227452380Y-87047619D02*
X227452380Y-87523809D01*
X226452380Y-87523809D01*
X226452380Y-87047619D01*
X227404761Y-86666666D02*
X227452380Y-86523809D01*
X227452380Y-86285714D01*
X227404761Y-86190476D01*
X227357142Y-86142857D01*
X227261904Y-86095238D01*
X227166666Y-86095238D01*
X227071428Y-86142857D01*
X227023809Y-86190476D01*
X226976190Y-86285714D01*
X226928571Y-86476190D01*
X226880952Y-86571428D01*
X226833333Y-86619047D01*
X226738095Y-86666666D01*
X226642857Y-86666666D01*
X226547619Y-86619047D01*
X226500000Y-86571428D01*
X226452380Y-86476190D01*
X226452380Y-86238095D01*
X226500000Y-86095238D01*
X226928571Y-85666666D02*
X226928571Y-85333333D01*
X227452380Y-85190476D02*
X227452380Y-85666666D01*
X226452380Y-85666666D01*
X226452380Y-85190476D01*
X226452380Y-84904761D02*
X226452380Y-84333333D01*
X227452380Y-84619047D02*
X226452380Y-84619047D01*
D11*
X215619047Y-81141285D02*
X215452380Y-80784142D01*
X215333333Y-81141285D02*
X215333333Y-80391285D01*
X215523809Y-80391285D01*
X215571428Y-80427000D01*
X215595238Y-80462714D01*
X215619047Y-80534142D01*
X215619047Y-80641285D01*
X215595238Y-80712714D01*
X215571428Y-80748428D01*
X215523809Y-80784142D01*
X215333333Y-80784142D01*
X215928571Y-80391285D02*
X216023809Y-80391285D01*
X216071428Y-80427000D01*
X216119047Y-80498428D01*
X216142857Y-80641285D01*
X216142857Y-80891285D01*
X216119047Y-81034142D01*
X216071428Y-81105571D01*
X216023809Y-81141285D01*
X215928571Y-81141285D01*
X215880952Y-81105571D01*
X215833333Y-81034142D01*
X215809523Y-80891285D01*
X215809523Y-80641285D01*
X215833333Y-80498428D01*
X215880952Y-80427000D01*
X215928571Y-80391285D01*
X216309523Y-80391285D02*
X216428571Y-81141285D01*
X216523809Y-80605571D01*
X216619047Y-81141285D01*
X216738095Y-80391285D01*
X217190476Y-81141285D02*
X216904761Y-81141285D01*
X217047619Y-81141285D02*
X217047619Y-80391285D01*
X217000000Y-80498428D01*
X216952380Y-80569857D01*
X216904761Y-80605571D01*
X200502380Y-83617857D02*
X200478571Y-83653571D01*
X200407142Y-83689285D01*
X200359523Y-83689285D01*
X200288095Y-83653571D01*
X200240476Y-83582142D01*
X200216666Y-83510714D01*
X200192857Y-83367857D01*
X200192857Y-83260714D01*
X200216666Y-83117857D01*
X200240476Y-83046428D01*
X200288095Y-82975000D01*
X200359523Y-82939285D01*
X200407142Y-82939285D01*
X200478571Y-82975000D01*
X200502380Y-83010714D01*
X200811904Y-82939285D02*
X200907142Y-82939285D01*
X200954761Y-82975000D01*
X201002380Y-83046428D01*
X201026190Y-83189285D01*
X201026190Y-83439285D01*
X201002380Y-83582142D01*
X200954761Y-83653571D01*
X200907142Y-83689285D01*
X200811904Y-83689285D01*
X200764285Y-83653571D01*
X200716666Y-83582142D01*
X200692857Y-83439285D01*
X200692857Y-83189285D01*
X200716666Y-83046428D01*
X200764285Y-82975000D01*
X200811904Y-82939285D01*
X201478571Y-83689285D02*
X201240476Y-83689285D01*
X201240476Y-82939285D01*
X201859523Y-83189285D02*
X201859523Y-83689285D01*
X201740476Y-82903571D02*
X201621428Y-83439285D01*
X201930952Y-83439285D01*
X215569047Y-83689285D02*
X215402380Y-83332142D01*
X215283333Y-83689285D02*
X215283333Y-82939285D01*
X215473809Y-82939285D01*
X215521428Y-82975000D01*
X215545238Y-83010714D01*
X215569047Y-83082142D01*
X215569047Y-83189285D01*
X215545238Y-83260714D01*
X215521428Y-83296428D01*
X215473809Y-83332142D01*
X215283333Y-83332142D01*
X215878571Y-82939285D02*
X215973809Y-82939285D01*
X216021428Y-82975000D01*
X216069047Y-83046428D01*
X216092857Y-83189285D01*
X216092857Y-83439285D01*
X216069047Y-83582142D01*
X216021428Y-83653571D01*
X215973809Y-83689285D01*
X215878571Y-83689285D01*
X215830952Y-83653571D01*
X215783333Y-83582142D01*
X215759523Y-83439285D01*
X215759523Y-83189285D01*
X215783333Y-83046428D01*
X215830952Y-82975000D01*
X215878571Y-82939285D01*
X216259523Y-82939285D02*
X216378571Y-83689285D01*
X216473809Y-83153571D01*
X216569047Y-83689285D01*
X216688095Y-82939285D01*
X216854761Y-83010714D02*
X216878571Y-82975000D01*
X216926190Y-82939285D01*
X217045238Y-82939285D01*
X217092857Y-82975000D01*
X217116666Y-83010714D01*
X217140476Y-83082142D01*
X217140476Y-83153571D01*
X217116666Y-83260714D01*
X216830952Y-83689285D01*
X217140476Y-83689285D01*
X200502380Y-86213357D02*
X200478571Y-86249071D01*
X200407142Y-86284785D01*
X200359523Y-86284785D01*
X200288095Y-86249071D01*
X200240476Y-86177642D01*
X200216666Y-86106214D01*
X200192857Y-85963357D01*
X200192857Y-85856214D01*
X200216666Y-85713357D01*
X200240476Y-85641928D01*
X200288095Y-85570500D01*
X200359523Y-85534785D01*
X200407142Y-85534785D01*
X200478571Y-85570500D01*
X200502380Y-85606214D01*
X200811904Y-85534785D02*
X200907142Y-85534785D01*
X200954761Y-85570500D01*
X201002380Y-85641928D01*
X201026190Y-85784785D01*
X201026190Y-86034785D01*
X201002380Y-86177642D01*
X200954761Y-86249071D01*
X200907142Y-86284785D01*
X200811904Y-86284785D01*
X200764285Y-86249071D01*
X200716666Y-86177642D01*
X200692857Y-86034785D01*
X200692857Y-85784785D01*
X200716666Y-85641928D01*
X200764285Y-85570500D01*
X200811904Y-85534785D01*
X201478571Y-86284785D02*
X201240476Y-86284785D01*
X201240476Y-85534785D01*
X201883333Y-85534785D02*
X201645238Y-85534785D01*
X201621428Y-85891928D01*
X201645238Y-85856214D01*
X201692857Y-85820500D01*
X201811904Y-85820500D01*
X201859523Y-85856214D01*
X201883333Y-85891928D01*
X201907142Y-85963357D01*
X201907142Y-86141928D01*
X201883333Y-86213357D01*
X201859523Y-86249071D01*
X201811904Y-86284785D01*
X201692857Y-86284785D01*
X201645238Y-86249071D01*
X201621428Y-86213357D01*
X215569047Y-86284785D02*
X215402380Y-85927642D01*
X215283333Y-86284785D02*
X215283333Y-85534785D01*
X215473809Y-85534785D01*
X215521428Y-85570500D01*
X215545238Y-85606214D01*
X215569047Y-85677642D01*
X215569047Y-85784785D01*
X215545238Y-85856214D01*
X215521428Y-85891928D01*
X215473809Y-85927642D01*
X215283333Y-85927642D01*
X215878571Y-85534785D02*
X215973809Y-85534785D01*
X216021428Y-85570500D01*
X216069047Y-85641928D01*
X216092857Y-85784785D01*
X216092857Y-86034785D01*
X216069047Y-86177642D01*
X216021428Y-86249071D01*
X215973809Y-86284785D01*
X215878571Y-86284785D01*
X215830952Y-86249071D01*
X215783333Y-86177642D01*
X215759523Y-86034785D01*
X215759523Y-85784785D01*
X215783333Y-85641928D01*
X215830952Y-85570500D01*
X215878571Y-85534785D01*
X216259523Y-85534785D02*
X216378571Y-86284785D01*
X216473809Y-85749071D01*
X216569047Y-86284785D01*
X216688095Y-85534785D01*
X216830952Y-85534785D02*
X217140476Y-85534785D01*
X216973809Y-85820500D01*
X217045238Y-85820500D01*
X217092857Y-85856214D01*
X217116666Y-85891928D01*
X217140476Y-85963357D01*
X217140476Y-86141928D01*
X217116666Y-86213357D01*
X217092857Y-86249071D01*
X217045238Y-86284785D01*
X216902380Y-86284785D01*
X216854761Y-86249071D01*
X216830952Y-86213357D01*
X200847619Y-88396428D02*
X200919047Y-88432142D01*
X200942857Y-88467857D01*
X200966666Y-88539285D01*
X200966666Y-88646428D01*
X200942857Y-88717857D01*
X200919047Y-88753571D01*
X200871428Y-88789285D01*
X200680952Y-88789285D01*
X200680952Y-88039285D01*
X200847619Y-88039285D01*
X200895238Y-88075000D01*
X200919047Y-88110714D01*
X200942857Y-88182142D01*
X200942857Y-88253571D01*
X200919047Y-88325000D01*
X200895238Y-88360714D01*
X200847619Y-88396428D01*
X200680952Y-88396428D01*
X201157142Y-88110714D02*
X201180952Y-88075000D01*
X201228571Y-88039285D01*
X201347619Y-88039285D01*
X201395238Y-88075000D01*
X201419047Y-88110714D01*
X201442857Y-88182142D01*
X201442857Y-88253571D01*
X201419047Y-88360714D01*
X201133333Y-88789285D01*
X201442857Y-88789285D01*
X215997619Y-88368428D02*
X216069047Y-88404142D01*
X216092857Y-88439857D01*
X216116666Y-88511285D01*
X216116666Y-88618428D01*
X216092857Y-88689857D01*
X216069047Y-88725571D01*
X216021428Y-88761285D01*
X215830952Y-88761285D01*
X215830952Y-88011285D01*
X215997619Y-88011285D01*
X216045238Y-88047000D01*
X216069047Y-88082714D01*
X216092857Y-88154142D01*
X216092857Y-88225571D01*
X216069047Y-88297000D01*
X216045238Y-88332714D01*
X215997619Y-88368428D01*
X215830952Y-88368428D01*
X216545238Y-88261285D02*
X216545238Y-88761285D01*
X216426190Y-87975571D02*
X216307142Y-88511285D01*
X216616666Y-88511285D01*
X215997619Y-90971928D02*
X216069047Y-91007642D01*
X216092857Y-91043357D01*
X216116666Y-91114785D01*
X216116666Y-91221928D01*
X216092857Y-91293357D01*
X216069047Y-91329071D01*
X216021428Y-91364785D01*
X215830952Y-91364785D01*
X215830952Y-90614785D01*
X215997619Y-90614785D01*
X216045238Y-90650500D01*
X216069047Y-90686214D01*
X216092857Y-90757642D01*
X216092857Y-90829071D01*
X216069047Y-90900500D01*
X216045238Y-90936214D01*
X215997619Y-90971928D01*
X215830952Y-90971928D01*
X216569047Y-90614785D02*
X216330952Y-90614785D01*
X216307142Y-90971928D01*
X216330952Y-90936214D01*
X216378571Y-90900500D01*
X216497619Y-90900500D01*
X216545238Y-90936214D01*
X216569047Y-90971928D01*
X216592857Y-91043357D01*
X216592857Y-91221928D01*
X216569047Y-91293357D01*
X216545238Y-91329071D01*
X216497619Y-91364785D01*
X216378571Y-91364785D01*
X216330952Y-91329071D01*
X216307142Y-91293357D01*
X200747619Y-90946428D02*
X200819047Y-90982142D01*
X200842857Y-91017857D01*
X200866666Y-91089285D01*
X200866666Y-91196428D01*
X200842857Y-91267857D01*
X200819047Y-91303571D01*
X200771428Y-91339285D01*
X200580952Y-91339285D01*
X200580952Y-90589285D01*
X200747619Y-90589285D01*
X200795238Y-90625000D01*
X200819047Y-90660714D01*
X200842857Y-90732142D01*
X200842857Y-90803571D01*
X200819047Y-90875000D01*
X200795238Y-90910714D01*
X200747619Y-90946428D01*
X200580952Y-90946428D01*
X201295238Y-90589285D02*
X201200000Y-90589285D01*
X201152380Y-90625000D01*
X201128571Y-90660714D01*
X201080952Y-90767857D01*
X201057142Y-90910714D01*
X201057142Y-91196428D01*
X201080952Y-91267857D01*
X201104761Y-91303571D01*
X201152380Y-91339285D01*
X201247619Y-91339285D01*
X201295238Y-91303571D01*
X201319047Y-91267857D01*
X201342857Y-91196428D01*
X201342857Y-91017857D01*
X201319047Y-90946428D01*
X201295238Y-90910714D01*
X201247619Y-90875000D01*
X201152380Y-90875000D01*
X201104761Y-90910714D01*
X201080952Y-90946428D01*
X201057142Y-91017857D01*
X200552380Y-73467857D02*
X200528571Y-73503571D01*
X200457142Y-73539285D01*
X200409523Y-73539285D01*
X200338095Y-73503571D01*
X200290476Y-73432142D01*
X200266666Y-73360714D01*
X200242857Y-73217857D01*
X200242857Y-73110714D01*
X200266666Y-72967857D01*
X200290476Y-72896428D01*
X200338095Y-72825000D01*
X200409523Y-72789285D01*
X200457142Y-72789285D01*
X200528571Y-72825000D01*
X200552380Y-72860714D01*
X200861904Y-72789285D02*
X200957142Y-72789285D01*
X201004761Y-72825000D01*
X201052380Y-72896428D01*
X201076190Y-73039285D01*
X201076190Y-73289285D01*
X201052380Y-73432142D01*
X201004761Y-73503571D01*
X200957142Y-73539285D01*
X200861904Y-73539285D01*
X200814285Y-73503571D01*
X200766666Y-73432142D01*
X200742857Y-73289285D01*
X200742857Y-73039285D01*
X200766666Y-72896428D01*
X200814285Y-72825000D01*
X200861904Y-72789285D01*
X201528571Y-73539285D02*
X201290476Y-73539285D01*
X201290476Y-72789285D01*
X201790476Y-72789285D02*
X201838095Y-72789285D01*
X201885714Y-72825000D01*
X201909523Y-72860714D01*
X201933333Y-72932142D01*
X201957142Y-73075000D01*
X201957142Y-73253571D01*
X201933333Y-73396428D01*
X201909523Y-73467857D01*
X201885714Y-73503571D01*
X201838095Y-73539285D01*
X201790476Y-73539285D01*
X201742857Y-73503571D01*
X201719047Y-73467857D01*
X201695238Y-73396428D01*
X201671428Y-73253571D01*
X201671428Y-73075000D01*
X201695238Y-72932142D01*
X201719047Y-72860714D01*
X201742857Y-72825000D01*
X201790476Y-72789285D01*
X215853857Y-73485571D02*
X215925285Y-73521285D01*
X216044333Y-73521285D01*
X216091952Y-73485571D01*
X216115761Y-73449857D01*
X216139571Y-73378428D01*
X216139571Y-73307000D01*
X216115761Y-73235571D01*
X216091952Y-73199857D01*
X216044333Y-73164142D01*
X215949095Y-73128428D01*
X215901476Y-73092714D01*
X215877666Y-73057000D01*
X215853857Y-72985571D01*
X215853857Y-72914142D01*
X215877666Y-72842714D01*
X215901476Y-72807000D01*
X215949095Y-72771285D01*
X216068142Y-72771285D01*
X216139571Y-72807000D01*
X216353857Y-73521285D02*
X216353857Y-72771285D01*
X216472904Y-72771285D01*
X216544333Y-72807000D01*
X216591952Y-72878428D01*
X216615761Y-72949857D01*
X216639571Y-73092714D01*
X216639571Y-73199857D01*
X216615761Y-73342714D01*
X216591952Y-73414142D01*
X216544333Y-73485571D01*
X216472904Y-73521285D01*
X216353857Y-73521285D01*
X216830047Y-73307000D02*
X217068142Y-73307000D01*
X216782428Y-73521285D02*
X216949095Y-72771285D01*
X217115761Y-73521285D01*
X200602380Y-75989857D02*
X200578571Y-76025571D01*
X200507142Y-76061285D01*
X200459523Y-76061285D01*
X200388095Y-76025571D01*
X200340476Y-75954142D01*
X200316666Y-75882714D01*
X200292857Y-75739857D01*
X200292857Y-75632714D01*
X200316666Y-75489857D01*
X200340476Y-75418428D01*
X200388095Y-75347000D01*
X200459523Y-75311285D01*
X200507142Y-75311285D01*
X200578571Y-75347000D01*
X200602380Y-75382714D01*
X200911904Y-75311285D02*
X201007142Y-75311285D01*
X201054761Y-75347000D01*
X201102380Y-75418428D01*
X201126190Y-75561285D01*
X201126190Y-75811285D01*
X201102380Y-75954142D01*
X201054761Y-76025571D01*
X201007142Y-76061285D01*
X200911904Y-76061285D01*
X200864285Y-76025571D01*
X200816666Y-75954142D01*
X200792857Y-75811285D01*
X200792857Y-75561285D01*
X200816666Y-75418428D01*
X200864285Y-75347000D01*
X200911904Y-75311285D01*
X201578571Y-76061285D02*
X201340476Y-76061285D01*
X201340476Y-75311285D01*
X202007142Y-76061285D02*
X201721428Y-76061285D01*
X201864285Y-76061285D02*
X201864285Y-75311285D01*
X201816666Y-75418428D01*
X201769047Y-75489857D01*
X201721428Y-75525571D01*
X215865761Y-76025571D02*
X215937190Y-76061285D01*
X216056238Y-76061285D01*
X216103857Y-76025571D01*
X216127666Y-75989857D01*
X216151476Y-75918428D01*
X216151476Y-75847000D01*
X216127666Y-75775571D01*
X216103857Y-75739857D01*
X216056238Y-75704142D01*
X215961000Y-75668428D01*
X215913380Y-75632714D01*
X215889571Y-75597000D01*
X215865761Y-75525571D01*
X215865761Y-75454142D01*
X215889571Y-75382714D01*
X215913380Y-75347000D01*
X215961000Y-75311285D01*
X216080047Y-75311285D01*
X216151476Y-75347000D01*
X216651476Y-75989857D02*
X216627666Y-76025571D01*
X216556238Y-76061285D01*
X216508619Y-76061285D01*
X216437190Y-76025571D01*
X216389571Y-75954142D01*
X216365761Y-75882714D01*
X216341952Y-75739857D01*
X216341952Y-75632714D01*
X216365761Y-75489857D01*
X216389571Y-75418428D01*
X216437190Y-75347000D01*
X216508619Y-75311285D01*
X216556238Y-75311285D01*
X216627666Y-75347000D01*
X216651476Y-75382714D01*
X217103857Y-76061285D02*
X216865761Y-76061285D01*
X216865761Y-75311285D01*
X200552380Y-78529857D02*
X200528571Y-78565571D01*
X200457142Y-78601285D01*
X200409523Y-78601285D01*
X200338095Y-78565571D01*
X200290476Y-78494142D01*
X200266666Y-78422714D01*
X200242857Y-78279857D01*
X200242857Y-78172714D01*
X200266666Y-78029857D01*
X200290476Y-77958428D01*
X200338095Y-77887000D01*
X200409523Y-77851285D01*
X200457142Y-77851285D01*
X200528571Y-77887000D01*
X200552380Y-77922714D01*
X200861904Y-77851285D02*
X200957142Y-77851285D01*
X201004761Y-77887000D01*
X201052380Y-77958428D01*
X201076190Y-78101285D01*
X201076190Y-78351285D01*
X201052380Y-78494142D01*
X201004761Y-78565571D01*
X200957142Y-78601285D01*
X200861904Y-78601285D01*
X200814285Y-78565571D01*
X200766666Y-78494142D01*
X200742857Y-78351285D01*
X200742857Y-78101285D01*
X200766666Y-77958428D01*
X200814285Y-77887000D01*
X200861904Y-77851285D01*
X201528571Y-78601285D02*
X201290476Y-78601285D01*
X201290476Y-77851285D01*
X201671428Y-77922714D02*
X201695238Y-77887000D01*
X201742857Y-77851285D01*
X201861904Y-77851285D01*
X201909523Y-77887000D01*
X201933333Y-77922714D01*
X201957142Y-77994142D01*
X201957142Y-78065571D01*
X201933333Y-78172714D01*
X201647619Y-78601285D01*
X201957142Y-78601285D01*
X215569047Y-78639285D02*
X215402380Y-78282142D01*
X215283333Y-78639285D02*
X215283333Y-77889285D01*
X215473809Y-77889285D01*
X215521428Y-77925000D01*
X215545238Y-77960714D01*
X215569047Y-78032142D01*
X215569047Y-78139285D01*
X215545238Y-78210714D01*
X215521428Y-78246428D01*
X215473809Y-78282142D01*
X215283333Y-78282142D01*
X215878571Y-77889285D02*
X215973809Y-77889285D01*
X216021428Y-77925000D01*
X216069047Y-77996428D01*
X216092857Y-78139285D01*
X216092857Y-78389285D01*
X216069047Y-78532142D01*
X216021428Y-78603571D01*
X215973809Y-78639285D01*
X215878571Y-78639285D01*
X215830952Y-78603571D01*
X215783333Y-78532142D01*
X215759523Y-78389285D01*
X215759523Y-78139285D01*
X215783333Y-77996428D01*
X215830952Y-77925000D01*
X215878571Y-77889285D01*
X216259523Y-77889285D02*
X216378571Y-78639285D01*
X216473809Y-78103571D01*
X216569047Y-78639285D01*
X216688095Y-77889285D01*
X216973809Y-77889285D02*
X217021428Y-77889285D01*
X217069047Y-77925000D01*
X217092857Y-77960714D01*
X217116666Y-78032142D01*
X217140476Y-78175000D01*
X217140476Y-78353571D01*
X217116666Y-78496428D01*
X217092857Y-78567857D01*
X217069047Y-78603571D01*
X217021428Y-78639285D01*
X216973809Y-78639285D01*
X216926190Y-78603571D01*
X216902380Y-78567857D01*
X216878571Y-78496428D01*
X216854761Y-78353571D01*
X216854761Y-78175000D01*
X216878571Y-78032142D01*
X216902380Y-77960714D01*
X216926190Y-77925000D01*
X216973809Y-77889285D01*
X200452380Y-81117857D02*
X200428571Y-81153571D01*
X200357142Y-81189285D01*
X200309523Y-81189285D01*
X200238095Y-81153571D01*
X200190476Y-81082142D01*
X200166666Y-81010714D01*
X200142857Y-80867857D01*
X200142857Y-80760714D01*
X200166666Y-80617857D01*
X200190476Y-80546428D01*
X200238095Y-80475000D01*
X200309523Y-80439285D01*
X200357142Y-80439285D01*
X200428571Y-80475000D01*
X200452380Y-80510714D01*
X200761904Y-80439285D02*
X200857142Y-80439285D01*
X200904761Y-80475000D01*
X200952380Y-80546428D01*
X200976190Y-80689285D01*
X200976190Y-80939285D01*
X200952380Y-81082142D01*
X200904761Y-81153571D01*
X200857142Y-81189285D01*
X200761904Y-81189285D01*
X200714285Y-81153571D01*
X200666666Y-81082142D01*
X200642857Y-80939285D01*
X200642857Y-80689285D01*
X200666666Y-80546428D01*
X200714285Y-80475000D01*
X200761904Y-80439285D01*
X201428571Y-81189285D02*
X201190476Y-81189285D01*
X201190476Y-80439285D01*
X201547619Y-80439285D02*
X201857142Y-80439285D01*
X201690476Y-80725000D01*
X201761904Y-80725000D01*
X201809523Y-80760714D01*
X201833333Y-80796428D01*
X201857142Y-80867857D01*
X201857142Y-81046428D01*
X201833333Y-81117857D01*
X201809523Y-81153571D01*
X201761904Y-81189285D01*
X201619047Y-81189285D01*
X201571428Y-81153571D01*
X201547619Y-81117857D01*
X216080047Y-70330500D02*
X216032428Y-70294785D01*
X215961000Y-70294785D01*
X215889571Y-70330500D01*
X215841952Y-70401928D01*
X215818142Y-70473357D01*
X215794333Y-70616214D01*
X215794333Y-70723357D01*
X215818142Y-70866214D01*
X215841952Y-70937642D01*
X215889571Y-71009071D01*
X215961000Y-71044785D01*
X216008619Y-71044785D01*
X216080047Y-71009071D01*
X216103857Y-70973357D01*
X216103857Y-70723357D01*
X216008619Y-70723357D01*
X216318142Y-71044785D02*
X216318142Y-70294785D01*
X216603857Y-71044785D01*
X216603857Y-70294785D01*
X216841952Y-71044785D02*
X216841952Y-70294785D01*
X216961000Y-70294785D01*
X217032428Y-70330500D01*
X217080047Y-70401928D01*
X217103857Y-70473357D01*
X217127666Y-70616214D01*
X217127666Y-70723357D01*
X217103857Y-70866214D01*
X217080047Y-70937642D01*
X217032428Y-71009071D01*
X216961000Y-71044785D01*
X216841952Y-71044785D01*
X200617833Y-70231285D02*
X200784500Y-70981285D01*
X200951166Y-70231285D01*
X201403547Y-70909857D02*
X201379738Y-70945571D01*
X201308309Y-70981285D01*
X201260690Y-70981285D01*
X201189261Y-70945571D01*
X201141642Y-70874142D01*
X201117833Y-70802714D01*
X201094023Y-70659857D01*
X201094023Y-70552714D01*
X201117833Y-70409857D01*
X201141642Y-70338428D01*
X201189261Y-70267000D01*
X201260690Y-70231285D01*
X201308309Y-70231285D01*
X201379738Y-70267000D01*
X201403547Y-70302714D01*
X201903547Y-70909857D02*
X201879738Y-70945571D01*
X201808309Y-70981285D01*
X201760690Y-70981285D01*
X201689261Y-70945571D01*
X201641642Y-70874142D01*
X201617833Y-70802714D01*
X201594023Y-70659857D01*
X201594023Y-70552714D01*
X201617833Y-70409857D01*
X201641642Y-70338428D01*
X201689261Y-70267000D01*
X201760690Y-70231285D01*
X201808309Y-70231285D01*
X201879738Y-70267000D01*
X201903547Y-70302714D01*
X216143547Y-67790500D02*
X216095928Y-67754785D01*
X216024500Y-67754785D01*
X215953071Y-67790500D01*
X215905452Y-67861928D01*
X215881642Y-67933357D01*
X215857833Y-68076214D01*
X215857833Y-68183357D01*
X215881642Y-68326214D01*
X215905452Y-68397642D01*
X215953071Y-68469071D01*
X216024500Y-68504785D01*
X216072119Y-68504785D01*
X216143547Y-68469071D01*
X216167357Y-68433357D01*
X216167357Y-68183357D01*
X216072119Y-68183357D01*
X216381642Y-68504785D02*
X216381642Y-67754785D01*
X216667357Y-68504785D01*
X216667357Y-67754785D01*
X216905452Y-68504785D02*
X216905452Y-67754785D01*
X217024500Y-67754785D01*
X217095928Y-67790500D01*
X217143547Y-67861928D01*
X217167357Y-67933357D01*
X217191166Y-68076214D01*
X217191166Y-68183357D01*
X217167357Y-68326214D01*
X217143547Y-68397642D01*
X217095928Y-68469071D01*
X217024500Y-68504785D01*
X216905452Y-68504785D01*
X201010690Y-68504785D02*
X200844023Y-68147642D01*
X200724976Y-68504785D02*
X200724976Y-67754785D01*
X200915452Y-67754785D01*
X200963071Y-67790500D01*
X200986880Y-67826214D01*
X201010690Y-67897642D01*
X201010690Y-68004785D01*
X200986880Y-68076214D01*
X200963071Y-68111928D01*
X200915452Y-68147642D01*
X200724976Y-68147642D01*
X201201166Y-68469071D02*
X201272595Y-68504785D01*
X201391642Y-68504785D01*
X201439261Y-68469071D01*
X201463071Y-68433357D01*
X201486880Y-68361928D01*
X201486880Y-68290500D01*
X201463071Y-68219071D01*
X201439261Y-68183357D01*
X201391642Y-68147642D01*
X201296404Y-68111928D01*
X201248785Y-68076214D01*
X201224976Y-68040500D01*
X201201166Y-67969071D01*
X201201166Y-67897642D01*
X201224976Y-67826214D01*
X201248785Y-67790500D01*
X201296404Y-67754785D01*
X201415452Y-67754785D01*
X201486880Y-67790500D01*
X201629738Y-67754785D02*
X201915452Y-67754785D01*
X201772595Y-68504785D02*
X201772595Y-67754785D01*
X215600000Y-65889285D02*
X215600000Y-65139285D01*
X215719047Y-65139285D01*
X215790476Y-65175000D01*
X215838095Y-65246428D01*
X215861904Y-65317857D01*
X215885714Y-65460714D01*
X215885714Y-65567857D01*
X215861904Y-65710714D01*
X215838095Y-65782142D01*
X215790476Y-65853571D01*
X215719047Y-65889285D01*
X215600000Y-65889285D01*
X216076190Y-65675000D02*
X216314285Y-65675000D01*
X216028571Y-65889285D02*
X216195238Y-65139285D01*
X216361904Y-65889285D01*
X216457142Y-65139285D02*
X216742857Y-65139285D01*
X216600000Y-65889285D02*
X216600000Y-65139285D01*
X216885714Y-65675000D02*
X217123809Y-65675000D01*
X216838095Y-65889285D02*
X217004761Y-65139285D01*
X217171428Y-65889285D01*
X200903547Y-65187000D02*
X200855928Y-65151285D01*
X200784500Y-65151285D01*
X200713071Y-65187000D01*
X200665452Y-65258428D01*
X200641642Y-65329857D01*
X200617833Y-65472714D01*
X200617833Y-65579857D01*
X200641642Y-65722714D01*
X200665452Y-65794142D01*
X200713071Y-65865571D01*
X200784500Y-65901285D01*
X200832119Y-65901285D01*
X200903547Y-65865571D01*
X200927357Y-65829857D01*
X200927357Y-65579857D01*
X200832119Y-65579857D01*
X201141642Y-65901285D02*
X201141642Y-65151285D01*
X201427357Y-65901285D01*
X201427357Y-65151285D01*
X201665452Y-65901285D02*
X201665452Y-65151285D01*
X201784500Y-65151285D01*
X201855928Y-65187000D01*
X201903547Y-65258428D01*
X201927357Y-65329857D01*
X201951166Y-65472714D01*
X201951166Y-65579857D01*
X201927357Y-65722714D01*
X201903547Y-65794142D01*
X201855928Y-65865571D01*
X201784500Y-65901285D01*
X201665452Y-65901285D01*
X216178571Y-63361285D02*
X215940476Y-63361285D01*
X215940476Y-62611285D01*
X216345238Y-62968428D02*
X216511904Y-62968428D01*
X216583333Y-63361285D02*
X216345238Y-63361285D01*
X216345238Y-62611285D01*
X216583333Y-62611285D01*
X216797619Y-63361285D02*
X216797619Y-62611285D01*
X216916666Y-62611285D01*
X216988095Y-62647000D01*
X217035714Y-62718428D01*
X217059523Y-62789857D01*
X217083333Y-62932714D01*
X217083333Y-63039857D01*
X217059523Y-63182714D01*
X217035714Y-63254142D01*
X216988095Y-63325571D01*
X216916666Y-63361285D01*
X216797619Y-63361285D01*
X200939261Y-63361285D02*
X200772595Y-63004142D01*
X200653547Y-63361285D02*
X200653547Y-62611285D01*
X200844023Y-62611285D01*
X200891642Y-62647000D01*
X200915452Y-62682714D01*
X200939261Y-62754142D01*
X200939261Y-62861285D01*
X200915452Y-62932714D01*
X200891642Y-62968428D01*
X200844023Y-63004142D01*
X200653547Y-63004142D01*
X201129738Y-63147000D02*
X201367833Y-63147000D01*
X201082119Y-63361285D02*
X201248785Y-62611285D01*
X201415452Y-63361285D01*
X201534500Y-62611285D02*
X201653547Y-63361285D01*
X201748785Y-62825571D01*
X201844023Y-63361285D01*
X201963071Y-62611285D01*
D10*
M02*
