G04 #@! TF.GenerationSoftware,KiCad,Pcbnew,(5.1.2)-2*
G04 #@! TF.CreationDate,2020-04-16T23:42:25+09:00*
G04 #@! TF.ProjectId,17mm topplate,31376d6d-2074-46f7-9070-6c6174652e6b,rev?*
G04 #@! TF.SameCoordinates,Original*
G04 #@! TF.FileFunction,Soldermask,Bot*
G04 #@! TF.FilePolarity,Negative*
%FSLAX46Y46*%
G04 Gerber Fmt 4.6, Leading zero omitted, Abs format (unit mm)*
G04 Created by KiCad (PCBNEW (5.1.2)-2) date 2020-04-16 23:42:25*
%MOMM*%
%LPD*%
G04 APERTURE LIST*
%ADD10C,0.200000*%
%ADD11C,0.100000*%
G04 APERTURE END LIST*
D10*
X197102380Y-117214285D02*
X197102380Y-116738095D01*
X196102380Y-116738095D01*
X196435714Y-117976190D02*
X197102380Y-117976190D01*
X196435714Y-117547619D02*
X196959523Y-117547619D01*
X197054761Y-117595238D01*
X197102380Y-117690476D01*
X197102380Y-117833333D01*
X197054761Y-117928571D01*
X197007142Y-117976190D01*
X196435714Y-118452380D02*
X197102380Y-118452380D01*
X196530952Y-118452380D02*
X196483333Y-118500000D01*
X196435714Y-118595238D01*
X196435714Y-118738095D01*
X196483333Y-118833333D01*
X196578571Y-118880952D01*
X197102380Y-118880952D01*
X197054761Y-119785714D02*
X197102380Y-119690476D01*
X197102380Y-119500000D01*
X197054761Y-119404761D01*
X197007142Y-119357142D01*
X196911904Y-119309523D01*
X196626190Y-119309523D01*
X196530952Y-119357142D01*
X196483333Y-119404761D01*
X196435714Y-119500000D01*
X196435714Y-119690476D01*
X196483333Y-119785714D01*
X197102380Y-120214285D02*
X196102380Y-120214285D01*
X197102380Y-120642857D02*
X196578571Y-120642857D01*
X196483333Y-120595238D01*
X196435714Y-120500000D01*
X196435714Y-120357142D01*
X196483333Y-120261904D01*
X196530952Y-120214285D01*
X196578571Y-121452380D02*
X196626190Y-121595238D01*
X196673809Y-121642857D01*
X196769047Y-121690476D01*
X196911904Y-121690476D01*
X197007142Y-121642857D01*
X197054761Y-121595238D01*
X197102380Y-121500000D01*
X197102380Y-121119047D01*
X196102380Y-121119047D01*
X196102380Y-121452380D01*
X196150000Y-121547619D01*
X196197619Y-121595238D01*
X196292857Y-121642857D01*
X196388095Y-121642857D01*
X196483333Y-121595238D01*
X196530952Y-121547619D01*
X196578571Y-121452380D01*
X196578571Y-121119047D01*
X197102380Y-122261904D02*
X197054761Y-122166666D01*
X197007142Y-122119047D01*
X196911904Y-122071428D01*
X196626190Y-122071428D01*
X196530952Y-122119047D01*
X196483333Y-122166666D01*
X196435714Y-122261904D01*
X196435714Y-122404761D01*
X196483333Y-122500000D01*
X196530952Y-122547619D01*
X196626190Y-122595238D01*
X196911904Y-122595238D01*
X197007142Y-122547619D01*
X197054761Y-122500000D01*
X197102380Y-122404761D01*
X197102380Y-122261904D01*
X197102380Y-122928571D02*
X196435714Y-123452380D01*
X196435714Y-122928571D02*
X197102380Y-123452380D01*
X196435714Y-124500000D02*
X197102380Y-124738095D01*
X196435714Y-124976190D01*
X196197619Y-125309523D02*
X196150000Y-125357142D01*
X196102380Y-125452380D01*
X196102380Y-125690476D01*
X196150000Y-125785714D01*
X196197619Y-125833333D01*
X196292857Y-125880952D01*
X196388095Y-125880952D01*
X196530952Y-125833333D01*
X197102380Y-125261904D01*
X197102380Y-125880952D01*
X197007142Y-126309523D02*
X197054761Y-126357142D01*
X197102380Y-126309523D01*
X197054761Y-126261904D01*
X197007142Y-126309523D01*
X197102380Y-126309523D01*
X196102380Y-126976190D02*
X196102380Y-127071428D01*
X196150000Y-127166666D01*
X196197619Y-127214285D01*
X196292857Y-127261904D01*
X196483333Y-127309523D01*
X196721428Y-127309523D01*
X196911904Y-127261904D01*
X197007142Y-127214285D01*
X197054761Y-127166666D01*
X197102380Y-127071428D01*
X197102380Y-126976190D01*
X197054761Y-126880952D01*
X197007142Y-126833333D01*
X196911904Y-126785714D01*
X196721428Y-126738095D01*
X196483333Y-126738095D01*
X196292857Y-126785714D01*
X196197619Y-126833333D01*
X196150000Y-126880952D01*
X196102380Y-126976190D01*
X198802380Y-114095238D02*
X197802380Y-114095238D01*
X197802380Y-114476190D01*
X197850000Y-114571428D01*
X197897619Y-114619047D01*
X197992857Y-114666666D01*
X198135714Y-114666666D01*
X198230952Y-114619047D01*
X198278571Y-114571428D01*
X198326190Y-114476190D01*
X198326190Y-114095238D01*
X198707142Y-115666666D02*
X198754761Y-115619047D01*
X198802380Y-115476190D01*
X198802380Y-115380952D01*
X198754761Y-115238095D01*
X198659523Y-115142857D01*
X198564285Y-115095238D01*
X198373809Y-115047619D01*
X198230952Y-115047619D01*
X198040476Y-115095238D01*
X197945238Y-115142857D01*
X197850000Y-115238095D01*
X197802380Y-115380952D01*
X197802380Y-115476190D01*
X197850000Y-115619047D01*
X197897619Y-115666666D01*
X198278571Y-116428571D02*
X198326190Y-116571428D01*
X198373809Y-116619047D01*
X198469047Y-116666666D01*
X198611904Y-116666666D01*
X198707142Y-116619047D01*
X198754761Y-116571428D01*
X198802380Y-116476190D01*
X198802380Y-116095238D01*
X197802380Y-116095238D01*
X197802380Y-116428571D01*
X197850000Y-116523809D01*
X197897619Y-116571428D01*
X197992857Y-116619047D01*
X198088095Y-116619047D01*
X198183333Y-116571428D01*
X198230952Y-116523809D01*
X198278571Y-116428571D01*
X198278571Y-116095238D01*
X198802380Y-117857142D02*
X197802380Y-117857142D01*
X197802380Y-118095238D01*
X197850000Y-118238095D01*
X197945238Y-118333333D01*
X198040476Y-118380952D01*
X198230952Y-118428571D01*
X198373809Y-118428571D01*
X198564285Y-118380952D01*
X198659523Y-118333333D01*
X198754761Y-118238095D01*
X198802380Y-118095238D01*
X198802380Y-117857142D01*
X198754761Y-119238095D02*
X198802380Y-119142857D01*
X198802380Y-118952380D01*
X198754761Y-118857142D01*
X198659523Y-118809523D01*
X198278571Y-118809523D01*
X198183333Y-118857142D01*
X198135714Y-118952380D01*
X198135714Y-119142857D01*
X198183333Y-119238095D01*
X198278571Y-119285714D01*
X198373809Y-119285714D01*
X198469047Y-118809523D01*
X198754761Y-119666666D02*
X198802380Y-119761904D01*
X198802380Y-119952380D01*
X198754761Y-120047619D01*
X198659523Y-120095238D01*
X198611904Y-120095238D01*
X198516666Y-120047619D01*
X198469047Y-119952380D01*
X198469047Y-119809523D01*
X198421428Y-119714285D01*
X198326190Y-119666666D01*
X198278571Y-119666666D01*
X198183333Y-119714285D01*
X198135714Y-119809523D01*
X198135714Y-119952380D01*
X198183333Y-120047619D01*
X198802380Y-120523809D02*
X198135714Y-120523809D01*
X197802380Y-120523809D02*
X197850000Y-120476190D01*
X197897619Y-120523809D01*
X197850000Y-120571428D01*
X197802380Y-120523809D01*
X197897619Y-120523809D01*
X198135714Y-121428571D02*
X198945238Y-121428571D01*
X199040476Y-121380952D01*
X199088095Y-121333333D01*
X199135714Y-121238095D01*
X199135714Y-121095238D01*
X199088095Y-121000000D01*
X198754761Y-121428571D02*
X198802380Y-121333333D01*
X198802380Y-121142857D01*
X198754761Y-121047619D01*
X198707142Y-121000000D01*
X198611904Y-120952380D01*
X198326190Y-120952380D01*
X198230952Y-121000000D01*
X198183333Y-121047619D01*
X198135714Y-121142857D01*
X198135714Y-121333333D01*
X198183333Y-121428571D01*
X198135714Y-121904761D02*
X198802380Y-121904761D01*
X198230952Y-121904761D02*
X198183333Y-121952380D01*
X198135714Y-122047619D01*
X198135714Y-122190476D01*
X198183333Y-122285714D01*
X198278571Y-122333333D01*
X198802380Y-122333333D01*
X198754761Y-123190476D02*
X198802380Y-123095238D01*
X198802380Y-122904761D01*
X198754761Y-122809523D01*
X198659523Y-122761904D01*
X198278571Y-122761904D01*
X198183333Y-122809523D01*
X198135714Y-122904761D01*
X198135714Y-123095238D01*
X198183333Y-123190476D01*
X198278571Y-123238095D01*
X198373809Y-123238095D01*
X198469047Y-122761904D01*
X198802380Y-124095238D02*
X197802380Y-124095238D01*
X198754761Y-124095238D02*
X198802380Y-124000000D01*
X198802380Y-123809523D01*
X198754761Y-123714285D01*
X198707142Y-123666666D01*
X198611904Y-123619047D01*
X198326190Y-123619047D01*
X198230952Y-123666666D01*
X198183333Y-123714285D01*
X198135714Y-123809523D01*
X198135714Y-124000000D01*
X198183333Y-124095238D01*
X198802380Y-125333333D02*
X197802380Y-125333333D01*
X198183333Y-125333333D02*
X198135714Y-125428571D01*
X198135714Y-125619047D01*
X198183333Y-125714285D01*
X198230952Y-125761904D01*
X198326190Y-125809523D01*
X198611904Y-125809523D01*
X198707142Y-125761904D01*
X198754761Y-125714285D01*
X198802380Y-125619047D01*
X198802380Y-125428571D01*
X198754761Y-125333333D01*
X198135714Y-126142857D02*
X198802380Y-126380952D01*
X198135714Y-126619047D02*
X198802380Y-126380952D01*
X199040476Y-126285714D01*
X199088095Y-126238095D01*
X199135714Y-126142857D01*
X198802380Y-127904761D02*
X198754761Y-127809523D01*
X198659523Y-127761904D01*
X197802380Y-127761904D01*
X198802380Y-128285714D02*
X198135714Y-128285714D01*
X197802380Y-128285714D02*
X197850000Y-128238095D01*
X197897619Y-128285714D01*
X197850000Y-128333333D01*
X197802380Y-128285714D01*
X197897619Y-128285714D01*
X198802380Y-128666666D02*
X198135714Y-129190476D01*
X198135714Y-128666666D02*
X198802380Y-129190476D01*
X198754761Y-129523809D02*
X198802380Y-129619047D01*
X198802380Y-129809523D01*
X198754761Y-129904761D01*
X198659523Y-129952380D01*
X198611904Y-129952380D01*
X198516666Y-129904761D01*
X198469047Y-129809523D01*
X198469047Y-129666666D01*
X198421428Y-129571428D01*
X198326190Y-129523809D01*
X198278571Y-129523809D01*
X198183333Y-129571428D01*
X198135714Y-129666666D01*
X198135714Y-129809523D01*
X198183333Y-129904761D01*
D11*
G36*
X194069085Y-132123975D02*
G01*
X194424143Y-132271045D01*
X194424145Y-132271046D01*
X194743690Y-132484559D01*
X195015441Y-132756310D01*
X195228954Y-133075855D01*
X195228955Y-133075857D01*
X195376025Y-133430915D01*
X195451000Y-133807842D01*
X195451000Y-134192158D01*
X195376025Y-134569085D01*
X195228955Y-134924143D01*
X195228954Y-134924145D01*
X195015441Y-135243690D01*
X194743690Y-135515441D01*
X194424145Y-135728954D01*
X194424144Y-135728955D01*
X194424143Y-135728955D01*
X194069085Y-135876025D01*
X193692158Y-135951000D01*
X193307842Y-135951000D01*
X192930915Y-135876025D01*
X192575857Y-135728955D01*
X192575856Y-135728955D01*
X192575855Y-135728954D01*
X192256310Y-135515441D01*
X191984559Y-135243690D01*
X191771046Y-134924145D01*
X191771045Y-134924143D01*
X191623975Y-134569085D01*
X191549000Y-134192158D01*
X191549000Y-133807842D01*
X191623975Y-133430915D01*
X191771045Y-133075857D01*
X191771046Y-133075855D01*
X191984559Y-132756310D01*
X192256310Y-132484559D01*
X192575855Y-132271046D01*
X192575857Y-132271045D01*
X192930915Y-132123975D01*
X193307842Y-132049000D01*
X193692158Y-132049000D01*
X194069085Y-132123975D01*
X194069085Y-132123975D01*
G37*
G36*
X101569085Y-130123975D02*
G01*
X101924143Y-130271045D01*
X101924145Y-130271046D01*
X102243690Y-130484559D01*
X102515441Y-130756310D01*
X102728954Y-131075855D01*
X102728955Y-131075857D01*
X102876025Y-131430915D01*
X102951000Y-131807842D01*
X102951000Y-132192158D01*
X102876025Y-132569085D01*
X102798473Y-132756311D01*
X102728954Y-132924145D01*
X102515441Y-133243690D01*
X102243690Y-133515441D01*
X101924145Y-133728954D01*
X101924144Y-133728955D01*
X101924143Y-133728955D01*
X101569085Y-133876025D01*
X101192158Y-133951000D01*
X100807842Y-133951000D01*
X100430915Y-133876025D01*
X100075857Y-133728955D01*
X100075856Y-133728955D01*
X100075855Y-133728954D01*
X99756310Y-133515441D01*
X99484559Y-133243690D01*
X99271046Y-132924145D01*
X99201527Y-132756311D01*
X99123975Y-132569085D01*
X99049000Y-132192158D01*
X99049000Y-131807842D01*
X99123975Y-131430915D01*
X99271045Y-131075857D01*
X99271046Y-131075855D01*
X99484559Y-130756310D01*
X99756310Y-130484559D01*
X100075855Y-130271046D01*
X100075857Y-130271045D01*
X100430915Y-130123975D01*
X100807842Y-130049000D01*
X101192158Y-130049000D01*
X101569085Y-130123975D01*
X101569085Y-130123975D01*
G37*
G36*
X138069085Y-112623975D02*
G01*
X138424143Y-112771045D01*
X138424145Y-112771046D01*
X138743690Y-112984559D01*
X139015441Y-113256310D01*
X139228954Y-113575855D01*
X139228955Y-113575857D01*
X139376025Y-113930915D01*
X139451000Y-114307842D01*
X139451000Y-114692158D01*
X139376025Y-115069085D01*
X139228955Y-115424143D01*
X139228954Y-115424145D01*
X139015441Y-115743690D01*
X138743690Y-116015441D01*
X138424145Y-116228954D01*
X138424144Y-116228955D01*
X138424143Y-116228955D01*
X138069085Y-116376025D01*
X137692158Y-116451000D01*
X137307842Y-116451000D01*
X136930915Y-116376025D01*
X136575857Y-116228955D01*
X136575856Y-116228955D01*
X136575855Y-116228954D01*
X136256310Y-116015441D01*
X135984559Y-115743690D01*
X135771046Y-115424145D01*
X135771045Y-115424143D01*
X135623975Y-115069085D01*
X135549000Y-114692158D01*
X135549000Y-114307842D01*
X135623975Y-113930915D01*
X135771045Y-113575857D01*
X135771046Y-113575855D01*
X135984559Y-113256310D01*
X136256310Y-112984559D01*
X136575855Y-112771046D01*
X136575857Y-112771045D01*
X136930915Y-112623975D01*
X137307842Y-112549000D01*
X137692158Y-112549000D01*
X138069085Y-112623975D01*
X138069085Y-112623975D01*
G37*
G36*
X157069085Y-73623975D02*
G01*
X157424143Y-73771045D01*
X157424145Y-73771046D01*
X157743690Y-73984559D01*
X158015441Y-74256310D01*
X158228954Y-74575855D01*
X158228955Y-74575857D01*
X158376025Y-74930915D01*
X158451000Y-75307842D01*
X158451000Y-75692158D01*
X158376025Y-76069085D01*
X158228955Y-76424143D01*
X158228954Y-76424145D01*
X158015441Y-76743690D01*
X157743690Y-77015441D01*
X157424145Y-77228954D01*
X157424144Y-77228955D01*
X157424143Y-77228955D01*
X157069085Y-77376025D01*
X156692158Y-77451000D01*
X156307842Y-77451000D01*
X155930915Y-77376025D01*
X155575857Y-77228955D01*
X155575856Y-77228955D01*
X155575855Y-77228954D01*
X155256310Y-77015441D01*
X154984559Y-76743690D01*
X154771046Y-76424145D01*
X154771045Y-76424143D01*
X154623975Y-76069085D01*
X154549000Y-75692158D01*
X154549000Y-75307842D01*
X154623975Y-74930915D01*
X154771045Y-74575857D01*
X154771046Y-74575855D01*
X154984559Y-74256310D01*
X155256310Y-73984559D01*
X155575855Y-73771046D01*
X155575857Y-73771045D01*
X155930915Y-73623975D01*
X156307842Y-73549000D01*
X156692158Y-73549000D01*
X157069085Y-73623975D01*
X157069085Y-73623975D01*
G37*
G36*
X100069085Y-73623975D02*
G01*
X100424143Y-73771045D01*
X100424145Y-73771046D01*
X100743690Y-73984559D01*
X101015441Y-74256310D01*
X101228954Y-74575855D01*
X101228955Y-74575857D01*
X101376025Y-74930915D01*
X101451000Y-75307842D01*
X101451000Y-75692158D01*
X101376025Y-76069085D01*
X101228955Y-76424143D01*
X101228954Y-76424145D01*
X101015441Y-76743690D01*
X100743690Y-77015441D01*
X100424145Y-77228954D01*
X100424144Y-77228955D01*
X100424143Y-77228955D01*
X100069085Y-77376025D01*
X99692158Y-77451000D01*
X99307842Y-77451000D01*
X98930915Y-77376025D01*
X98575857Y-77228955D01*
X98575856Y-77228955D01*
X98575855Y-77228954D01*
X98256310Y-77015441D01*
X97984559Y-76743690D01*
X97771046Y-76424145D01*
X97771045Y-76424143D01*
X97623975Y-76069085D01*
X97549000Y-75692158D01*
X97549000Y-75307842D01*
X97623975Y-74930915D01*
X97771045Y-74575857D01*
X97771046Y-74575855D01*
X97984559Y-74256310D01*
X98256310Y-73984559D01*
X98575855Y-73771046D01*
X98575857Y-73771045D01*
X98930915Y-73623975D01*
X99307842Y-73549000D01*
X99692158Y-73549000D01*
X100069085Y-73623975D01*
X100069085Y-73623975D01*
G37*
M02*
