M48
; DRILL file {KiCad (5.1.2)-2} date 2020/04/16 23:40:13
; FORMAT={-:-/ absolute / metric / decimal}
; #@! TF.CreationDate,2020-04-16T23:40:13+09:00
; #@! TF.GenerationSoftware,Kicad,Pcbnew,(5.1.2)-2
; #@! TF.FileFunction,NonPlated,1,2,NPTH
FMAT,2
METRIC
T1C1.200
T2C1.700
T3C1.900
T4C3.000
T5C4.000
T6C4.700
%
G90
G05
T1
X223.25Y-62.0
X223.25Y-69.0
X225.0Y-62.0
X225.0Y-69.0
T2
X146.92Y-85.0
X157.08Y-85.0
X151.67Y-127.5
X161.83Y-127.5
X108.92Y-72.0
X119.08Y-72.0
X108.92Y-106.0
X119.08Y-106.0
X165.92Y-92.0
X176.08Y-92.0
X165.92Y-109.0
X176.08Y-109.0
X184.92Y-75.5
X195.08Y-75.5
X210.271Y-132.881
X220.129Y-135.339
X130.29Y-126.0
X140.45Y-126.0
X184.92Y-109.5
X195.08Y-109.5
X146.92Y-102.0
X157.08Y-102.0
X191.841Y-128.291
X201.699Y-130.749
X165.92Y-75.0
X176.08Y-75.0
X108.92Y-123.0
X119.08Y-123.0
X184.92Y-92.5
X195.08Y-92.5
X127.92Y-73.0
X138.08Y-73.0
X146.92Y-68.0
X157.08Y-68.0
X127.92Y-107.0
X138.08Y-107.0
X108.92Y-89.0
X119.08Y-89.0
X170.67Y-127.5
X180.83Y-127.5
X203.92Y-110.41
X214.08Y-110.41
X127.92Y-90.0
X138.08Y-90.0
T3
X146.5Y-102.0
X157.5Y-102.0
X191.433Y-128.189
X202.107Y-130.851
X165.5Y-75.0
X176.5Y-75.0
X108.5Y-123.0
X119.5Y-123.0
X184.5Y-92.5
X195.5Y-92.5
X127.5Y-73.0
X138.5Y-73.0
X146.5Y-68.0
X157.5Y-68.0
X127.5Y-107.0
X138.5Y-107.0
X108.5Y-89.0
X119.5Y-89.0
X170.25Y-127.5
X181.25Y-127.5
X203.5Y-110.41
X214.5Y-110.41
X127.5Y-90.0
X138.5Y-90.0
X146.5Y-85.0
X157.5Y-85.0
X151.25Y-127.5
X162.25Y-127.5
X108.5Y-72.0
X119.5Y-72.0
X108.5Y-106.0
X119.5Y-106.0
X165.5Y-92.0
X176.5Y-92.0
X165.5Y-109.0
X176.5Y-109.0
X184.5Y-75.5
X195.5Y-75.5
X209.863Y-132.779
X220.537Y-135.441
X129.87Y-126.0
X140.87Y-126.0
X184.5Y-109.5
X195.5Y-109.5
T4
X109.0Y-92.7
X110.19Y-86.46
X111.46Y-83.92
X114.0Y-94.9
X116.54Y-83.92
X117.81Y-86.46
X119.0Y-92.7
X170.75Y-131.2
X171.94Y-124.96
X173.21Y-122.42
X175.75Y-133.4
X178.29Y-122.42
X179.56Y-124.96
X180.75Y-131.2
X204.0Y-114.11
X205.19Y-107.87
X206.46Y-105.33
X209.0Y-116.31
X211.54Y-105.33
X212.81Y-107.87
X214.0Y-114.11
X128.0Y-93.7
X129.19Y-87.46
X130.46Y-84.92
X133.0Y-95.9
X135.54Y-84.92
X136.81Y-87.46
X138.0Y-93.7
X147.0Y-88.7
X148.19Y-82.46
X149.46Y-79.92
X152.0Y-90.9
X154.54Y-79.92
X155.81Y-82.46
X157.0Y-88.7
X151.75Y-131.2
X152.94Y-124.96
X154.21Y-122.42
X156.75Y-133.4
X159.29Y-122.42
X160.56Y-124.96
X161.75Y-131.2
X109.0Y-75.7
X110.19Y-69.46
X111.46Y-66.92
X114.0Y-77.9
X116.54Y-66.92
X117.81Y-69.46
X119.0Y-75.7
X109.0Y-109.7
X110.19Y-103.46
X111.46Y-100.92
X114.0Y-111.9
X116.54Y-100.92
X117.81Y-103.46
X119.0Y-109.7
X166.0Y-95.7
X167.19Y-89.46
X168.46Y-86.92
X171.0Y-97.9
X173.54Y-86.92
X174.81Y-89.46
X176.0Y-95.7
X166.0Y-112.7
X167.19Y-106.46
X168.46Y-103.92
X171.0Y-114.9
X173.54Y-103.92
X174.81Y-106.46
X176.0Y-112.7
X185.0Y-79.2
X186.19Y-72.96
X187.46Y-70.42
X190.0Y-81.4
X192.54Y-70.42
X193.81Y-72.96
X195.0Y-79.2
X209.453Y-136.49
X212.118Y-130.724
X213.773Y-139.835
X213.964Y-128.566
X218.894Y-129.795
X219.156Y-138.91
X219.511Y-132.567
X130.37Y-129.7
X131.56Y-123.46
X132.83Y-120.92
X135.37Y-131.9
X137.91Y-120.92
X139.18Y-123.46
X140.37Y-129.7
X185.0Y-113.2
X186.19Y-106.96
X187.46Y-104.42
X190.0Y-115.4
X192.54Y-104.42
X193.81Y-106.96
X195.0Y-113.2
X147.0Y-105.7
X148.19Y-99.46
X149.46Y-96.92
X152.0Y-107.9
X154.54Y-96.92
X155.81Y-99.46
X157.0Y-105.7
X191.023Y-131.9
X193.688Y-126.134
X195.343Y-135.245
X195.534Y-123.976
X200.464Y-125.205
X200.726Y-134.32
X201.081Y-127.977
X166.0Y-78.7
X167.19Y-72.46
X168.46Y-69.92
X171.0Y-80.9
X173.54Y-69.92
X174.81Y-72.46
X176.0Y-78.7
X109.0Y-126.7
X110.19Y-120.46
X111.46Y-117.92
X114.0Y-128.9
X116.54Y-117.92
X117.81Y-120.46
X119.0Y-126.7
X185.0Y-96.2
X186.19Y-89.96
X187.46Y-87.42
X190.0Y-98.4
X192.54Y-87.42
X193.81Y-89.96
X195.0Y-96.2
X128.0Y-76.7
X129.19Y-70.46
X130.46Y-67.92
X133.0Y-78.9
X135.54Y-67.92
X136.81Y-70.46
X138.0Y-76.7
X147.0Y-71.7
X148.19Y-65.46
X149.46Y-62.92
X152.0Y-73.9
X154.54Y-62.92
X155.81Y-65.46
X157.0Y-71.7
X128.0Y-110.7
X129.19Y-104.46
X130.46Y-101.92
X133.0Y-112.9
X135.54Y-101.92
X136.81Y-104.46
X138.0Y-110.7
T5
X114.0Y-106.0
X171.0Y-92.0
X171.0Y-109.0
X190.0Y-75.5
X215.2Y-134.11
X135.37Y-126.0
X190.0Y-109.5
X152.0Y-102.0
X196.77Y-129.52
X171.0Y-75.0
X114.0Y-123.0
X190.0Y-92.5
X133.0Y-73.0
X152.0Y-68.0
X133.0Y-107.0
X114.0Y-89.0
X175.75Y-127.5
X209.0Y-110.41
X133.0Y-90.0
X152.0Y-85.0
X156.75Y-127.5
X114.0Y-72.0
T6
X123.5Y-63.5
X180.5Y-63.5
X161.5Y-102.5
X217.5Y-122.0
X125.0Y-120.0
T0
M30
