G04 #@! TF.GenerationSoftware,KiCad,Pcbnew,(5.1.2)-2*
G04 #@! TF.CreationDate,2020-04-16T23:41:48+09:00*
G04 #@! TF.ProjectId,17mm ProMicro Cover,31376d6d-2050-4726-9f4d-6963726f2043,rev?*
G04 #@! TF.SameCoordinates,Original*
G04 #@! TF.FileFunction,Copper,L2,Bot*
G04 #@! TF.FilePolarity,Positive*
%FSLAX46Y46*%
G04 Gerber Fmt 4.6, Leading zero omitted, Abs format (unit mm)*
G04 Created by KiCad (PCBNEW (5.1.2)-2) date 2020-04-16 23:41:48*
%MOMM*%
%LPD*%
G04 APERTURE LIST*
%ADD10C,3.800000*%
%ADD11O,1.500000X2.500000*%
%ADD12C,1.200000*%
%ADD13C,1.200000*%
%ADD14C,1.500000*%
%ADD15C,1.500000*%
%ADD16C,2.700000*%
%ADD17C,0.254000*%
G04 APERTURE END LIST*
D10*
X165500000Y-118500000D03*
X165500000Y-99500000D03*
X143500000Y-118500000D03*
D11*
X154500000Y-87100000D03*
D12*
X159600000Y-89100000D03*
D13*
X159246447Y-88746447D02*
X159953553Y-89453553D01*
D12*
X149400000Y-89100000D03*
D13*
X149046447Y-89453553D02*
X149753553Y-88746447D01*
D14*
X150690000Y-90460000D03*
D15*
X150230381Y-90919619D02*
X151149619Y-90000381D01*
D14*
X158310000Y-90460000D03*
D15*
X157850381Y-90000381D02*
X158769619Y-90919619D01*
D16*
X151960000Y-87920000D03*
X157040000Y-87920000D03*
X157040000Y-106920000D03*
X151960000Y-106920000D03*
D14*
X158310000Y-109460000D03*
D15*
X157850381Y-109000381D02*
X158769619Y-109919619D01*
D14*
X150690000Y-109460000D03*
D15*
X150230381Y-109919619D02*
X151149619Y-109000381D01*
D12*
X149400000Y-108100000D03*
D13*
X149046447Y-108453553D02*
X149753553Y-107746447D01*
D12*
X159600000Y-108100000D03*
D13*
X159246447Y-107746447D02*
X159953553Y-108453553D01*
D11*
X154500000Y-106100000D03*
D17*
G36*
X167259659Y-80688625D02*
G01*
X167509429Y-80764035D01*
X167739792Y-80886522D01*
X167941980Y-81051422D01*
X168108286Y-81252450D01*
X168232378Y-81481954D01*
X168309531Y-81731195D01*
X168340000Y-82021089D01*
X168340001Y-119967711D01*
X168311375Y-120259660D01*
X168235965Y-120509429D01*
X168113477Y-120739794D01*
X167948579Y-120941979D01*
X167747546Y-121108288D01*
X167518046Y-121232378D01*
X167268805Y-121309531D01*
X166978911Y-121340000D01*
X142032279Y-121340000D01*
X141740340Y-121311375D01*
X141490571Y-121235965D01*
X141260206Y-121113477D01*
X141058021Y-120948579D01*
X140891712Y-120747546D01*
X140767622Y-120518046D01*
X140690469Y-120268805D01*
X140660000Y-119978911D01*
X140660000Y-118250324D01*
X140965000Y-118250324D01*
X140965000Y-118749676D01*
X141062418Y-119239432D01*
X141253512Y-119700773D01*
X141530937Y-120115968D01*
X141884032Y-120469063D01*
X142299227Y-120746488D01*
X142760568Y-120937582D01*
X143250324Y-121035000D01*
X143749676Y-121035000D01*
X144239432Y-120937582D01*
X144700773Y-120746488D01*
X145115968Y-120469063D01*
X145469063Y-120115968D01*
X145746488Y-119700773D01*
X145937582Y-119239432D01*
X146035000Y-118749676D01*
X146035000Y-118250324D01*
X162965000Y-118250324D01*
X162965000Y-118749676D01*
X163062418Y-119239432D01*
X163253512Y-119700773D01*
X163530937Y-120115968D01*
X163884032Y-120469063D01*
X164299227Y-120746488D01*
X164760568Y-120937582D01*
X165250324Y-121035000D01*
X165749676Y-121035000D01*
X166239432Y-120937582D01*
X166700773Y-120746488D01*
X167115968Y-120469063D01*
X167469063Y-120115968D01*
X167746488Y-119700773D01*
X167937582Y-119239432D01*
X168035000Y-118749676D01*
X168035000Y-118250324D01*
X167937582Y-117760568D01*
X167746488Y-117299227D01*
X167469063Y-116884032D01*
X167115968Y-116530937D01*
X166700773Y-116253512D01*
X166239432Y-116062418D01*
X165749676Y-115965000D01*
X165250324Y-115965000D01*
X164760568Y-116062418D01*
X164299227Y-116253512D01*
X163884032Y-116530937D01*
X163530937Y-116884032D01*
X163253512Y-117299227D01*
X163062418Y-117760568D01*
X162965000Y-118250324D01*
X146035000Y-118250324D01*
X145937582Y-117760568D01*
X145746488Y-117299227D01*
X145469063Y-116884032D01*
X145115968Y-116530937D01*
X144700773Y-116253512D01*
X144301705Y-116088212D01*
X148145000Y-116088212D01*
X148145000Y-116311788D01*
X148188617Y-116531067D01*
X148274176Y-116737624D01*
X148398388Y-116923520D01*
X148556480Y-117081612D01*
X148742376Y-117205824D01*
X148948933Y-117291383D01*
X149168212Y-117335000D01*
X149391788Y-117335000D01*
X149611067Y-117291383D01*
X149817624Y-117205824D01*
X150003520Y-117081612D01*
X150161612Y-116923520D01*
X150285824Y-116737624D01*
X150371383Y-116531067D01*
X150415000Y-116311788D01*
X150415000Y-116088212D01*
X158585000Y-116088212D01*
X158585000Y-116311788D01*
X158628617Y-116531067D01*
X158714176Y-116737624D01*
X158838388Y-116923520D01*
X158996480Y-117081612D01*
X159182376Y-117205824D01*
X159388933Y-117291383D01*
X159608212Y-117335000D01*
X159831788Y-117335000D01*
X160051067Y-117291383D01*
X160257624Y-117205824D01*
X160443520Y-117081612D01*
X160601612Y-116923520D01*
X160725824Y-116737624D01*
X160811383Y-116531067D01*
X160855000Y-116311788D01*
X160855000Y-116088212D01*
X160811383Y-115868933D01*
X160725824Y-115662376D01*
X160601612Y-115476480D01*
X160443520Y-115318388D01*
X160257624Y-115194176D01*
X160051067Y-115108617D01*
X159831788Y-115065000D01*
X159608212Y-115065000D01*
X159388933Y-115108617D01*
X159182376Y-115194176D01*
X158996480Y-115318388D01*
X158838388Y-115476480D01*
X158714176Y-115662376D01*
X158628617Y-115868933D01*
X158585000Y-116088212D01*
X150415000Y-116088212D01*
X150371383Y-115868933D01*
X150285824Y-115662376D01*
X150161612Y-115476480D01*
X150003520Y-115318388D01*
X149817624Y-115194176D01*
X149611067Y-115108617D01*
X149391788Y-115065000D01*
X149168212Y-115065000D01*
X148948933Y-115108617D01*
X148742376Y-115194176D01*
X148556480Y-115318388D01*
X148398388Y-115476480D01*
X148274176Y-115662376D01*
X148188617Y-115868933D01*
X148145000Y-116088212D01*
X144301705Y-116088212D01*
X144239432Y-116062418D01*
X143749676Y-115965000D01*
X143250324Y-115965000D01*
X142760568Y-116062418D01*
X142299227Y-116253512D01*
X141884032Y-116530937D01*
X141530937Y-116884032D01*
X141253512Y-117299227D01*
X141062418Y-117760568D01*
X140965000Y-118250324D01*
X140660000Y-118250324D01*
X140660000Y-111843891D01*
X147415000Y-111843891D01*
X147415000Y-112156109D01*
X147475911Y-112462327D01*
X147595391Y-112750779D01*
X147768850Y-113010379D01*
X147989621Y-113231150D01*
X148249221Y-113404609D01*
X148537673Y-113524089D01*
X148843891Y-113585000D01*
X149156109Y-113585000D01*
X149462327Y-113524089D01*
X149556697Y-113485000D01*
X149566260Y-113485000D01*
X149853158Y-113427932D01*
X150123411Y-113315990D01*
X150366632Y-113153475D01*
X150573475Y-112946632D01*
X150735990Y-112703411D01*
X150847932Y-112433158D01*
X150905000Y-112146260D01*
X150905000Y-111853740D01*
X150882471Y-111740475D01*
X151865000Y-111740475D01*
X151865000Y-112259525D01*
X151966261Y-112768601D01*
X152164893Y-113248141D01*
X152453262Y-113679715D01*
X152820285Y-114046738D01*
X153251859Y-114335107D01*
X153731399Y-114533739D01*
X154240475Y-114635000D01*
X154759525Y-114635000D01*
X155268601Y-114533739D01*
X155748141Y-114335107D01*
X156179715Y-114046738D01*
X156546738Y-113679715D01*
X156835107Y-113248141D01*
X157033739Y-112768601D01*
X157135000Y-112259525D01*
X157135000Y-111740475D01*
X157033739Y-111231399D01*
X156835107Y-110751859D01*
X156546738Y-110320285D01*
X156179715Y-109953262D01*
X155748141Y-109664893D01*
X155268601Y-109466261D01*
X154759525Y-109365000D01*
X154240475Y-109365000D01*
X153731399Y-109466261D01*
X153251859Y-109664893D01*
X152820285Y-109953262D01*
X152453262Y-110320285D01*
X152164893Y-110751859D01*
X151966261Y-111231399D01*
X151865000Y-111740475D01*
X150882471Y-111740475D01*
X150847932Y-111566842D01*
X150735990Y-111296589D01*
X150690115Y-111227932D01*
X150894249Y-111141762D01*
X151119921Y-110988765D01*
X151579540Y-110529145D01*
X150690000Y-109639605D01*
X150675858Y-109653748D01*
X150496253Y-109474143D01*
X150510395Y-109460000D01*
X150148474Y-109098079D01*
X150183474Y-109063079D01*
X149400000Y-108279605D01*
X148380542Y-109299063D01*
X148427125Y-109522042D01*
X148456501Y-109545944D01*
X148680952Y-109640046D01*
X148867005Y-109677886D01*
X148847217Y-109773979D01*
X148845381Y-110046619D01*
X148896770Y-110314379D01*
X148937657Y-110415000D01*
X148843891Y-110415000D01*
X148537673Y-110475911D01*
X148249221Y-110595391D01*
X147989621Y-110768850D01*
X147768850Y-110989621D01*
X147595391Y-111249221D01*
X147475911Y-111537673D01*
X147415000Y-111843891D01*
X140660000Y-111843891D01*
X140660000Y-108337176D01*
X147810401Y-108337176D01*
X147811448Y-108580553D01*
X147859954Y-108819048D01*
X147954056Y-109043499D01*
X147977958Y-109072875D01*
X148200937Y-109119458D01*
X149220395Y-108100000D01*
X148436921Y-107316526D01*
X148083367Y-107670079D01*
X147949025Y-107873021D01*
X147856855Y-108098272D01*
X147810401Y-108337176D01*
X140660000Y-108337176D01*
X140660000Y-107136921D01*
X148616526Y-107136921D01*
X149400000Y-107920395D01*
X149414143Y-107906253D01*
X149593748Y-108085858D01*
X149579605Y-108100000D01*
X149835460Y-108355855D01*
X149800460Y-108390855D01*
X150690000Y-109280395D01*
X150704143Y-109266253D01*
X150883748Y-109445858D01*
X150869605Y-109460000D01*
X151759145Y-110349540D01*
X152218765Y-109889921D01*
X152371762Y-109664249D01*
X152477793Y-109413064D01*
X152532783Y-109146021D01*
X152534619Y-108873381D01*
X152525107Y-108823820D01*
X152768116Y-108743568D01*
X153027276Y-108605044D01*
X153165233Y-108304838D01*
X151960000Y-107099605D01*
X151945858Y-107113748D01*
X151766253Y-106934143D01*
X151780395Y-106920000D01*
X150575162Y-105714767D01*
X150274956Y-105852724D01*
X150099118Y-106201967D01*
X150006357Y-106537034D01*
X149880553Y-106511448D01*
X149637176Y-106510401D01*
X149398272Y-106556855D01*
X149173021Y-106649025D01*
X148970079Y-106783367D01*
X148616526Y-107136921D01*
X140660000Y-107136921D01*
X140660000Y-105535162D01*
X150754767Y-105535162D01*
X151960000Y-106740395D01*
X151974143Y-106726253D01*
X152153748Y-106905858D01*
X152139605Y-106920000D01*
X153344838Y-108125233D01*
X153645044Y-107987276D01*
X153753676Y-107771515D01*
X153967420Y-107885764D01*
X154228494Y-107964960D01*
X154500000Y-107991701D01*
X154771507Y-107964960D01*
X155032581Y-107885764D01*
X155244553Y-107772463D01*
X155280915Y-107860250D01*
X155498149Y-108185364D01*
X155774636Y-108461851D01*
X156099750Y-108679085D01*
X156460997Y-108828718D01*
X156475307Y-108831564D01*
X156458681Y-109000381D01*
X156485421Y-109271888D01*
X156564617Y-109532961D01*
X156693225Y-109773569D01*
X156822929Y-109931614D01*
X157838386Y-110947071D01*
X157996431Y-111076776D01*
X158237038Y-111205383D01*
X158310136Y-111227557D01*
X158264010Y-111296589D01*
X158152068Y-111566842D01*
X158095000Y-111853740D01*
X158095000Y-112146260D01*
X158152068Y-112433158D01*
X158264010Y-112703411D01*
X158426525Y-112946632D01*
X158633368Y-113153475D01*
X158876589Y-113315990D01*
X159146842Y-113427932D01*
X159433740Y-113485000D01*
X159443303Y-113485000D01*
X159537673Y-113524089D01*
X159843891Y-113585000D01*
X160156109Y-113585000D01*
X160462327Y-113524089D01*
X160750779Y-113404609D01*
X161010379Y-113231150D01*
X161231150Y-113010379D01*
X161404609Y-112750779D01*
X161524089Y-112462327D01*
X161585000Y-112156109D01*
X161585000Y-111843891D01*
X161524089Y-111537673D01*
X161404609Y-111249221D01*
X161231150Y-110989621D01*
X161010379Y-110768850D01*
X160750779Y-110595391D01*
X160462327Y-110475911D01*
X160156109Y-110415000D01*
X160066667Y-110415000D01*
X160134579Y-110191126D01*
X160161319Y-109919619D01*
X160137423Y-109676986D01*
X160319048Y-109640046D01*
X160543499Y-109545944D01*
X160572875Y-109522042D01*
X160619458Y-109299063D01*
X159600000Y-108279605D01*
X159585858Y-108293748D01*
X159406253Y-108114143D01*
X159420395Y-108100000D01*
X159779605Y-108100000D01*
X160799063Y-109119458D01*
X161022042Y-109072875D01*
X161045944Y-109043499D01*
X161140046Y-108819048D01*
X161188552Y-108580553D01*
X161189599Y-108337176D01*
X161143145Y-108098272D01*
X161050975Y-107873021D01*
X160916633Y-107670079D01*
X160563079Y-107316526D01*
X159779605Y-108100000D01*
X159420395Y-108100000D01*
X159406253Y-108085858D01*
X159585858Y-107906253D01*
X159600000Y-107920395D01*
X160383474Y-107136921D01*
X160029921Y-106783367D01*
X159826979Y-106649025D01*
X159601728Y-106556855D01*
X159362824Y-106510401D01*
X159119447Y-106511448D01*
X158987943Y-106538194D01*
X158948718Y-106340997D01*
X158799085Y-105979750D01*
X158581851Y-105654636D01*
X158305364Y-105378149D01*
X157980250Y-105160915D01*
X157619003Y-105011282D01*
X157235505Y-104935000D01*
X156844495Y-104935000D01*
X156460997Y-105011282D01*
X156099750Y-105160915D01*
X155862262Y-105319599D01*
X155785764Y-105067419D01*
X155657157Y-104826812D01*
X155484080Y-104615919D01*
X155273187Y-104442843D01*
X155032580Y-104314236D01*
X154771506Y-104235040D01*
X154500000Y-104208299D01*
X154228493Y-104235040D01*
X153967419Y-104314236D01*
X153726812Y-104442843D01*
X153515919Y-104615920D01*
X153342843Y-104826813D01*
X153214236Y-105067420D01*
X153135040Y-105328494D01*
X153123607Y-105444579D01*
X153027276Y-105234956D01*
X152678033Y-105059118D01*
X152301196Y-104954793D01*
X151911247Y-104925991D01*
X151523172Y-104973816D01*
X151151884Y-105096432D01*
X150892724Y-105234956D01*
X150754767Y-105535162D01*
X140660000Y-105535162D01*
X140660000Y-101276349D01*
X163903256Y-101276349D01*
X164107362Y-101632867D01*
X164550223Y-101863575D01*
X165029583Y-102003452D01*
X165527021Y-102047123D01*
X166023422Y-101992909D01*
X166499707Y-101842894D01*
X166892638Y-101632867D01*
X167096744Y-101276349D01*
X165500000Y-99679605D01*
X163903256Y-101276349D01*
X140660000Y-101276349D01*
X140660000Y-99527021D01*
X162952877Y-99527021D01*
X163007091Y-100023422D01*
X163157106Y-100499707D01*
X163367133Y-100892638D01*
X163723651Y-101096744D01*
X165320395Y-99500000D01*
X165679605Y-99500000D01*
X167276349Y-101096744D01*
X167632867Y-100892638D01*
X167863575Y-100449777D01*
X168003452Y-99970417D01*
X168047123Y-99472979D01*
X167992909Y-98976578D01*
X167842894Y-98500293D01*
X167632867Y-98107362D01*
X167276349Y-97903256D01*
X165679605Y-99500000D01*
X165320395Y-99500000D01*
X163723651Y-97903256D01*
X163367133Y-98107362D01*
X163136425Y-98550223D01*
X162996548Y-99029583D01*
X162952877Y-99527021D01*
X140660000Y-99527021D01*
X140660000Y-97088212D01*
X148145000Y-97088212D01*
X148145000Y-97311788D01*
X148188617Y-97531067D01*
X148274176Y-97737624D01*
X148398388Y-97923520D01*
X148556480Y-98081612D01*
X148742376Y-98205824D01*
X148948933Y-98291383D01*
X149168212Y-98335000D01*
X149391788Y-98335000D01*
X149611067Y-98291383D01*
X149817624Y-98205824D01*
X150003520Y-98081612D01*
X150161612Y-97923520D01*
X150285824Y-97737624D01*
X150371383Y-97531067D01*
X150415000Y-97311788D01*
X150415000Y-97088212D01*
X158585000Y-97088212D01*
X158585000Y-97311788D01*
X158628617Y-97531067D01*
X158714176Y-97737624D01*
X158838388Y-97923520D01*
X158996480Y-98081612D01*
X159182376Y-98205824D01*
X159388933Y-98291383D01*
X159608212Y-98335000D01*
X159831788Y-98335000D01*
X160051067Y-98291383D01*
X160257624Y-98205824D01*
X160443520Y-98081612D01*
X160601612Y-97923520D01*
X160725824Y-97737624D01*
X160731611Y-97723651D01*
X163903256Y-97723651D01*
X165500000Y-99320395D01*
X167096744Y-97723651D01*
X166892638Y-97367133D01*
X166449777Y-97136425D01*
X165970417Y-96996548D01*
X165472979Y-96952877D01*
X164976578Y-97007091D01*
X164500293Y-97157106D01*
X164107362Y-97367133D01*
X163903256Y-97723651D01*
X160731611Y-97723651D01*
X160811383Y-97531067D01*
X160855000Y-97311788D01*
X160855000Y-97088212D01*
X160811383Y-96868933D01*
X160725824Y-96662376D01*
X160601612Y-96476480D01*
X160443520Y-96318388D01*
X160257624Y-96194176D01*
X160051067Y-96108617D01*
X159831788Y-96065000D01*
X159608212Y-96065000D01*
X159388933Y-96108617D01*
X159182376Y-96194176D01*
X158996480Y-96318388D01*
X158838388Y-96476480D01*
X158714176Y-96662376D01*
X158628617Y-96868933D01*
X158585000Y-97088212D01*
X150415000Y-97088212D01*
X150371383Y-96868933D01*
X150285824Y-96662376D01*
X150161612Y-96476480D01*
X150003520Y-96318388D01*
X149817624Y-96194176D01*
X149611067Y-96108617D01*
X149391788Y-96065000D01*
X149168212Y-96065000D01*
X148948933Y-96108617D01*
X148742376Y-96194176D01*
X148556480Y-96318388D01*
X148398388Y-96476480D01*
X148274176Y-96662376D01*
X148188617Y-96868933D01*
X148145000Y-97088212D01*
X140660000Y-97088212D01*
X140660000Y-92843891D01*
X147415000Y-92843891D01*
X147415000Y-93156109D01*
X147475911Y-93462327D01*
X147595391Y-93750779D01*
X147768850Y-94010379D01*
X147989621Y-94231150D01*
X148249221Y-94404609D01*
X148537673Y-94524089D01*
X148843891Y-94585000D01*
X149156109Y-94585000D01*
X149462327Y-94524089D01*
X149556697Y-94485000D01*
X149566260Y-94485000D01*
X149853158Y-94427932D01*
X150123411Y-94315990D01*
X150366632Y-94153475D01*
X150573475Y-93946632D01*
X150735990Y-93703411D01*
X150847932Y-93433158D01*
X150905000Y-93146260D01*
X150905000Y-92853740D01*
X150882471Y-92740475D01*
X151865000Y-92740475D01*
X151865000Y-93259525D01*
X151966261Y-93768601D01*
X152164893Y-94248141D01*
X152453262Y-94679715D01*
X152820285Y-95046738D01*
X153251859Y-95335107D01*
X153731399Y-95533739D01*
X154240475Y-95635000D01*
X154759525Y-95635000D01*
X155268601Y-95533739D01*
X155748141Y-95335107D01*
X156179715Y-95046738D01*
X156546738Y-94679715D01*
X156835107Y-94248141D01*
X157033739Y-93768601D01*
X157135000Y-93259525D01*
X157135000Y-92740475D01*
X157033739Y-92231399D01*
X156835107Y-91751859D01*
X156546738Y-91320285D01*
X156179715Y-90953262D01*
X155748141Y-90664893D01*
X155268601Y-90466261D01*
X154759525Y-90365000D01*
X154240475Y-90365000D01*
X153731399Y-90466261D01*
X153251859Y-90664893D01*
X152820285Y-90953262D01*
X152453262Y-91320285D01*
X152164893Y-91751859D01*
X151966261Y-92231399D01*
X151865000Y-92740475D01*
X150882471Y-92740475D01*
X150847932Y-92566842D01*
X150735990Y-92296589D01*
X150690115Y-92227932D01*
X150894249Y-92141762D01*
X151119921Y-91988765D01*
X151579540Y-91529145D01*
X150690000Y-90639605D01*
X150675858Y-90653748D01*
X150496253Y-90474143D01*
X150510395Y-90460000D01*
X150148474Y-90098079D01*
X150183474Y-90063079D01*
X149400000Y-89279605D01*
X148380542Y-90299063D01*
X148427125Y-90522042D01*
X148456501Y-90545944D01*
X148680952Y-90640046D01*
X148867005Y-90677886D01*
X148847217Y-90773979D01*
X148845381Y-91046619D01*
X148896770Y-91314379D01*
X148937657Y-91415000D01*
X148843891Y-91415000D01*
X148537673Y-91475911D01*
X148249221Y-91595391D01*
X147989621Y-91768850D01*
X147768850Y-91989621D01*
X147595391Y-92249221D01*
X147475911Y-92537673D01*
X147415000Y-92843891D01*
X140660000Y-92843891D01*
X140660000Y-89337176D01*
X147810401Y-89337176D01*
X147811448Y-89580553D01*
X147859954Y-89819048D01*
X147954056Y-90043499D01*
X147977958Y-90072875D01*
X148200937Y-90119458D01*
X149220395Y-89100000D01*
X148436921Y-88316526D01*
X148083367Y-88670079D01*
X147949025Y-88873021D01*
X147856855Y-89098272D01*
X147810401Y-89337176D01*
X140660000Y-89337176D01*
X140660000Y-88136921D01*
X148616526Y-88136921D01*
X149400000Y-88920395D01*
X149414143Y-88906253D01*
X149593748Y-89085858D01*
X149579605Y-89100000D01*
X149835460Y-89355855D01*
X149800460Y-89390855D01*
X150690000Y-90280395D01*
X150704143Y-90266253D01*
X150883748Y-90445858D01*
X150869605Y-90460000D01*
X151759145Y-91349540D01*
X152218765Y-90889921D01*
X152371762Y-90664249D01*
X152477793Y-90413064D01*
X152532783Y-90146021D01*
X152534619Y-89873381D01*
X152525107Y-89823820D01*
X152768116Y-89743568D01*
X153027276Y-89605044D01*
X153165233Y-89304838D01*
X151960000Y-88099605D01*
X151945858Y-88113748D01*
X151766253Y-87934143D01*
X151780395Y-87920000D01*
X150575162Y-86714767D01*
X150274956Y-86852724D01*
X150099118Y-87201967D01*
X150006357Y-87537034D01*
X149880553Y-87511448D01*
X149637176Y-87510401D01*
X149398272Y-87556855D01*
X149173021Y-87649025D01*
X148970079Y-87783367D01*
X148616526Y-88136921D01*
X140660000Y-88136921D01*
X140660000Y-86535162D01*
X150754767Y-86535162D01*
X151960000Y-87740395D01*
X151974143Y-87726253D01*
X152153748Y-87905858D01*
X152139605Y-87920000D01*
X153344838Y-89125233D01*
X153645044Y-88987276D01*
X153753676Y-88771515D01*
X153967420Y-88885764D01*
X154228494Y-88964960D01*
X154500000Y-88991701D01*
X154771507Y-88964960D01*
X155032581Y-88885764D01*
X155244553Y-88772463D01*
X155280915Y-88860250D01*
X155498149Y-89185364D01*
X155774636Y-89461851D01*
X156099750Y-89679085D01*
X156460997Y-89828718D01*
X156475307Y-89831564D01*
X156458681Y-90000381D01*
X156485421Y-90271888D01*
X156564617Y-90532961D01*
X156693225Y-90773569D01*
X156822929Y-90931614D01*
X157838386Y-91947071D01*
X157996431Y-92076776D01*
X158237038Y-92205383D01*
X158310136Y-92227557D01*
X158264010Y-92296589D01*
X158152068Y-92566842D01*
X158095000Y-92853740D01*
X158095000Y-93146260D01*
X158152068Y-93433158D01*
X158264010Y-93703411D01*
X158426525Y-93946632D01*
X158633368Y-94153475D01*
X158876589Y-94315990D01*
X159146842Y-94427932D01*
X159433740Y-94485000D01*
X159443303Y-94485000D01*
X159537673Y-94524089D01*
X159843891Y-94585000D01*
X160156109Y-94585000D01*
X160462327Y-94524089D01*
X160750779Y-94404609D01*
X161010379Y-94231150D01*
X161231150Y-94010379D01*
X161404609Y-93750779D01*
X161524089Y-93462327D01*
X161585000Y-93156109D01*
X161585000Y-92843891D01*
X161524089Y-92537673D01*
X161404609Y-92249221D01*
X161231150Y-91989621D01*
X161010379Y-91768850D01*
X160750779Y-91595391D01*
X160462327Y-91475911D01*
X160156109Y-91415000D01*
X160066667Y-91415000D01*
X160134579Y-91191126D01*
X160161319Y-90919619D01*
X160137423Y-90676986D01*
X160319048Y-90640046D01*
X160543499Y-90545944D01*
X160572875Y-90522042D01*
X160619458Y-90299063D01*
X159600000Y-89279605D01*
X159585858Y-89293748D01*
X159406253Y-89114143D01*
X159420395Y-89100000D01*
X159779605Y-89100000D01*
X160799063Y-90119458D01*
X161022042Y-90072875D01*
X161045944Y-90043499D01*
X161140046Y-89819048D01*
X161188552Y-89580553D01*
X161189599Y-89337176D01*
X161143145Y-89098272D01*
X161050975Y-88873021D01*
X160916633Y-88670079D01*
X160563079Y-88316526D01*
X159779605Y-89100000D01*
X159420395Y-89100000D01*
X159406253Y-89085858D01*
X159585858Y-88906253D01*
X159600000Y-88920395D01*
X160383474Y-88136921D01*
X160029921Y-87783367D01*
X159826979Y-87649025D01*
X159601728Y-87556855D01*
X159362824Y-87510401D01*
X159119447Y-87511448D01*
X158987943Y-87538194D01*
X158948718Y-87340997D01*
X158799085Y-86979750D01*
X158581851Y-86654636D01*
X158305364Y-86378149D01*
X157980250Y-86160915D01*
X157619003Y-86011282D01*
X157235505Y-85935000D01*
X156844495Y-85935000D01*
X156460997Y-86011282D01*
X156099750Y-86160915D01*
X155862262Y-86319599D01*
X155785764Y-86067419D01*
X155657157Y-85826812D01*
X155484080Y-85615919D01*
X155273187Y-85442843D01*
X155032580Y-85314236D01*
X154771506Y-85235040D01*
X154500000Y-85208299D01*
X154228493Y-85235040D01*
X153967419Y-85314236D01*
X153726812Y-85442843D01*
X153515919Y-85615920D01*
X153342843Y-85826813D01*
X153214236Y-86067420D01*
X153135040Y-86328494D01*
X153123607Y-86444579D01*
X153027276Y-86234956D01*
X152678033Y-86059118D01*
X152301196Y-85954793D01*
X151911247Y-85925991D01*
X151523172Y-85973816D01*
X151151884Y-86096432D01*
X150892724Y-86234956D01*
X150754767Y-86535162D01*
X140660000Y-86535162D01*
X140660000Y-82032279D01*
X140688625Y-81740341D01*
X140764035Y-81490571D01*
X140886522Y-81260208D01*
X141051422Y-81058020D01*
X141252450Y-80891714D01*
X141481954Y-80767622D01*
X141731195Y-80690469D01*
X142021088Y-80660000D01*
X166967721Y-80660000D01*
X167259659Y-80688625D01*
X167259659Y-80688625D01*
G37*
X167259659Y-80688625D02*
X167509429Y-80764035D01*
X167739792Y-80886522D01*
X167941980Y-81051422D01*
X168108286Y-81252450D01*
X168232378Y-81481954D01*
X168309531Y-81731195D01*
X168340000Y-82021089D01*
X168340001Y-119967711D01*
X168311375Y-120259660D01*
X168235965Y-120509429D01*
X168113477Y-120739794D01*
X167948579Y-120941979D01*
X167747546Y-121108288D01*
X167518046Y-121232378D01*
X167268805Y-121309531D01*
X166978911Y-121340000D01*
X142032279Y-121340000D01*
X141740340Y-121311375D01*
X141490571Y-121235965D01*
X141260206Y-121113477D01*
X141058021Y-120948579D01*
X140891712Y-120747546D01*
X140767622Y-120518046D01*
X140690469Y-120268805D01*
X140660000Y-119978911D01*
X140660000Y-118250324D01*
X140965000Y-118250324D01*
X140965000Y-118749676D01*
X141062418Y-119239432D01*
X141253512Y-119700773D01*
X141530937Y-120115968D01*
X141884032Y-120469063D01*
X142299227Y-120746488D01*
X142760568Y-120937582D01*
X143250324Y-121035000D01*
X143749676Y-121035000D01*
X144239432Y-120937582D01*
X144700773Y-120746488D01*
X145115968Y-120469063D01*
X145469063Y-120115968D01*
X145746488Y-119700773D01*
X145937582Y-119239432D01*
X146035000Y-118749676D01*
X146035000Y-118250324D01*
X162965000Y-118250324D01*
X162965000Y-118749676D01*
X163062418Y-119239432D01*
X163253512Y-119700773D01*
X163530937Y-120115968D01*
X163884032Y-120469063D01*
X164299227Y-120746488D01*
X164760568Y-120937582D01*
X165250324Y-121035000D01*
X165749676Y-121035000D01*
X166239432Y-120937582D01*
X166700773Y-120746488D01*
X167115968Y-120469063D01*
X167469063Y-120115968D01*
X167746488Y-119700773D01*
X167937582Y-119239432D01*
X168035000Y-118749676D01*
X168035000Y-118250324D01*
X167937582Y-117760568D01*
X167746488Y-117299227D01*
X167469063Y-116884032D01*
X167115968Y-116530937D01*
X166700773Y-116253512D01*
X166239432Y-116062418D01*
X165749676Y-115965000D01*
X165250324Y-115965000D01*
X164760568Y-116062418D01*
X164299227Y-116253512D01*
X163884032Y-116530937D01*
X163530937Y-116884032D01*
X163253512Y-117299227D01*
X163062418Y-117760568D01*
X162965000Y-118250324D01*
X146035000Y-118250324D01*
X145937582Y-117760568D01*
X145746488Y-117299227D01*
X145469063Y-116884032D01*
X145115968Y-116530937D01*
X144700773Y-116253512D01*
X144301705Y-116088212D01*
X148145000Y-116088212D01*
X148145000Y-116311788D01*
X148188617Y-116531067D01*
X148274176Y-116737624D01*
X148398388Y-116923520D01*
X148556480Y-117081612D01*
X148742376Y-117205824D01*
X148948933Y-117291383D01*
X149168212Y-117335000D01*
X149391788Y-117335000D01*
X149611067Y-117291383D01*
X149817624Y-117205824D01*
X150003520Y-117081612D01*
X150161612Y-116923520D01*
X150285824Y-116737624D01*
X150371383Y-116531067D01*
X150415000Y-116311788D01*
X150415000Y-116088212D01*
X158585000Y-116088212D01*
X158585000Y-116311788D01*
X158628617Y-116531067D01*
X158714176Y-116737624D01*
X158838388Y-116923520D01*
X158996480Y-117081612D01*
X159182376Y-117205824D01*
X159388933Y-117291383D01*
X159608212Y-117335000D01*
X159831788Y-117335000D01*
X160051067Y-117291383D01*
X160257624Y-117205824D01*
X160443520Y-117081612D01*
X160601612Y-116923520D01*
X160725824Y-116737624D01*
X160811383Y-116531067D01*
X160855000Y-116311788D01*
X160855000Y-116088212D01*
X160811383Y-115868933D01*
X160725824Y-115662376D01*
X160601612Y-115476480D01*
X160443520Y-115318388D01*
X160257624Y-115194176D01*
X160051067Y-115108617D01*
X159831788Y-115065000D01*
X159608212Y-115065000D01*
X159388933Y-115108617D01*
X159182376Y-115194176D01*
X158996480Y-115318388D01*
X158838388Y-115476480D01*
X158714176Y-115662376D01*
X158628617Y-115868933D01*
X158585000Y-116088212D01*
X150415000Y-116088212D01*
X150371383Y-115868933D01*
X150285824Y-115662376D01*
X150161612Y-115476480D01*
X150003520Y-115318388D01*
X149817624Y-115194176D01*
X149611067Y-115108617D01*
X149391788Y-115065000D01*
X149168212Y-115065000D01*
X148948933Y-115108617D01*
X148742376Y-115194176D01*
X148556480Y-115318388D01*
X148398388Y-115476480D01*
X148274176Y-115662376D01*
X148188617Y-115868933D01*
X148145000Y-116088212D01*
X144301705Y-116088212D01*
X144239432Y-116062418D01*
X143749676Y-115965000D01*
X143250324Y-115965000D01*
X142760568Y-116062418D01*
X142299227Y-116253512D01*
X141884032Y-116530937D01*
X141530937Y-116884032D01*
X141253512Y-117299227D01*
X141062418Y-117760568D01*
X140965000Y-118250324D01*
X140660000Y-118250324D01*
X140660000Y-111843891D01*
X147415000Y-111843891D01*
X147415000Y-112156109D01*
X147475911Y-112462327D01*
X147595391Y-112750779D01*
X147768850Y-113010379D01*
X147989621Y-113231150D01*
X148249221Y-113404609D01*
X148537673Y-113524089D01*
X148843891Y-113585000D01*
X149156109Y-113585000D01*
X149462327Y-113524089D01*
X149556697Y-113485000D01*
X149566260Y-113485000D01*
X149853158Y-113427932D01*
X150123411Y-113315990D01*
X150366632Y-113153475D01*
X150573475Y-112946632D01*
X150735990Y-112703411D01*
X150847932Y-112433158D01*
X150905000Y-112146260D01*
X150905000Y-111853740D01*
X150882471Y-111740475D01*
X151865000Y-111740475D01*
X151865000Y-112259525D01*
X151966261Y-112768601D01*
X152164893Y-113248141D01*
X152453262Y-113679715D01*
X152820285Y-114046738D01*
X153251859Y-114335107D01*
X153731399Y-114533739D01*
X154240475Y-114635000D01*
X154759525Y-114635000D01*
X155268601Y-114533739D01*
X155748141Y-114335107D01*
X156179715Y-114046738D01*
X156546738Y-113679715D01*
X156835107Y-113248141D01*
X157033739Y-112768601D01*
X157135000Y-112259525D01*
X157135000Y-111740475D01*
X157033739Y-111231399D01*
X156835107Y-110751859D01*
X156546738Y-110320285D01*
X156179715Y-109953262D01*
X155748141Y-109664893D01*
X155268601Y-109466261D01*
X154759525Y-109365000D01*
X154240475Y-109365000D01*
X153731399Y-109466261D01*
X153251859Y-109664893D01*
X152820285Y-109953262D01*
X152453262Y-110320285D01*
X152164893Y-110751859D01*
X151966261Y-111231399D01*
X151865000Y-111740475D01*
X150882471Y-111740475D01*
X150847932Y-111566842D01*
X150735990Y-111296589D01*
X150690115Y-111227932D01*
X150894249Y-111141762D01*
X151119921Y-110988765D01*
X151579540Y-110529145D01*
X150690000Y-109639605D01*
X150675858Y-109653748D01*
X150496253Y-109474143D01*
X150510395Y-109460000D01*
X150148474Y-109098079D01*
X150183474Y-109063079D01*
X149400000Y-108279605D01*
X148380542Y-109299063D01*
X148427125Y-109522042D01*
X148456501Y-109545944D01*
X148680952Y-109640046D01*
X148867005Y-109677886D01*
X148847217Y-109773979D01*
X148845381Y-110046619D01*
X148896770Y-110314379D01*
X148937657Y-110415000D01*
X148843891Y-110415000D01*
X148537673Y-110475911D01*
X148249221Y-110595391D01*
X147989621Y-110768850D01*
X147768850Y-110989621D01*
X147595391Y-111249221D01*
X147475911Y-111537673D01*
X147415000Y-111843891D01*
X140660000Y-111843891D01*
X140660000Y-108337176D01*
X147810401Y-108337176D01*
X147811448Y-108580553D01*
X147859954Y-108819048D01*
X147954056Y-109043499D01*
X147977958Y-109072875D01*
X148200937Y-109119458D01*
X149220395Y-108100000D01*
X148436921Y-107316526D01*
X148083367Y-107670079D01*
X147949025Y-107873021D01*
X147856855Y-108098272D01*
X147810401Y-108337176D01*
X140660000Y-108337176D01*
X140660000Y-107136921D01*
X148616526Y-107136921D01*
X149400000Y-107920395D01*
X149414143Y-107906253D01*
X149593748Y-108085858D01*
X149579605Y-108100000D01*
X149835460Y-108355855D01*
X149800460Y-108390855D01*
X150690000Y-109280395D01*
X150704143Y-109266253D01*
X150883748Y-109445858D01*
X150869605Y-109460000D01*
X151759145Y-110349540D01*
X152218765Y-109889921D01*
X152371762Y-109664249D01*
X152477793Y-109413064D01*
X152532783Y-109146021D01*
X152534619Y-108873381D01*
X152525107Y-108823820D01*
X152768116Y-108743568D01*
X153027276Y-108605044D01*
X153165233Y-108304838D01*
X151960000Y-107099605D01*
X151945858Y-107113748D01*
X151766253Y-106934143D01*
X151780395Y-106920000D01*
X150575162Y-105714767D01*
X150274956Y-105852724D01*
X150099118Y-106201967D01*
X150006357Y-106537034D01*
X149880553Y-106511448D01*
X149637176Y-106510401D01*
X149398272Y-106556855D01*
X149173021Y-106649025D01*
X148970079Y-106783367D01*
X148616526Y-107136921D01*
X140660000Y-107136921D01*
X140660000Y-105535162D01*
X150754767Y-105535162D01*
X151960000Y-106740395D01*
X151974143Y-106726253D01*
X152153748Y-106905858D01*
X152139605Y-106920000D01*
X153344838Y-108125233D01*
X153645044Y-107987276D01*
X153753676Y-107771515D01*
X153967420Y-107885764D01*
X154228494Y-107964960D01*
X154500000Y-107991701D01*
X154771507Y-107964960D01*
X155032581Y-107885764D01*
X155244553Y-107772463D01*
X155280915Y-107860250D01*
X155498149Y-108185364D01*
X155774636Y-108461851D01*
X156099750Y-108679085D01*
X156460997Y-108828718D01*
X156475307Y-108831564D01*
X156458681Y-109000381D01*
X156485421Y-109271888D01*
X156564617Y-109532961D01*
X156693225Y-109773569D01*
X156822929Y-109931614D01*
X157838386Y-110947071D01*
X157996431Y-111076776D01*
X158237038Y-111205383D01*
X158310136Y-111227557D01*
X158264010Y-111296589D01*
X158152068Y-111566842D01*
X158095000Y-111853740D01*
X158095000Y-112146260D01*
X158152068Y-112433158D01*
X158264010Y-112703411D01*
X158426525Y-112946632D01*
X158633368Y-113153475D01*
X158876589Y-113315990D01*
X159146842Y-113427932D01*
X159433740Y-113485000D01*
X159443303Y-113485000D01*
X159537673Y-113524089D01*
X159843891Y-113585000D01*
X160156109Y-113585000D01*
X160462327Y-113524089D01*
X160750779Y-113404609D01*
X161010379Y-113231150D01*
X161231150Y-113010379D01*
X161404609Y-112750779D01*
X161524089Y-112462327D01*
X161585000Y-112156109D01*
X161585000Y-111843891D01*
X161524089Y-111537673D01*
X161404609Y-111249221D01*
X161231150Y-110989621D01*
X161010379Y-110768850D01*
X160750779Y-110595391D01*
X160462327Y-110475911D01*
X160156109Y-110415000D01*
X160066667Y-110415000D01*
X160134579Y-110191126D01*
X160161319Y-109919619D01*
X160137423Y-109676986D01*
X160319048Y-109640046D01*
X160543499Y-109545944D01*
X160572875Y-109522042D01*
X160619458Y-109299063D01*
X159600000Y-108279605D01*
X159585858Y-108293748D01*
X159406253Y-108114143D01*
X159420395Y-108100000D01*
X159779605Y-108100000D01*
X160799063Y-109119458D01*
X161022042Y-109072875D01*
X161045944Y-109043499D01*
X161140046Y-108819048D01*
X161188552Y-108580553D01*
X161189599Y-108337176D01*
X161143145Y-108098272D01*
X161050975Y-107873021D01*
X160916633Y-107670079D01*
X160563079Y-107316526D01*
X159779605Y-108100000D01*
X159420395Y-108100000D01*
X159406253Y-108085858D01*
X159585858Y-107906253D01*
X159600000Y-107920395D01*
X160383474Y-107136921D01*
X160029921Y-106783367D01*
X159826979Y-106649025D01*
X159601728Y-106556855D01*
X159362824Y-106510401D01*
X159119447Y-106511448D01*
X158987943Y-106538194D01*
X158948718Y-106340997D01*
X158799085Y-105979750D01*
X158581851Y-105654636D01*
X158305364Y-105378149D01*
X157980250Y-105160915D01*
X157619003Y-105011282D01*
X157235505Y-104935000D01*
X156844495Y-104935000D01*
X156460997Y-105011282D01*
X156099750Y-105160915D01*
X155862262Y-105319599D01*
X155785764Y-105067419D01*
X155657157Y-104826812D01*
X155484080Y-104615919D01*
X155273187Y-104442843D01*
X155032580Y-104314236D01*
X154771506Y-104235040D01*
X154500000Y-104208299D01*
X154228493Y-104235040D01*
X153967419Y-104314236D01*
X153726812Y-104442843D01*
X153515919Y-104615920D01*
X153342843Y-104826813D01*
X153214236Y-105067420D01*
X153135040Y-105328494D01*
X153123607Y-105444579D01*
X153027276Y-105234956D01*
X152678033Y-105059118D01*
X152301196Y-104954793D01*
X151911247Y-104925991D01*
X151523172Y-104973816D01*
X151151884Y-105096432D01*
X150892724Y-105234956D01*
X150754767Y-105535162D01*
X140660000Y-105535162D01*
X140660000Y-101276349D01*
X163903256Y-101276349D01*
X164107362Y-101632867D01*
X164550223Y-101863575D01*
X165029583Y-102003452D01*
X165527021Y-102047123D01*
X166023422Y-101992909D01*
X166499707Y-101842894D01*
X166892638Y-101632867D01*
X167096744Y-101276349D01*
X165500000Y-99679605D01*
X163903256Y-101276349D01*
X140660000Y-101276349D01*
X140660000Y-99527021D01*
X162952877Y-99527021D01*
X163007091Y-100023422D01*
X163157106Y-100499707D01*
X163367133Y-100892638D01*
X163723651Y-101096744D01*
X165320395Y-99500000D01*
X165679605Y-99500000D01*
X167276349Y-101096744D01*
X167632867Y-100892638D01*
X167863575Y-100449777D01*
X168003452Y-99970417D01*
X168047123Y-99472979D01*
X167992909Y-98976578D01*
X167842894Y-98500293D01*
X167632867Y-98107362D01*
X167276349Y-97903256D01*
X165679605Y-99500000D01*
X165320395Y-99500000D01*
X163723651Y-97903256D01*
X163367133Y-98107362D01*
X163136425Y-98550223D01*
X162996548Y-99029583D01*
X162952877Y-99527021D01*
X140660000Y-99527021D01*
X140660000Y-97088212D01*
X148145000Y-97088212D01*
X148145000Y-97311788D01*
X148188617Y-97531067D01*
X148274176Y-97737624D01*
X148398388Y-97923520D01*
X148556480Y-98081612D01*
X148742376Y-98205824D01*
X148948933Y-98291383D01*
X149168212Y-98335000D01*
X149391788Y-98335000D01*
X149611067Y-98291383D01*
X149817624Y-98205824D01*
X150003520Y-98081612D01*
X150161612Y-97923520D01*
X150285824Y-97737624D01*
X150371383Y-97531067D01*
X150415000Y-97311788D01*
X150415000Y-97088212D01*
X158585000Y-97088212D01*
X158585000Y-97311788D01*
X158628617Y-97531067D01*
X158714176Y-97737624D01*
X158838388Y-97923520D01*
X158996480Y-98081612D01*
X159182376Y-98205824D01*
X159388933Y-98291383D01*
X159608212Y-98335000D01*
X159831788Y-98335000D01*
X160051067Y-98291383D01*
X160257624Y-98205824D01*
X160443520Y-98081612D01*
X160601612Y-97923520D01*
X160725824Y-97737624D01*
X160731611Y-97723651D01*
X163903256Y-97723651D01*
X165500000Y-99320395D01*
X167096744Y-97723651D01*
X166892638Y-97367133D01*
X166449777Y-97136425D01*
X165970417Y-96996548D01*
X165472979Y-96952877D01*
X164976578Y-97007091D01*
X164500293Y-97157106D01*
X164107362Y-97367133D01*
X163903256Y-97723651D01*
X160731611Y-97723651D01*
X160811383Y-97531067D01*
X160855000Y-97311788D01*
X160855000Y-97088212D01*
X160811383Y-96868933D01*
X160725824Y-96662376D01*
X160601612Y-96476480D01*
X160443520Y-96318388D01*
X160257624Y-96194176D01*
X160051067Y-96108617D01*
X159831788Y-96065000D01*
X159608212Y-96065000D01*
X159388933Y-96108617D01*
X159182376Y-96194176D01*
X158996480Y-96318388D01*
X158838388Y-96476480D01*
X158714176Y-96662376D01*
X158628617Y-96868933D01*
X158585000Y-97088212D01*
X150415000Y-97088212D01*
X150371383Y-96868933D01*
X150285824Y-96662376D01*
X150161612Y-96476480D01*
X150003520Y-96318388D01*
X149817624Y-96194176D01*
X149611067Y-96108617D01*
X149391788Y-96065000D01*
X149168212Y-96065000D01*
X148948933Y-96108617D01*
X148742376Y-96194176D01*
X148556480Y-96318388D01*
X148398388Y-96476480D01*
X148274176Y-96662376D01*
X148188617Y-96868933D01*
X148145000Y-97088212D01*
X140660000Y-97088212D01*
X140660000Y-92843891D01*
X147415000Y-92843891D01*
X147415000Y-93156109D01*
X147475911Y-93462327D01*
X147595391Y-93750779D01*
X147768850Y-94010379D01*
X147989621Y-94231150D01*
X148249221Y-94404609D01*
X148537673Y-94524089D01*
X148843891Y-94585000D01*
X149156109Y-94585000D01*
X149462327Y-94524089D01*
X149556697Y-94485000D01*
X149566260Y-94485000D01*
X149853158Y-94427932D01*
X150123411Y-94315990D01*
X150366632Y-94153475D01*
X150573475Y-93946632D01*
X150735990Y-93703411D01*
X150847932Y-93433158D01*
X150905000Y-93146260D01*
X150905000Y-92853740D01*
X150882471Y-92740475D01*
X151865000Y-92740475D01*
X151865000Y-93259525D01*
X151966261Y-93768601D01*
X152164893Y-94248141D01*
X152453262Y-94679715D01*
X152820285Y-95046738D01*
X153251859Y-95335107D01*
X153731399Y-95533739D01*
X154240475Y-95635000D01*
X154759525Y-95635000D01*
X155268601Y-95533739D01*
X155748141Y-95335107D01*
X156179715Y-95046738D01*
X156546738Y-94679715D01*
X156835107Y-94248141D01*
X157033739Y-93768601D01*
X157135000Y-93259525D01*
X157135000Y-92740475D01*
X157033739Y-92231399D01*
X156835107Y-91751859D01*
X156546738Y-91320285D01*
X156179715Y-90953262D01*
X155748141Y-90664893D01*
X155268601Y-90466261D01*
X154759525Y-90365000D01*
X154240475Y-90365000D01*
X153731399Y-90466261D01*
X153251859Y-90664893D01*
X152820285Y-90953262D01*
X152453262Y-91320285D01*
X152164893Y-91751859D01*
X151966261Y-92231399D01*
X151865000Y-92740475D01*
X150882471Y-92740475D01*
X150847932Y-92566842D01*
X150735990Y-92296589D01*
X150690115Y-92227932D01*
X150894249Y-92141762D01*
X151119921Y-91988765D01*
X151579540Y-91529145D01*
X150690000Y-90639605D01*
X150675858Y-90653748D01*
X150496253Y-90474143D01*
X150510395Y-90460000D01*
X150148474Y-90098079D01*
X150183474Y-90063079D01*
X149400000Y-89279605D01*
X148380542Y-90299063D01*
X148427125Y-90522042D01*
X148456501Y-90545944D01*
X148680952Y-90640046D01*
X148867005Y-90677886D01*
X148847217Y-90773979D01*
X148845381Y-91046619D01*
X148896770Y-91314379D01*
X148937657Y-91415000D01*
X148843891Y-91415000D01*
X148537673Y-91475911D01*
X148249221Y-91595391D01*
X147989621Y-91768850D01*
X147768850Y-91989621D01*
X147595391Y-92249221D01*
X147475911Y-92537673D01*
X147415000Y-92843891D01*
X140660000Y-92843891D01*
X140660000Y-89337176D01*
X147810401Y-89337176D01*
X147811448Y-89580553D01*
X147859954Y-89819048D01*
X147954056Y-90043499D01*
X147977958Y-90072875D01*
X148200937Y-90119458D01*
X149220395Y-89100000D01*
X148436921Y-88316526D01*
X148083367Y-88670079D01*
X147949025Y-88873021D01*
X147856855Y-89098272D01*
X147810401Y-89337176D01*
X140660000Y-89337176D01*
X140660000Y-88136921D01*
X148616526Y-88136921D01*
X149400000Y-88920395D01*
X149414143Y-88906253D01*
X149593748Y-89085858D01*
X149579605Y-89100000D01*
X149835460Y-89355855D01*
X149800460Y-89390855D01*
X150690000Y-90280395D01*
X150704143Y-90266253D01*
X150883748Y-90445858D01*
X150869605Y-90460000D01*
X151759145Y-91349540D01*
X152218765Y-90889921D01*
X152371762Y-90664249D01*
X152477793Y-90413064D01*
X152532783Y-90146021D01*
X152534619Y-89873381D01*
X152525107Y-89823820D01*
X152768116Y-89743568D01*
X153027276Y-89605044D01*
X153165233Y-89304838D01*
X151960000Y-88099605D01*
X151945858Y-88113748D01*
X151766253Y-87934143D01*
X151780395Y-87920000D01*
X150575162Y-86714767D01*
X150274956Y-86852724D01*
X150099118Y-87201967D01*
X150006357Y-87537034D01*
X149880553Y-87511448D01*
X149637176Y-87510401D01*
X149398272Y-87556855D01*
X149173021Y-87649025D01*
X148970079Y-87783367D01*
X148616526Y-88136921D01*
X140660000Y-88136921D01*
X140660000Y-86535162D01*
X150754767Y-86535162D01*
X151960000Y-87740395D01*
X151974143Y-87726253D01*
X152153748Y-87905858D01*
X152139605Y-87920000D01*
X153344838Y-89125233D01*
X153645044Y-88987276D01*
X153753676Y-88771515D01*
X153967420Y-88885764D01*
X154228494Y-88964960D01*
X154500000Y-88991701D01*
X154771507Y-88964960D01*
X155032581Y-88885764D01*
X155244553Y-88772463D01*
X155280915Y-88860250D01*
X155498149Y-89185364D01*
X155774636Y-89461851D01*
X156099750Y-89679085D01*
X156460997Y-89828718D01*
X156475307Y-89831564D01*
X156458681Y-90000381D01*
X156485421Y-90271888D01*
X156564617Y-90532961D01*
X156693225Y-90773569D01*
X156822929Y-90931614D01*
X157838386Y-91947071D01*
X157996431Y-92076776D01*
X158237038Y-92205383D01*
X158310136Y-92227557D01*
X158264010Y-92296589D01*
X158152068Y-92566842D01*
X158095000Y-92853740D01*
X158095000Y-93146260D01*
X158152068Y-93433158D01*
X158264010Y-93703411D01*
X158426525Y-93946632D01*
X158633368Y-94153475D01*
X158876589Y-94315990D01*
X159146842Y-94427932D01*
X159433740Y-94485000D01*
X159443303Y-94485000D01*
X159537673Y-94524089D01*
X159843891Y-94585000D01*
X160156109Y-94585000D01*
X160462327Y-94524089D01*
X160750779Y-94404609D01*
X161010379Y-94231150D01*
X161231150Y-94010379D01*
X161404609Y-93750779D01*
X161524089Y-93462327D01*
X161585000Y-93156109D01*
X161585000Y-92843891D01*
X161524089Y-92537673D01*
X161404609Y-92249221D01*
X161231150Y-91989621D01*
X161010379Y-91768850D01*
X160750779Y-91595391D01*
X160462327Y-91475911D01*
X160156109Y-91415000D01*
X160066667Y-91415000D01*
X160134579Y-91191126D01*
X160161319Y-90919619D01*
X160137423Y-90676986D01*
X160319048Y-90640046D01*
X160543499Y-90545944D01*
X160572875Y-90522042D01*
X160619458Y-90299063D01*
X159600000Y-89279605D01*
X159585858Y-89293748D01*
X159406253Y-89114143D01*
X159420395Y-89100000D01*
X159779605Y-89100000D01*
X160799063Y-90119458D01*
X161022042Y-90072875D01*
X161045944Y-90043499D01*
X161140046Y-89819048D01*
X161188552Y-89580553D01*
X161189599Y-89337176D01*
X161143145Y-89098272D01*
X161050975Y-88873021D01*
X160916633Y-88670079D01*
X160563079Y-88316526D01*
X159779605Y-89100000D01*
X159420395Y-89100000D01*
X159406253Y-89085858D01*
X159585858Y-88906253D01*
X159600000Y-88920395D01*
X160383474Y-88136921D01*
X160029921Y-87783367D01*
X159826979Y-87649025D01*
X159601728Y-87556855D01*
X159362824Y-87510401D01*
X159119447Y-87511448D01*
X158987943Y-87538194D01*
X158948718Y-87340997D01*
X158799085Y-86979750D01*
X158581851Y-86654636D01*
X158305364Y-86378149D01*
X157980250Y-86160915D01*
X157619003Y-86011282D01*
X157235505Y-85935000D01*
X156844495Y-85935000D01*
X156460997Y-86011282D01*
X156099750Y-86160915D01*
X155862262Y-86319599D01*
X155785764Y-86067419D01*
X155657157Y-85826812D01*
X155484080Y-85615919D01*
X155273187Y-85442843D01*
X155032580Y-85314236D01*
X154771506Y-85235040D01*
X154500000Y-85208299D01*
X154228493Y-85235040D01*
X153967419Y-85314236D01*
X153726812Y-85442843D01*
X153515919Y-85615920D01*
X153342843Y-85826813D01*
X153214236Y-86067420D01*
X153135040Y-86328494D01*
X153123607Y-86444579D01*
X153027276Y-86234956D01*
X152678033Y-86059118D01*
X152301196Y-85954793D01*
X151911247Y-85925991D01*
X151523172Y-85973816D01*
X151151884Y-86096432D01*
X150892724Y-86234956D01*
X150754767Y-86535162D01*
X140660000Y-86535162D01*
X140660000Y-82032279D01*
X140688625Y-81740341D01*
X140764035Y-81490571D01*
X140886522Y-81260208D01*
X141051422Y-81058020D01*
X141252450Y-80891714D01*
X141481954Y-80767622D01*
X141731195Y-80690469D01*
X142021088Y-80660000D01*
X166967721Y-80660000D01*
X167259659Y-80688625D01*
M02*
