M48
; DRILL file {KiCad (5.1.2)-2} date 2020/04/16 23:41:56
; FORMAT={-:-/ absolute / metric / decimal}
; #@! TF.CreationDate,2020-04-16T23:41:56+09:00
; #@! TF.GenerationSoftware,Kicad,Pcbnew,(5.1.2)-2
; #@! TF.FileFunction,Plated,1,2,PTH
FMAT,2
METRIC
T1C1.200
T2C1.500
T3C2.200
%
G90
G05
T1
X154.5Y-87.1
X154.5Y-106.1
T2
X151.96Y-87.92
X157.04Y-87.92
X158.31Y-90.46
X151.96Y-106.92
X157.04Y-106.92
X158.31Y-109.46
T3
X165.5Y-118.5
X143.5Y-118.5
X165.5Y-99.5
T1
G00X149.4Y-89.1
M15
G01X149.4Y-89.1
M16
G05
G00X159.6Y-89.1
M15
G01X159.6Y-89.1
M16
G05
G00X149.4Y-108.1
M15
G01X149.4Y-108.1
M16
G05
G00X159.6Y-108.1
M15
G01X159.6Y-108.1
M16
G05
T2
G00X150.69Y-90.46
M15
G01X150.69Y-90.46
M16
G05
G00X150.69Y-109.46
M15
G01X150.69Y-109.46
M16
G05
T0
M30
